%TF.GenerationSoftware,KiCad,Pcbnew,(5.1.6)-1*%
%TF.CreationDate,2021-01-03T20:38:08+05:30*%
%TF.ProjectId,supplyboard,73757070-6c79-4626-9f61-72642e6b6963,rev?*%
%TF.SameCoordinates,Original*%
%TF.FileFunction,Soldermask,Bot*%
%TF.FilePolarity,Negative*%
%FSLAX46Y46*%
G04 Gerber Fmt 4.6, Leading zero omitted, Abs format (unit mm)*
G04 Created by KiCad (PCBNEW (5.1.6)-1) date 2021-01-03 20:38:08*
%MOMM*%
%LPD*%
G01*
G04 APERTURE LIST*
%ADD10C,0.150000*%
%ADD11C,1.800000*%
%ADD12O,3.300000X3.300000*%
%ADD13R,3.300000X3.300000*%
%ADD14C,1.700000*%
%ADD15R,1.700000X1.700000*%
%ADD16O,1.700000X1.700000*%
%ADD17O,1.500000X1.500000*%
%ADD18C,1.500000*%
%ADD19O,1.850000X1.300000*%
%ADD20R,1.300000X1.300000*%
%ADD21C,1.300000*%
%ADD22C,0.100000*%
%ADD23C,3.600000*%
%ADD24O,1.600000X1.600000*%
%ADD25R,1.600000X1.600000*%
%ADD26C,2.100000*%
%ADD27R,2.100000X2.100000*%
%ADD28O,3.100000X2.600000*%
%ADD29O,2.500000X2.500000*%
%ADD30C,2.500000*%
%ADD31O,2.300000X2.300000*%
%ADD32R,2.300000X2.300000*%
%ADD33C,1.900000*%
%ADD34R,1.900000X1.900000*%
%ADD35O,2.005000X2.100000*%
%ADD36R,2.005000X2.100000*%
%ADD37C,3.100000*%
%ADD38R,3.100000X3.100000*%
%ADD39O,1.900000X1.900000*%
%ADD40C,3.300000*%
%ADD41O,1.840000X2.290000*%
%ADD42O,1.300000X1.300000*%
%ADD43O,1.700000X1.300000*%
%ADD44R,2.100000X2.005000*%
%ADD45O,2.100000X2.005000*%
%ADD46O,1.300000X1.700000*%
%ADD47C,1.400000*%
%ADD48R,1.400000X1.400000*%
%ADD49C,0.254000*%
G04 APERTURE END LIST*
D10*
X52705000Y-116205000D02*
X52705000Y-116840000D01*
D11*
X192733565Y-148005000D02*
G75*
G03*
X192733565Y-148005000I-3058565J0D01*
G01*
D12*
%TO.C,D8*%
X71120000Y-106045000D03*
D13*
X71120000Y-121285000D03*
%TD*%
D14*
%TO.C,C20*%
X63500000Y-108910000D03*
D15*
X63500000Y-105410000D03*
%TD*%
D16*
%TO.C,R19*%
X77470000Y-104140000D03*
D14*
X77470000Y-116840000D03*
%TD*%
D17*
%TO.C,R25*%
X57785000Y-101600000D03*
D18*
X65405000Y-101600000D03*
%TD*%
D17*
%TO.C,R21*%
X65405000Y-99060000D03*
D18*
X57785000Y-99060000D03*
%TD*%
D17*
%TO.C,R9*%
X48895000Y-107315000D03*
D18*
X56515000Y-107315000D03*
%TD*%
D19*
%TO.C,J2*%
X40640000Y-105885000D03*
X40640000Y-103885000D03*
X40640000Y-101885000D03*
X40640000Y-99885000D03*
X40640000Y-97885000D03*
G36*
G01*
X39985832Y-95235000D02*
X41294168Y-95235000D01*
G75*
G02*
X41565000Y-95505832I0J-270832D01*
G01*
X41565000Y-96264168D01*
G75*
G02*
X41294168Y-96535000I-270832J0D01*
G01*
X39985832Y-96535000D01*
G75*
G02*
X39715000Y-96264168I0J270832D01*
G01*
X39715000Y-95505832D01*
G75*
G02*
X39985832Y-95235000I270832J0D01*
G01*
G37*
%TD*%
%TO.C,R35*%
G36*
G01*
X157588000Y-84357738D02*
X157588000Y-85314262D01*
G75*
G02*
X157316262Y-85586000I-271738J0D01*
G01*
X156609738Y-85586000D01*
G75*
G02*
X156338000Y-85314262I0J271738D01*
G01*
X156338000Y-84357738D01*
G75*
G02*
X156609738Y-84086000I271738J0D01*
G01*
X157316262Y-84086000D01*
G75*
G02*
X157588000Y-84357738I0J-271738D01*
G01*
G37*
G36*
G01*
X159638000Y-84357738D02*
X159638000Y-85314262D01*
G75*
G02*
X159366262Y-85586000I-271738J0D01*
G01*
X158659738Y-85586000D01*
G75*
G02*
X158388000Y-85314262I0J271738D01*
G01*
X158388000Y-84357738D01*
G75*
G02*
X158659738Y-84086000I271738J0D01*
G01*
X159366262Y-84086000D01*
G75*
G02*
X159638000Y-84357738I0J-271738D01*
G01*
G37*
%TD*%
D16*
%TO.C,R31*%
X159258000Y-109728000D03*
D14*
X174498000Y-109728000D03*
%TD*%
D17*
%TO.C,R30*%
X167132000Y-106934000D03*
D18*
X159512000Y-106934000D03*
%TD*%
D17*
%TO.C,R36*%
X164084000Y-101854000D03*
D18*
X156464000Y-101854000D03*
%TD*%
D20*
%TO.C,C18*%
X143764000Y-122936000D03*
D21*
X143764000Y-124936000D03*
%TD*%
%TO.C,C9*%
G36*
G01*
X140363000Y-114778262D02*
X140363000Y-113821738D01*
G75*
G02*
X140634738Y-113550000I271738J0D01*
G01*
X141341262Y-113550000D01*
G75*
G02*
X141613000Y-113821738I0J-271738D01*
G01*
X141613000Y-114778262D01*
G75*
G02*
X141341262Y-115050000I-271738J0D01*
G01*
X140634738Y-115050000D01*
G75*
G02*
X140363000Y-114778262I0J271738D01*
G01*
G37*
G36*
G01*
X138313000Y-114778262D02*
X138313000Y-113821738D01*
G75*
G02*
X138584738Y-113550000I271738J0D01*
G01*
X139291262Y-113550000D01*
G75*
G02*
X139563000Y-113821738I0J-271738D01*
G01*
X139563000Y-114778262D01*
G75*
G02*
X139291262Y-115050000I-271738J0D01*
G01*
X138584738Y-115050000D01*
G75*
G02*
X138313000Y-114778262I0J271738D01*
G01*
G37*
%TD*%
%TO.C,R10*%
G36*
G01*
X129902000Y-117377738D02*
X129902000Y-118334262D01*
G75*
G02*
X129630262Y-118606000I-271738J0D01*
G01*
X128923738Y-118606000D01*
G75*
G02*
X128652000Y-118334262I0J271738D01*
G01*
X128652000Y-117377738D01*
G75*
G02*
X128923738Y-117106000I271738J0D01*
G01*
X129630262Y-117106000D01*
G75*
G02*
X129902000Y-117377738I0J-271738D01*
G01*
G37*
G36*
G01*
X131952000Y-117377738D02*
X131952000Y-118334262D01*
G75*
G02*
X131680262Y-118606000I-271738J0D01*
G01*
X130973738Y-118606000D01*
G75*
G02*
X130702000Y-118334262I0J271738D01*
G01*
X130702000Y-117377738D01*
G75*
G02*
X130973738Y-117106000I271738J0D01*
G01*
X131680262Y-117106000D01*
G75*
G02*
X131952000Y-117377738I0J-271738D01*
G01*
G37*
%TD*%
%TO.C,D3*%
G36*
G01*
X186160968Y-94763032D02*
X186160968Y-94763032D01*
G75*
G02*
X186160968Y-96389378I-813173J-813173D01*
G01*
X186160968Y-96389378D01*
G75*
G02*
X184534622Y-96389378I-813173J813173D01*
G01*
X184534622Y-96389378D01*
G75*
G02*
X184534622Y-94763032I813173J813173D01*
G01*
X184534622Y-94763032D01*
G75*
G02*
X186160968Y-94763032I813173J-813173D01*
G01*
G37*
D22*
G36*
X192532000Y-86765654D02*
G01*
X194158346Y-88392000D01*
X192532000Y-90018346D01*
X190905654Y-88392000D01*
X192532000Y-86765654D01*
G37*
%TD*%
D23*
%TO.C,*%
X42025000Y-82500000D03*
%TD*%
%TO.C,*%
X189665000Y-82550000D03*
%TD*%
%TO.C,*%
X189675000Y-148005000D03*
%TD*%
%TO.C,*%
X160274000Y-142494000D03*
%TD*%
%TO.C,*%
X89408000Y-145288000D03*
%TD*%
%TO.C,*%
X42025000Y-148005000D03*
%TD*%
D15*
%TO.C,C21*%
X48514000Y-103505000D03*
D14*
X48514000Y-100005000D03*
%TD*%
D24*
%TO.C,ZD*%
X146558000Y-117856000D03*
D25*
X138938000Y-117856000D03*
%TD*%
D26*
%TO.C,C4*%
X188806144Y-120618000D03*
D27*
X182461856Y-116618000D03*
D26*
X188134000Y-118618000D03*
D27*
X183134000Y-118618000D03*
%TD*%
D28*
%TO.C,T1*%
X84455000Y-113030000D03*
X84455000Y-122174000D03*
X84455000Y-135890000D03*
X104648000Y-122174000D03*
X104648000Y-113030000D03*
X104648000Y-108458000D03*
X104648000Y-126746000D03*
X84455000Y-131318000D03*
X84455000Y-126746000D03*
X104648000Y-131318000D03*
X84455000Y-117602000D03*
X84455000Y-108458000D03*
X104648000Y-117348000D03*
X104648000Y-135890000D03*
%TD*%
D25*
%TO.C,D2*%
X127254000Y-117856000D03*
D24*
X134874000Y-117856000D03*
%TD*%
%TO.C,D7*%
X132842000Y-91694000D03*
D25*
X140462000Y-91694000D03*
%TD*%
%TO.C,D10*%
X166116000Y-88138000D03*
D24*
X166116000Y-95758000D03*
%TD*%
D25*
%TO.C,D9*%
X163322000Y-88392000D03*
D24*
X155702000Y-88392000D03*
%TD*%
%TO.C,D14*%
X156972000Y-104394000D03*
D25*
X164592000Y-104394000D03*
%TD*%
D22*
%TO.C,D13*%
G36*
X152030629Y-107950000D02*
G01*
X153162000Y-106818629D01*
X154293371Y-107950000D01*
X153162000Y-109081371D01*
X152030629Y-107950000D01*
G37*
G36*
G01*
X157984469Y-112772469D02*
X157984469Y-112772469D01*
G75*
G02*
X159115839Y-112772469I565685J-565685D01*
G01*
X159115839Y-112772469D01*
G75*
G02*
X159115839Y-113903839I-565685J-565685D01*
G01*
X159115839Y-113903839D01*
G75*
G02*
X157984469Y-113903839I-565685J565685D01*
G01*
X157984469Y-113903839D01*
G75*
G02*
X157984469Y-112772469I565685J565685D01*
G01*
G37*
%TD*%
D29*
%TO.C,R4*%
X131318000Y-113284000D03*
D30*
X146558000Y-113284000D03*
%TD*%
D31*
%TO.C,D4*%
X113030000Y-127254000D03*
D32*
X113030000Y-117094000D03*
%TD*%
D33*
%TO.C,LED1*%
X49530000Y-115824000D03*
D34*
X52070000Y-115824000D03*
%TD*%
D33*
%TO.C,LED2*%
X46228000Y-86868000D03*
D34*
X46228000Y-89408000D03*
%TD*%
D35*
%TO.C,Q2*%
X57404000Y-139192000D03*
X59944000Y-136652000D03*
D36*
X62484000Y-139192000D03*
%TD*%
D35*
%TO.C,Q1*%
X157988000Y-138176000D03*
X160528000Y-135636000D03*
D36*
X163068000Y-138176000D03*
%TD*%
D31*
%TO.C,D1*%
X176784000Y-122682000D03*
D32*
X176784000Y-132842000D03*
%TD*%
D31*
%TO.C,D6*%
X104775000Y-92075000D03*
D32*
X104775000Y-102235000D03*
%TD*%
D16*
%TO.C,R42*%
X177800000Y-104394000D03*
D14*
X177800000Y-114554000D03*
%TD*%
D37*
%TO.C,J1*%
X183388000Y-137668000D03*
X183388000Y-132588000D03*
D38*
X183388000Y-127508000D03*
%TD*%
D29*
%TO.C,R2*%
X70485000Y-128905000D03*
D30*
X55245000Y-128905000D03*
%TD*%
%TO.C,L1*%
X45933068Y-110022932D03*
X38862000Y-117094000D03*
%TD*%
%TO.C,L2*%
X181356000Y-85250000D03*
X181356000Y-95250000D03*
%TD*%
D39*
%TO.C,U6*%
X189680000Y-107696000D03*
X187980000Y-103996000D03*
X186280000Y-107696000D03*
X184580000Y-103996000D03*
D34*
X182880000Y-107696000D03*
%TD*%
%TO.C,C7*%
G36*
G01*
X140021500Y-112495250D02*
X140021500Y-111532750D01*
G75*
G02*
X140290250Y-111264000I268750J0D01*
G01*
X140827750Y-111264000D01*
G75*
G02*
X141096500Y-111532750I0J-268750D01*
G01*
X141096500Y-112495250D01*
G75*
G02*
X140827750Y-112764000I-268750J0D01*
G01*
X140290250Y-112764000D01*
G75*
G02*
X140021500Y-112495250I0J268750D01*
G01*
G37*
G36*
G01*
X138146500Y-112495250D02*
X138146500Y-111532750D01*
G75*
G02*
X138415250Y-111264000I268750J0D01*
G01*
X138952750Y-111264000D01*
G75*
G02*
X139221500Y-111532750I0J-268750D01*
G01*
X139221500Y-112495250D01*
G75*
G02*
X138952750Y-112764000I-268750J0D01*
G01*
X138415250Y-112764000D01*
G75*
G02*
X138146500Y-112495250I0J268750D01*
G01*
G37*
%TD*%
D14*
%TO.C,C8*%
X170688000Y-81868000D03*
D15*
X170688000Y-86868000D03*
%TD*%
D16*
%TO.C,R45*%
X170942000Y-92456000D03*
D14*
X170942000Y-102616000D03*
%TD*%
%TO.C,R1*%
G36*
G01*
X128748262Y-92310000D02*
X127791738Y-92310000D01*
G75*
G02*
X127520000Y-92038262I0J271738D01*
G01*
X127520000Y-91331738D01*
G75*
G02*
X127791738Y-91060000I271738J0D01*
G01*
X128748262Y-91060000D01*
G75*
G02*
X129020000Y-91331738I0J-271738D01*
G01*
X129020000Y-92038262D01*
G75*
G02*
X128748262Y-92310000I-271738J0D01*
G01*
G37*
G36*
G01*
X128748262Y-94360000D02*
X127791738Y-94360000D01*
G75*
G02*
X127520000Y-94088262I0J271738D01*
G01*
X127520000Y-93381738D01*
G75*
G02*
X127791738Y-93110000I271738J0D01*
G01*
X128748262Y-93110000D01*
G75*
G02*
X129020000Y-93381738I0J-271738D01*
G01*
X129020000Y-94088262D01*
G75*
G02*
X128748262Y-94360000I-271738J0D01*
G01*
G37*
%TD*%
D16*
%TO.C,R27*%
X142240000Y-94742000D03*
D14*
X132080000Y-94742000D03*
%TD*%
%TO.C,C3*%
X122428000Y-96480000D03*
D15*
X122428000Y-93980000D03*
%TD*%
%TO.C,C15*%
G36*
G01*
X136876262Y-94587000D02*
X135919738Y-94587000D01*
G75*
G02*
X135648000Y-94315262I0J271738D01*
G01*
X135648000Y-93608738D01*
G75*
G02*
X135919738Y-93337000I271738J0D01*
G01*
X136876262Y-93337000D01*
G75*
G02*
X137148000Y-93608738I0J-271738D01*
G01*
X137148000Y-94315262D01*
G75*
G02*
X136876262Y-94587000I-271738J0D01*
G01*
G37*
G36*
G01*
X136876262Y-96637000D02*
X135919738Y-96637000D01*
G75*
G02*
X135648000Y-96365262I0J271738D01*
G01*
X135648000Y-95658738D01*
G75*
G02*
X135919738Y-95387000I271738J0D01*
G01*
X136876262Y-95387000D01*
G75*
G02*
X137148000Y-95658738I0J-271738D01*
G01*
X137148000Y-96365262D01*
G75*
G02*
X136876262Y-96637000I-271738J0D01*
G01*
G37*
%TD*%
D16*
%TO.C,R46*%
X163068000Y-119634000D03*
D14*
X173228000Y-119634000D03*
%TD*%
D16*
%TO.C,R47*%
X173228000Y-122682000D03*
D14*
X163068000Y-122682000D03*
%TD*%
D23*
%TO.C,*%
X135255000Y-145288000D03*
%TD*%
%TO.C,*%
X135255000Y-84328000D03*
%TD*%
%TO.C,*%
X121285000Y-85090000D03*
%TD*%
%TO.C,REF\u002A\u002A*%
X59944000Y-144272000D03*
%TD*%
%TO.C,C6*%
G36*
G01*
X44606738Y-103270000D02*
X45563262Y-103270000D01*
G75*
G02*
X45835000Y-103541738I0J-271738D01*
G01*
X45835000Y-104248262D01*
G75*
G02*
X45563262Y-104520000I-271738J0D01*
G01*
X44606738Y-104520000D01*
G75*
G02*
X44335000Y-104248262I0J271738D01*
G01*
X44335000Y-103541738D01*
G75*
G02*
X44606738Y-103270000I271738J0D01*
G01*
G37*
G36*
G01*
X44606738Y-101220000D02*
X45563262Y-101220000D01*
G75*
G02*
X45835000Y-101491738I0J-271738D01*
G01*
X45835000Y-102198262D01*
G75*
G02*
X45563262Y-102470000I-271738J0D01*
G01*
X44606738Y-102470000D01*
G75*
G02*
X44335000Y-102198262I0J271738D01*
G01*
X44335000Y-101491738D01*
G75*
G02*
X44606738Y-101220000I271738J0D01*
G01*
G37*
%TD*%
D16*
%TO.C,R12*%
X50546000Y-82296000D03*
D14*
X50546000Y-92456000D03*
%TD*%
%TO.C,C16*%
X59650000Y-90932000D03*
D15*
X57150000Y-90932000D03*
%TD*%
D26*
%TO.C,C12*%
X68580000Y-80130000D03*
X68580000Y-87630000D03*
%TD*%
%TO.C,R7*%
G36*
G01*
X103905000Y-83663262D02*
X103905000Y-82706738D01*
G75*
G02*
X104176738Y-82435000I271738J0D01*
G01*
X104883262Y-82435000D01*
G75*
G02*
X105155000Y-82706738I0J-271738D01*
G01*
X105155000Y-83663262D01*
G75*
G02*
X104883262Y-83935000I-271738J0D01*
G01*
X104176738Y-83935000D01*
G75*
G02*
X103905000Y-83663262I0J271738D01*
G01*
G37*
G36*
G01*
X101855000Y-83663262D02*
X101855000Y-82706738D01*
G75*
G02*
X102126738Y-82435000I271738J0D01*
G01*
X102833262Y-82435000D01*
G75*
G02*
X103105000Y-82706738I0J-271738D01*
G01*
X103105000Y-83663262D01*
G75*
G02*
X102833262Y-83935000I-271738J0D01*
G01*
X102126738Y-83935000D01*
G75*
G02*
X101855000Y-83663262I0J271738D01*
G01*
G37*
%TD*%
D16*
%TO.C,R14*%
X143002000Y-98044000D03*
D14*
X143002000Y-108204000D03*
%TD*%
D16*
%TO.C,R29*%
X150114000Y-106680000D03*
D14*
X150114000Y-96520000D03*
%TD*%
D16*
%TO.C,R28*%
X151384000Y-93980000D03*
D14*
X151384000Y-83820000D03*
%TD*%
D16*
%TO.C,R20*%
X88265000Y-97155000D03*
D14*
X78105000Y-97155000D03*
%TD*%
D16*
%TO.C,R18*%
X113030000Y-98552000D03*
D14*
X113030000Y-88392000D03*
%TD*%
D16*
%TO.C,R5*%
X118618000Y-111760000D03*
D14*
X118618000Y-101600000D03*
%TD*%
D16*
%TO.C,R16*%
X90424000Y-89408000D03*
D14*
X90424000Y-79248000D03*
%TD*%
D16*
%TO.C,R17*%
X73660000Y-90170000D03*
D14*
X73660000Y-80010000D03*
%TD*%
%TO.C,R8*%
G36*
G01*
X49754262Y-111360000D02*
X48797738Y-111360000D01*
G75*
G02*
X48526000Y-111088262I0J271738D01*
G01*
X48526000Y-110381738D01*
G75*
G02*
X48797738Y-110110000I271738J0D01*
G01*
X49754262Y-110110000D01*
G75*
G02*
X50026000Y-110381738I0J-271738D01*
G01*
X50026000Y-111088262D01*
G75*
G02*
X49754262Y-111360000I-271738J0D01*
G01*
G37*
G36*
G01*
X49754262Y-113410000D02*
X48797738Y-113410000D01*
G75*
G02*
X48526000Y-113138262I0J271738D01*
G01*
X48526000Y-112431738D01*
G75*
G02*
X48797738Y-112160000I271738J0D01*
G01*
X49754262Y-112160000D01*
G75*
G02*
X50026000Y-112431738I0J-271738D01*
G01*
X50026000Y-113138262D01*
G75*
G02*
X49754262Y-113410000I-271738J0D01*
G01*
G37*
%TD*%
D30*
%TO.C,C19*%
X49499301Y-125760699D03*
D22*
G36*
X44196000Y-132831767D02*
G01*
X42428233Y-131064000D01*
X44196000Y-129296233D01*
X45963767Y-131064000D01*
X44196000Y-132831767D01*
G37*
%TD*%
%TO.C,R15*%
G36*
G01*
X119350262Y-107296000D02*
X118393738Y-107296000D01*
G75*
G02*
X118122000Y-107024262I0J271738D01*
G01*
X118122000Y-106317738D01*
G75*
G02*
X118393738Y-106046000I271738J0D01*
G01*
X119350262Y-106046000D01*
G75*
G02*
X119622000Y-106317738I0J-271738D01*
G01*
X119622000Y-107024262D01*
G75*
G02*
X119350262Y-107296000I-271738J0D01*
G01*
G37*
G36*
G01*
X119350262Y-109346000D02*
X118393738Y-109346000D01*
G75*
G02*
X118122000Y-109074262I0J271738D01*
G01*
X118122000Y-108367738D01*
G75*
G02*
X118393738Y-108096000I271738J0D01*
G01*
X119350262Y-108096000D01*
G75*
G02*
X119622000Y-108367738I0J-271738D01*
G01*
X119622000Y-109074262D01*
G75*
G02*
X119350262Y-109346000I-271738J0D01*
G01*
G37*
%TD*%
%TO.C,R11*%
G36*
G01*
X165500000Y-110460262D02*
X165500000Y-109503738D01*
G75*
G02*
X165771738Y-109232000I271738J0D01*
G01*
X166478262Y-109232000D01*
G75*
G02*
X166750000Y-109503738I0J-271738D01*
G01*
X166750000Y-110460262D01*
G75*
G02*
X166478262Y-110732000I-271738J0D01*
G01*
X165771738Y-110732000D01*
G75*
G02*
X165500000Y-110460262I0J271738D01*
G01*
G37*
G36*
G01*
X163450000Y-110460262D02*
X163450000Y-109503738D01*
G75*
G02*
X163721738Y-109232000I271738J0D01*
G01*
X164428262Y-109232000D01*
G75*
G02*
X164700000Y-109503738I0J-271738D01*
G01*
X164700000Y-110460262D01*
G75*
G02*
X164428262Y-110732000I-271738J0D01*
G01*
X163721738Y-110732000D01*
G75*
G02*
X163450000Y-110460262I0J271738D01*
G01*
G37*
%TD*%
%TO.C,R13*%
G36*
G01*
X57306738Y-104540000D02*
X58263262Y-104540000D01*
G75*
G02*
X58535000Y-104811738I0J-271738D01*
G01*
X58535000Y-105518262D01*
G75*
G02*
X58263262Y-105790000I-271738J0D01*
G01*
X57306738Y-105790000D01*
G75*
G02*
X57035000Y-105518262I0J271738D01*
G01*
X57035000Y-104811738D01*
G75*
G02*
X57306738Y-104540000I271738J0D01*
G01*
G37*
G36*
G01*
X57306738Y-102490000D02*
X58263262Y-102490000D01*
G75*
G02*
X58535000Y-102761738I0J-271738D01*
G01*
X58535000Y-103468262D01*
G75*
G02*
X58263262Y-103740000I-271738J0D01*
G01*
X57306738Y-103740000D01*
G75*
G02*
X57035000Y-103468262I0J271738D01*
G01*
X57035000Y-102761738D01*
G75*
G02*
X57306738Y-102490000I271738J0D01*
G01*
G37*
%TD*%
%TO.C,R32*%
G36*
G01*
X156102000Y-110968262D02*
X156102000Y-110011738D01*
G75*
G02*
X156373738Y-109740000I271738J0D01*
G01*
X157080262Y-109740000D01*
G75*
G02*
X157352000Y-110011738I0J-271738D01*
G01*
X157352000Y-110968262D01*
G75*
G02*
X157080262Y-111240000I-271738J0D01*
G01*
X156373738Y-111240000D01*
G75*
G02*
X156102000Y-110968262I0J271738D01*
G01*
G37*
G36*
G01*
X154052000Y-110968262D02*
X154052000Y-110011738D01*
G75*
G02*
X154323738Y-109740000I271738J0D01*
G01*
X155030262Y-109740000D01*
G75*
G02*
X155302000Y-110011738I0J-271738D01*
G01*
X155302000Y-110968262D01*
G75*
G02*
X155030262Y-111240000I-271738J0D01*
G01*
X154323738Y-111240000D01*
G75*
G02*
X154052000Y-110968262I0J271738D01*
G01*
G37*
%TD*%
%TO.C,R33*%
G36*
G01*
X152683738Y-100222000D02*
X153640262Y-100222000D01*
G75*
G02*
X153912000Y-100493738I0J-271738D01*
G01*
X153912000Y-101200262D01*
G75*
G02*
X153640262Y-101472000I-271738J0D01*
G01*
X152683738Y-101472000D01*
G75*
G02*
X152412000Y-101200262I0J271738D01*
G01*
X152412000Y-100493738D01*
G75*
G02*
X152683738Y-100222000I271738J0D01*
G01*
G37*
G36*
G01*
X152683738Y-98172000D02*
X153640262Y-98172000D01*
G75*
G02*
X153912000Y-98443738I0J-271738D01*
G01*
X153912000Y-99150262D01*
G75*
G02*
X153640262Y-99422000I-271738J0D01*
G01*
X152683738Y-99422000D01*
G75*
G02*
X152412000Y-99150262I0J271738D01*
G01*
X152412000Y-98443738D01*
G75*
G02*
X152683738Y-98172000I271738J0D01*
G01*
G37*
%TD*%
%TO.C,R37*%
G36*
G01*
X167024000Y-99792262D02*
X167024000Y-98835738D01*
G75*
G02*
X167295738Y-98564000I271738J0D01*
G01*
X168002262Y-98564000D01*
G75*
G02*
X168274000Y-98835738I0J-271738D01*
G01*
X168274000Y-99792262D01*
G75*
G02*
X168002262Y-100064000I-271738J0D01*
G01*
X167295738Y-100064000D01*
G75*
G02*
X167024000Y-99792262I0J271738D01*
G01*
G37*
G36*
G01*
X164974000Y-99792262D02*
X164974000Y-98835738D01*
G75*
G02*
X165245738Y-98564000I271738J0D01*
G01*
X165952262Y-98564000D01*
G75*
G02*
X166224000Y-98835738I0J-271738D01*
G01*
X166224000Y-99792262D01*
G75*
G02*
X165952262Y-100064000I-271738J0D01*
G01*
X165245738Y-100064000D01*
G75*
G02*
X164974000Y-99792262I0J271738D01*
G01*
G37*
%TD*%
%TO.C,R38*%
G36*
G01*
X171733738Y-109629000D02*
X172690262Y-109629000D01*
G75*
G02*
X172962000Y-109900738I0J-271738D01*
G01*
X172962000Y-110607262D01*
G75*
G02*
X172690262Y-110879000I-271738J0D01*
G01*
X171733738Y-110879000D01*
G75*
G02*
X171462000Y-110607262I0J271738D01*
G01*
X171462000Y-109900738D01*
G75*
G02*
X171733738Y-109629000I271738J0D01*
G01*
G37*
G36*
G01*
X171733738Y-107579000D02*
X172690262Y-107579000D01*
G75*
G02*
X172962000Y-107850738I0J-271738D01*
G01*
X172962000Y-108557262D01*
G75*
G02*
X172690262Y-108829000I-271738J0D01*
G01*
X171733738Y-108829000D01*
G75*
G02*
X171462000Y-108557262I0J271738D01*
G01*
X171462000Y-107850738D01*
G75*
G02*
X171733738Y-107579000I271738J0D01*
G01*
G37*
%TD*%
%TO.C,R39*%
G36*
G01*
X169056000Y-105380262D02*
X169056000Y-104423738D01*
G75*
G02*
X169327738Y-104152000I271738J0D01*
G01*
X170034262Y-104152000D01*
G75*
G02*
X170306000Y-104423738I0J-271738D01*
G01*
X170306000Y-105380262D01*
G75*
G02*
X170034262Y-105652000I-271738J0D01*
G01*
X169327738Y-105652000D01*
G75*
G02*
X169056000Y-105380262I0J271738D01*
G01*
G37*
G36*
G01*
X167006000Y-105380262D02*
X167006000Y-104423738D01*
G75*
G02*
X167277738Y-104152000I271738J0D01*
G01*
X167984262Y-104152000D01*
G75*
G02*
X168256000Y-104423738I0J-271738D01*
G01*
X168256000Y-105380262D01*
G75*
G02*
X167984262Y-105652000I-271738J0D01*
G01*
X167277738Y-105652000D01*
G75*
G02*
X167006000Y-105380262I0J271738D01*
G01*
G37*
%TD*%
%TO.C,R40*%
G36*
G01*
X159287738Y-123082000D02*
X160244262Y-123082000D01*
G75*
G02*
X160516000Y-123353738I0J-271738D01*
G01*
X160516000Y-124060262D01*
G75*
G02*
X160244262Y-124332000I-271738J0D01*
G01*
X159287738Y-124332000D01*
G75*
G02*
X159016000Y-124060262I0J271738D01*
G01*
X159016000Y-123353738D01*
G75*
G02*
X159287738Y-123082000I271738J0D01*
G01*
G37*
G36*
G01*
X159287738Y-121032000D02*
X160244262Y-121032000D01*
G75*
G02*
X160516000Y-121303738I0J-271738D01*
G01*
X160516000Y-122010262D01*
G75*
G02*
X160244262Y-122282000I-271738J0D01*
G01*
X159287738Y-122282000D01*
G75*
G02*
X159016000Y-122010262I0J271738D01*
G01*
X159016000Y-121303738D01*
G75*
G02*
X159287738Y-121032000I271738J0D01*
G01*
G37*
%TD*%
%TO.C,R41*%
G36*
G01*
X177137000Y-110519738D02*
X177137000Y-111476262D01*
G75*
G02*
X176865262Y-111748000I-271738J0D01*
G01*
X176158738Y-111748000D01*
G75*
G02*
X175887000Y-111476262I0J271738D01*
G01*
X175887000Y-110519738D01*
G75*
G02*
X176158738Y-110248000I271738J0D01*
G01*
X176865262Y-110248000D01*
G75*
G02*
X177137000Y-110519738I0J-271738D01*
G01*
G37*
G36*
G01*
X179187000Y-110519738D02*
X179187000Y-111476262D01*
G75*
G02*
X178915262Y-111748000I-271738J0D01*
G01*
X178208738Y-111748000D01*
G75*
G02*
X177937000Y-111476262I0J271738D01*
G01*
X177937000Y-110519738D01*
G75*
G02*
X178208738Y-110248000I271738J0D01*
G01*
X178915262Y-110248000D01*
G75*
G02*
X179187000Y-110519738I0J-271738D01*
G01*
G37*
%TD*%
%TO.C,R44*%
G36*
G01*
X149068262Y-90024000D02*
X148111738Y-90024000D01*
G75*
G02*
X147840000Y-89752262I0J271738D01*
G01*
X147840000Y-89045738D01*
G75*
G02*
X148111738Y-88774000I271738J0D01*
G01*
X149068262Y-88774000D01*
G75*
G02*
X149340000Y-89045738I0J-271738D01*
G01*
X149340000Y-89752262D01*
G75*
G02*
X149068262Y-90024000I-271738J0D01*
G01*
G37*
G36*
G01*
X149068262Y-92074000D02*
X148111738Y-92074000D01*
G75*
G02*
X147840000Y-91802262I0J271738D01*
G01*
X147840000Y-91095738D01*
G75*
G02*
X148111738Y-90824000I271738J0D01*
G01*
X149068262Y-90824000D01*
G75*
G02*
X149340000Y-91095738I0J-271738D01*
G01*
X149340000Y-91802262D01*
G75*
G02*
X149068262Y-92074000I-271738J0D01*
G01*
G37*
%TD*%
%TO.C,R48*%
G36*
G01*
X161319738Y-106563000D02*
X162276262Y-106563000D01*
G75*
G02*
X162548000Y-106834738I0J-271738D01*
G01*
X162548000Y-107541262D01*
G75*
G02*
X162276262Y-107813000I-271738J0D01*
G01*
X161319738Y-107813000D01*
G75*
G02*
X161048000Y-107541262I0J271738D01*
G01*
X161048000Y-106834738D01*
G75*
G02*
X161319738Y-106563000I271738J0D01*
G01*
G37*
G36*
G01*
X161319738Y-104513000D02*
X162276262Y-104513000D01*
G75*
G02*
X162548000Y-104784738I0J-271738D01*
G01*
X162548000Y-105491262D01*
G75*
G02*
X162276262Y-105763000I-271738J0D01*
G01*
X161319738Y-105763000D01*
G75*
G02*
X161048000Y-105491262I0J271738D01*
G01*
X161048000Y-104784738D01*
G75*
G02*
X161319738Y-104513000I271738J0D01*
G01*
G37*
%TD*%
%TO.C,R49*%
G36*
G01*
X157880000Y-82266262D02*
X157880000Y-81309738D01*
G75*
G02*
X158151738Y-81038000I271738J0D01*
G01*
X158858262Y-81038000D01*
G75*
G02*
X159130000Y-81309738I0J-271738D01*
G01*
X159130000Y-82266262D01*
G75*
G02*
X158858262Y-82538000I-271738J0D01*
G01*
X158151738Y-82538000D01*
G75*
G02*
X157880000Y-82266262I0J271738D01*
G01*
G37*
G36*
G01*
X155830000Y-82266262D02*
X155830000Y-81309738D01*
G75*
G02*
X156101738Y-81038000I271738J0D01*
G01*
X156808262Y-81038000D01*
G75*
G02*
X157080000Y-81309738I0J-271738D01*
G01*
X157080000Y-82266262D01*
G75*
G02*
X156808262Y-82538000I-271738J0D01*
G01*
X156101738Y-82538000D01*
G75*
G02*
X155830000Y-82266262I0J271738D01*
G01*
G37*
%TD*%
D40*
%TO.C,*%
X186436000Y-101092000D03*
%TD*%
D26*
%TO.C,C1*%
X116332000Y-144152000D03*
X116332000Y-136652000D03*
%TD*%
%TO.C,C2*%
X76835000Y-133096000D03*
X76835000Y-140596000D03*
%TD*%
%TO.C,C5*%
X139446000Y-127628000D03*
D27*
X139446000Y-135128000D03*
%TD*%
D26*
%TO.C,C10*%
X93980000Y-102235000D03*
X101480000Y-102235000D03*
%TD*%
%TO.C,C11*%
G36*
G01*
X107158262Y-87620000D02*
X106201738Y-87620000D01*
G75*
G02*
X105930000Y-87348262I0J271738D01*
G01*
X105930000Y-86641738D01*
G75*
G02*
X106201738Y-86370000I271738J0D01*
G01*
X107158262Y-86370000D01*
G75*
G02*
X107430000Y-86641738I0J-271738D01*
G01*
X107430000Y-87348262D01*
G75*
G02*
X107158262Y-87620000I-271738J0D01*
G01*
G37*
G36*
G01*
X107158262Y-85570000D02*
X106201738Y-85570000D01*
G75*
G02*
X105930000Y-85298262I0J271738D01*
G01*
X105930000Y-84591738D01*
G75*
G02*
X106201738Y-84320000I271738J0D01*
G01*
X107158262Y-84320000D01*
G75*
G02*
X107430000Y-84591738I0J-271738D01*
G01*
X107430000Y-85298262D01*
G75*
G02*
X107158262Y-85570000I-271738J0D01*
G01*
G37*
%TD*%
%TO.C,C13*%
X72390000Y-93465000D03*
X72390000Y-100965000D03*
%TD*%
%TO.C,C14*%
G36*
G01*
X127791738Y-95632000D02*
X128748262Y-95632000D01*
G75*
G02*
X129020000Y-95903738I0J-271738D01*
G01*
X129020000Y-96610262D01*
G75*
G02*
X128748262Y-96882000I-271738J0D01*
G01*
X127791738Y-96882000D01*
G75*
G02*
X127520000Y-96610262I0J271738D01*
G01*
X127520000Y-95903738D01*
G75*
G02*
X127791738Y-95632000I271738J0D01*
G01*
G37*
G36*
G01*
X127791738Y-97682000D02*
X128748262Y-97682000D01*
G75*
G02*
X129020000Y-97953738I0J-271738D01*
G01*
X129020000Y-98660262D01*
G75*
G02*
X128748262Y-98932000I-271738J0D01*
G01*
X127791738Y-98932000D01*
G75*
G02*
X127520000Y-98660262I0J271738D01*
G01*
X127520000Y-97953738D01*
G75*
G02*
X127791738Y-97682000I271738J0D01*
G01*
G37*
%TD*%
%TO.C,C17*%
G36*
G01*
X43912262Y-92310000D02*
X42955738Y-92310000D01*
G75*
G02*
X42684000Y-92038262I0J271738D01*
G01*
X42684000Y-91331738D01*
G75*
G02*
X42955738Y-91060000I271738J0D01*
G01*
X43912262Y-91060000D01*
G75*
G02*
X44184000Y-91331738I0J-271738D01*
G01*
X44184000Y-92038262D01*
G75*
G02*
X43912262Y-92310000I-271738J0D01*
G01*
G37*
G36*
G01*
X43912262Y-94360000D02*
X42955738Y-94360000D01*
G75*
G02*
X42684000Y-94088262I0J271738D01*
G01*
X42684000Y-93381738D01*
G75*
G02*
X42955738Y-93110000I271738J0D01*
G01*
X43912262Y-93110000D01*
G75*
G02*
X44184000Y-93381738I0J-271738D01*
G01*
X44184000Y-94088262D01*
G75*
G02*
X43912262Y-94360000I-271738J0D01*
G01*
G37*
%TD*%
D24*
%TO.C,D5*%
X86868000Y-79248000D03*
D25*
X86868000Y-86868000D03*
%TD*%
%TO.C,D11*%
X80010000Y-100965000D03*
D24*
X87630000Y-100965000D03*
%TD*%
%TO.C,J3*%
G36*
G01*
X165385000Y-82304367D02*
X165385000Y-84065633D01*
G75*
G02*
X165120633Y-84330000I-264367J0D01*
G01*
X163809367Y-84330000D01*
G75*
G02*
X163545000Y-84065633I0J264367D01*
G01*
X163545000Y-82304367D01*
G75*
G02*
X163809367Y-82040000I264367J0D01*
G01*
X165120633Y-82040000D01*
G75*
G02*
X165385000Y-82304367I0J-264367D01*
G01*
G37*
D41*
X161925000Y-83185000D03*
%TD*%
D42*
%TO.C,Q3*%
X163830000Y-114554000D03*
X165100000Y-113284000D03*
D43*
X166370000Y-114554000D03*
%TD*%
D44*
%TO.C,Q4*%
X113284000Y-109855000D03*
D45*
X113284000Y-107315000D03*
X113284000Y-104775000D03*
%TD*%
D46*
%TO.C,Q5*%
X153924000Y-122174000D03*
D42*
X155194000Y-120904000D03*
X153924000Y-119634000D03*
%TD*%
D14*
%TO.C,R3*%
X128905000Y-144145000D03*
D16*
X128905000Y-128905000D03*
%TD*%
D29*
%TO.C,R6*%
X123190000Y-133350000D03*
D30*
X123190000Y-146050000D03*
%TD*%
D15*
%TO.C,U1*%
X93980000Y-86868000D03*
D16*
X101600000Y-89408000D03*
X93980000Y-89408000D03*
X101600000Y-86868000D03*
%TD*%
D15*
%TO.C,U2*%
X138938000Y-99568000D03*
D16*
X131318000Y-107188000D03*
X136398000Y-99568000D03*
X133858000Y-107188000D03*
X133858000Y-99568000D03*
X136398000Y-107188000D03*
X131318000Y-99568000D03*
X138938000Y-107188000D03*
%TD*%
D47*
%TO.C,U3*%
X78740000Y-83820000D03*
X80010000Y-82550000D03*
D48*
X80010000Y-85090000D03*
%TD*%
D36*
%TO.C,U4*%
X61468000Y-82804000D03*
D35*
X58928000Y-82804000D03*
X56388000Y-82804000D03*
%TD*%
D16*
%TO.C,U5*%
X163068000Y-91186000D03*
X155448000Y-98806000D03*
X163068000Y-93726000D03*
X155448000Y-96266000D03*
X163068000Y-96266000D03*
X155448000Y-93726000D03*
X163068000Y-98806000D03*
D15*
X155448000Y-91186000D03*
%TD*%
D49*
G36*
X130925910Y-112310874D02*
G01*
X130456373Y-114658559D01*
X129348613Y-114437007D01*
X121247803Y-106336197D01*
X121228557Y-106320403D01*
X121206601Y-106308667D01*
X121182776Y-106301440D01*
X121163287Y-106299110D01*
X115088996Y-106046015D01*
X113930177Y-105582487D01*
X114162091Y-103727173D01*
X114828610Y-103505000D01*
X121868440Y-103505000D01*
X130925910Y-112310874D01*
G37*
X130925910Y-112310874D02*
X130456373Y-114658559D01*
X129348613Y-114437007D01*
X121247803Y-106336197D01*
X121228557Y-106320403D01*
X121206601Y-106308667D01*
X121182776Y-106301440D01*
X121163287Y-106299110D01*
X115088996Y-106046015D01*
X113930177Y-105582487D01*
X114162091Y-103727173D01*
X114828610Y-103505000D01*
X121868440Y-103505000D01*
X130925910Y-112310874D01*
G36*
X148717000Y-129159000D02*
G01*
X147193000Y-129159000D01*
X147193000Y-119888000D01*
X147190560Y-119863224D01*
X147183333Y-119839399D01*
X147171597Y-119817443D01*
X147155803Y-119798197D01*
X147136557Y-119782403D01*
X147114601Y-119770667D01*
X147090776Y-119763440D01*
X147066000Y-119761000D01*
X145161000Y-119761000D01*
X145161000Y-111379000D01*
X148717000Y-111379000D01*
X148717000Y-129159000D01*
G37*
X148717000Y-129159000D02*
X147193000Y-129159000D01*
X147193000Y-119888000D01*
X147190560Y-119863224D01*
X147183333Y-119839399D01*
X147171597Y-119817443D01*
X147155803Y-119798197D01*
X147136557Y-119782403D01*
X147114601Y-119770667D01*
X147090776Y-119763440D01*
X147066000Y-119761000D01*
X145161000Y-119761000D01*
X145161000Y-111379000D01*
X148717000Y-111379000D01*
X148717000Y-129159000D01*
G36*
X110941204Y-106793592D02*
G01*
X110967198Y-106803208D01*
X111887000Y-107033159D01*
X111887000Y-107569000D01*
X111252000Y-107569000D01*
X111227224Y-107571440D01*
X111203399Y-107578667D01*
X111181443Y-107590403D01*
X111154436Y-107614697D01*
X109884436Y-109138697D01*
X109870449Y-109159293D01*
X109860749Y-109182222D01*
X109855709Y-109206602D01*
X109855000Y-109220000D01*
X109855000Y-122639667D01*
X109156500Y-123571000D01*
X108028490Y-123571000D01*
X107569000Y-122652020D01*
X107569000Y-108250981D01*
X109036079Y-106539389D01*
X109967225Y-106306602D01*
X110941204Y-106793592D01*
G37*
X110941204Y-106793592D02*
X110967198Y-106803208D01*
X111887000Y-107033159D01*
X111887000Y-107569000D01*
X111252000Y-107569000D01*
X111227224Y-107571440D01*
X111203399Y-107578667D01*
X111181443Y-107590403D01*
X111154436Y-107614697D01*
X109884436Y-109138697D01*
X109870449Y-109159293D01*
X109860749Y-109182222D01*
X109855709Y-109206602D01*
X109855000Y-109220000D01*
X109855000Y-122639667D01*
X109156500Y-123571000D01*
X108028490Y-123571000D01*
X107569000Y-122652020D01*
X107569000Y-108250981D01*
X109036079Y-106539389D01*
X109967225Y-106306602D01*
X110941204Y-106793592D01*
G36*
X99568000Y-152273000D02*
G01*
X96012000Y-152273000D01*
X96012000Y-77597000D01*
X99568000Y-77597000D01*
X99568000Y-152273000D01*
G37*
X99568000Y-152273000D02*
X96012000Y-152273000D01*
X96012000Y-77597000D01*
X99568000Y-77597000D01*
X99568000Y-152273000D01*
G36*
X53848000Y-117348000D02*
G01*
X51562000Y-117348000D01*
X51562000Y-96647000D01*
X53848000Y-96647000D01*
X53848000Y-117348000D01*
G37*
X53848000Y-117348000D02*
X51562000Y-117348000D01*
X51562000Y-96647000D01*
X53848000Y-96647000D01*
X53848000Y-117348000D01*
M02*
