M48
; DRILL file {KiCad (5.1.6)-1} date 01/03/21 20:38:19
; FORMAT={-:-/ absolute / inch / decimal}
; #@! TF.CreationDate,2021-01-03T20:38:19+05:30
; #@! TF.GenerationSoftware,Kicad,Pcbnew,(5.1.6)-1
; #@! TF.FileFunction,Plated,1,2,PTH
FMAT,2
INCH
T1C0.0157
T2C0.0236
T3C0.0276
T4C0.0295
T5C0.0315
T6C0.0354
T7C0.0394
T8C0.0433
T9C0.0469
T10C0.0472
T11C0.0598
T12C0.0630
T13C0.0709
T14C0.1378
%
G90
G05
T1
X5.93Y-4.95
T2
X5.66Y-4.84
X5.66Y-4.9187
T3
X6.16Y-4.01
X6.46Y-4.01
X2.275Y-3.9
X2.575Y-3.9
X6.28Y-4.21
X6.58Y-4.21
X6.06Y-4.71
X6.06Y-4.81
X6.11Y-4.76
X6.45Y-4.51
X6.5Y-4.46
X6.55Y-4.51
X1.925Y-4.225
X2.225Y-4.225
X2.275Y-4.0
X2.575Y-4.0
T4
X6.13Y-3.48
X6.43Y-3.48
X5.47Y-4.64
X5.77Y-4.64
X6.54Y-3.47
X6.54Y-3.77
X3.42Y-3.12
X3.42Y-3.42
X6.18Y-4.11
X6.48Y-4.11
X1.6Y-3.775
X1.6Y-3.8537
X1.6Y-3.9325
X1.6Y-4.0112
X1.6Y-4.09
X1.6Y-4.1687
X3.15Y-3.975
X3.45Y-3.975
X5.23Y-3.61
X5.53Y-3.61
X5.01Y-4.64
X5.31Y-4.64
X3.1Y-3.3
X3.15Y-3.25
X3.15Y-3.35
X6.03Y-4.25
X6.2421Y-4.4621
T5
X5.075Y-5.075
X5.075Y-5.675
X6.72Y-3.2231
X6.72Y-3.42
X5.91Y-3.8
X5.91Y-4.2
X1.91Y-3.9372
X1.91Y-4.075
X5.63Y-3.86
X5.63Y-4.26
X6.42Y-4.83
X6.82Y-4.83
X5.17Y-3.92
X5.17Y-4.22
X5.27Y-3.92
X5.27Y-4.22
X5.37Y-3.92
X5.37Y-4.22
X5.47Y-3.92
X5.47Y-4.22
X2.25Y-3.58
X2.3484Y-3.58
X4.67Y-4.0
X4.67Y-4.4
X4.45Y-3.48
X4.45Y-3.88
X6.27Y-4.32
X6.87Y-4.32
X1.99Y-3.24
X1.99Y-3.64
X7.0Y-4.11
X7.0Y-4.51
X6.42Y-4.71
X6.82Y-4.71
X2.5Y-4.15
X2.5Y-4.2878
X3.05Y-4.1
X3.05Y-4.6
X3.075Y-3.825
X3.475Y-3.825
X6.12Y-3.59
X6.12Y-3.69
X6.12Y-3.79
X6.12Y-3.89
X6.42Y-3.59
X6.42Y-3.69
X6.42Y-3.79
X6.42Y-3.89
X4.82Y-3.7
X4.82Y-3.7984
X2.9Y-3.15
X2.9Y-3.55
X5.96Y-3.3
X5.96Y-3.7
X3.7Y-3.42
X3.7Y-3.52
X4.0Y-3.42
X4.0Y-3.52
X6.73Y-3.64
X6.73Y-4.04
X5.2Y-3.73
X5.6Y-3.73
X3.56Y-3.12
X3.56Y-3.52
T6
X1.95Y-4.56
X2.05Y-4.56
X1.82Y-3.42
X1.82Y-3.52
T7
X5.49Y-5.0247
X5.49Y-5.32
X7.1835Y-4.5913
X7.21Y-4.67
X7.4069Y-4.67
X7.4333Y-4.7487
X2.7Y-3.1547
X2.7Y-3.45
X3.025Y-5.24
X3.025Y-5.5353
X3.7Y-4.025
X3.9953Y-4.025
X2.85Y-3.6797
X2.85Y-3.975
X4.58Y-5.38
X4.58Y-5.6753
T8
X4.46Y-4.125
X4.46Y-4.225
X4.46Y-4.325
X2.26Y-5.48
X2.36Y-5.38
X2.46Y-5.48
X6.96Y-4.83
X6.96Y-5.23
X7.2Y-4.24
X7.2669Y-4.0943
X7.3339Y-4.24
X7.4008Y-4.0943
X7.4677Y-4.24
X4.125Y-3.625
X4.125Y-4.025
X2.22Y-3.26
X2.32Y-3.26
X2.42Y-3.26
X6.22Y-5.44
X6.32Y-5.34
X6.42Y-5.44
X7.2972Y-3.7628
X7.58Y-3.48
X4.45Y-4.61
X4.45Y-5.01
T9
X6.375Y-3.275
X6.475Y-3.275
T10
X7.14Y-3.3563
X7.14Y-3.75
X2.175Y-5.075
X2.775Y-5.075
X1.74Y-5.16
X1.9488Y-4.9512
X4.85Y-5.25
X4.85Y-5.75
X5.17Y-4.46
X5.77Y-4.46
X1.53Y-4.61
X1.8084Y-4.3316
T11
X7.22Y-5.02
X7.22Y-5.22
X7.22Y-5.42
T12
X2.8Y-4.175
X2.8Y-4.775
T13
X3.325Y-4.27
X3.325Y-4.45
X3.325Y-4.63
X3.325Y-4.81
X3.325Y-4.99
X3.325Y-5.17
X3.325Y-5.35
X4.12Y-4.27
X4.12Y-4.45
X4.12Y-4.62
X4.12Y-4.81
X4.12Y-4.99
X4.12Y-5.17
X4.12Y-5.35
T14
X7.4675Y-5.827
T0
M30
