%TF.GenerationSoftware,KiCad,Pcbnew,(5.1.6)-1*%
%TF.CreationDate,2021-01-03T20:38:08+05:30*%
%TF.ProjectId,supplyboard,73757070-6c79-4626-9f61-72642e6b6963,rev?*%
%TF.SameCoordinates,Original*%
%TF.FileFunction,Legend,Bot*%
%TF.FilePolarity,Positive*%
%FSLAX46Y46*%
G04 Gerber Fmt 4.6, Leading zero omitted, Abs format (unit mm)*
G04 Created by KiCad (PCBNEW (5.1.6)-1) date 2021-01-03 20:38:08*
%MOMM*%
%LPD*%
G01*
G04 APERTURE LIST*
%ADD10C,0.120000*%
%ADD11C,0.150000*%
G04 APERTURE END LIST*
D10*
%TO.C,R35*%
X158249252Y-84126000D02*
X157726748Y-84126000D01*
X158249252Y-85546000D02*
X157726748Y-85546000D01*
%TO.C,C9*%
X139701748Y-113590000D02*
X140224252Y-113590000D01*
X139701748Y-115010000D02*
X140224252Y-115010000D01*
%TO.C,R10*%
X130563252Y-117146000D02*
X130040748Y-117146000D01*
X130563252Y-118566000D02*
X130040748Y-118566000D01*
%TO.C,C7*%
X139362922Y-112724000D02*
X139880078Y-112724000D01*
X139362922Y-111304000D02*
X139880078Y-111304000D01*
%TO.C,R1*%
X128980000Y-92971252D02*
X128980000Y-92448748D01*
X127560000Y-92971252D02*
X127560000Y-92448748D01*
%TO.C,C15*%
X137108000Y-95248252D02*
X137108000Y-94725748D01*
X135688000Y-95248252D02*
X135688000Y-94725748D01*
%TO.C,C6*%
X44375000Y-102608748D02*
X44375000Y-103131252D01*
X45795000Y-102608748D02*
X45795000Y-103131252D01*
%TO.C,R7*%
X103243748Y-83895000D02*
X103766252Y-83895000D01*
X103243748Y-82475000D02*
X103766252Y-82475000D01*
%TO.C,R8*%
X48566000Y-112021252D02*
X48566000Y-111498748D01*
X49986000Y-112021252D02*
X49986000Y-111498748D01*
%TO.C,R15*%
X119582000Y-107957252D02*
X119582000Y-107434748D01*
X118162000Y-107957252D02*
X118162000Y-107434748D01*
%TO.C,R11*%
X164838748Y-110692000D02*
X165361252Y-110692000D01*
X164838748Y-109272000D02*
X165361252Y-109272000D01*
%TO.C,R13*%
X57075000Y-103878748D02*
X57075000Y-104401252D01*
X58495000Y-103878748D02*
X58495000Y-104401252D01*
%TO.C,R32*%
X155440748Y-111200000D02*
X155963252Y-111200000D01*
X155440748Y-109780000D02*
X155963252Y-109780000D01*
%TO.C,R33*%
X152452000Y-99560748D02*
X152452000Y-100083252D01*
X153872000Y-99560748D02*
X153872000Y-100083252D01*
%TO.C,R37*%
X166362748Y-100024000D02*
X166885252Y-100024000D01*
X166362748Y-98604000D02*
X166885252Y-98604000D01*
%TO.C,R38*%
X171502000Y-108967748D02*
X171502000Y-109490252D01*
X172922000Y-108967748D02*
X172922000Y-109490252D01*
%TO.C,R39*%
X168394748Y-105612000D02*
X168917252Y-105612000D01*
X168394748Y-104192000D02*
X168917252Y-104192000D01*
%TO.C,R40*%
X159056000Y-122420748D02*
X159056000Y-122943252D01*
X160476000Y-122420748D02*
X160476000Y-122943252D01*
%TO.C,R41*%
X177798252Y-110288000D02*
X177275748Y-110288000D01*
X177798252Y-111708000D02*
X177275748Y-111708000D01*
%TO.C,R44*%
X149300000Y-90685252D02*
X149300000Y-90162748D01*
X147880000Y-90685252D02*
X147880000Y-90162748D01*
%TO.C,R48*%
X161088000Y-105901748D02*
X161088000Y-106424252D01*
X162508000Y-105901748D02*
X162508000Y-106424252D01*
%TO.C,R49*%
X157218748Y-82498000D02*
X157741252Y-82498000D01*
X157218748Y-81078000D02*
X157741252Y-81078000D01*
%TO.C,C11*%
X107390000Y-86231252D02*
X107390000Y-85708748D01*
X105970000Y-86231252D02*
X105970000Y-85708748D01*
%TO.C,C14*%
X127560000Y-97020748D02*
X127560000Y-97543252D01*
X128980000Y-97020748D02*
X128980000Y-97543252D01*
%TO.C,C17*%
X42724000Y-92971252D02*
X42724000Y-92448748D01*
X44144000Y-92971252D02*
X44144000Y-92448748D01*
%TO.C,R35*%
D11*
X154947857Y-82367380D02*
X155281190Y-81891190D01*
X155519285Y-82367380D02*
X155519285Y-81367380D01*
X155138333Y-81367380D01*
X155043095Y-81415000D01*
X154995476Y-81462619D01*
X154947857Y-81557857D01*
X154947857Y-81700714D01*
X154995476Y-81795952D01*
X155043095Y-81843571D01*
X155138333Y-81891190D01*
X155519285Y-81891190D01*
X154614523Y-81367380D02*
X153995476Y-81367380D01*
X154328809Y-81748333D01*
X154185952Y-81748333D01*
X154090714Y-81795952D01*
X154043095Y-81843571D01*
X153995476Y-81938809D01*
X153995476Y-82176904D01*
X154043095Y-82272142D01*
X154090714Y-82319761D01*
X154185952Y-82367380D01*
X154471666Y-82367380D01*
X154566904Y-82319761D01*
X154614523Y-82272142D01*
X153090714Y-81367380D02*
X153566904Y-81367380D01*
X153614523Y-81843571D01*
X153566904Y-81795952D01*
X153471666Y-81748333D01*
X153233571Y-81748333D01*
X153138333Y-81795952D01*
X153090714Y-81843571D01*
X153043095Y-81938809D01*
X153043095Y-82176904D01*
X153090714Y-82272142D01*
X153138333Y-82319761D01*
X153233571Y-82367380D01*
X153471666Y-82367380D01*
X153566904Y-82319761D01*
X153614523Y-82272142D01*
%TO.C,C9*%
X137326666Y-114657142D02*
X137374285Y-114704761D01*
X137517142Y-114752380D01*
X137612380Y-114752380D01*
X137755238Y-114704761D01*
X137850476Y-114609523D01*
X137898095Y-114514285D01*
X137945714Y-114323809D01*
X137945714Y-114180952D01*
X137898095Y-113990476D01*
X137850476Y-113895238D01*
X137755238Y-113800000D01*
X137612380Y-113752380D01*
X137517142Y-113752380D01*
X137374285Y-113800000D01*
X137326666Y-113847619D01*
X136850476Y-114752380D02*
X136660000Y-114752380D01*
X136564761Y-114704761D01*
X136517142Y-114657142D01*
X136421904Y-114514285D01*
X136374285Y-114323809D01*
X136374285Y-113942857D01*
X136421904Y-113847619D01*
X136469523Y-113800000D01*
X136564761Y-113752380D01*
X136755238Y-113752380D01*
X136850476Y-113800000D01*
X136898095Y-113847619D01*
X136945714Y-113942857D01*
X136945714Y-114180952D01*
X136898095Y-114276190D01*
X136850476Y-114323809D01*
X136755238Y-114371428D01*
X136564761Y-114371428D01*
X136469523Y-114323809D01*
X136421904Y-114276190D01*
X136374285Y-114180952D01*
%TO.C,R10*%
X130944857Y-116658380D02*
X131278190Y-116182190D01*
X131516285Y-116658380D02*
X131516285Y-115658380D01*
X131135333Y-115658380D01*
X131040095Y-115706000D01*
X130992476Y-115753619D01*
X130944857Y-115848857D01*
X130944857Y-115991714D01*
X130992476Y-116086952D01*
X131040095Y-116134571D01*
X131135333Y-116182190D01*
X131516285Y-116182190D01*
X129992476Y-116658380D02*
X130563904Y-116658380D01*
X130278190Y-116658380D02*
X130278190Y-115658380D01*
X130373428Y-115801238D01*
X130468666Y-115896476D01*
X130563904Y-115944095D01*
X129373428Y-115658380D02*
X129278190Y-115658380D01*
X129182952Y-115706000D01*
X129135333Y-115753619D01*
X129087714Y-115848857D01*
X129040095Y-116039333D01*
X129040095Y-116277428D01*
X129087714Y-116467904D01*
X129135333Y-116563142D01*
X129182952Y-116610761D01*
X129278190Y-116658380D01*
X129373428Y-116658380D01*
X129468666Y-116610761D01*
X129516285Y-116563142D01*
X129563904Y-116467904D01*
X129611523Y-116277428D01*
X129611523Y-116039333D01*
X129563904Y-115848857D01*
X129516285Y-115753619D01*
X129468666Y-115706000D01*
X129373428Y-115658380D01*
%TO.C,C7*%
X137326666Y-112117142D02*
X137374285Y-112164761D01*
X137517142Y-112212380D01*
X137612380Y-112212380D01*
X137755238Y-112164761D01*
X137850476Y-112069523D01*
X137898095Y-111974285D01*
X137945714Y-111783809D01*
X137945714Y-111640952D01*
X137898095Y-111450476D01*
X137850476Y-111355238D01*
X137755238Y-111260000D01*
X137612380Y-111212380D01*
X137517142Y-111212380D01*
X137374285Y-111260000D01*
X137326666Y-111307619D01*
X136993333Y-111212380D02*
X136326666Y-111212380D01*
X136755238Y-112212380D01*
%TO.C,R1*%
X126182380Y-88098333D02*
X125706190Y-87765000D01*
X126182380Y-87526904D02*
X125182380Y-87526904D01*
X125182380Y-87907857D01*
X125230000Y-88003095D01*
X125277619Y-88050714D01*
X125372857Y-88098333D01*
X125515714Y-88098333D01*
X125610952Y-88050714D01*
X125658571Y-88003095D01*
X125706190Y-87907857D01*
X125706190Y-87526904D01*
X126182380Y-89050714D02*
X126182380Y-88479285D01*
X126182380Y-88765000D02*
X125182380Y-88765000D01*
X125325238Y-88669761D01*
X125420476Y-88574523D01*
X125468095Y-88479285D01*
%TO.C,C15*%
X143005142Y-90594142D02*
X143052761Y-90546523D01*
X143100380Y-90403666D01*
X143100380Y-90308428D01*
X143052761Y-90165571D01*
X142957523Y-90070333D01*
X142862285Y-90022714D01*
X142671809Y-89975095D01*
X142528952Y-89975095D01*
X142338476Y-90022714D01*
X142243238Y-90070333D01*
X142148000Y-90165571D01*
X142100380Y-90308428D01*
X142100380Y-90403666D01*
X142148000Y-90546523D01*
X142195619Y-90594142D01*
X143100380Y-91546523D02*
X143100380Y-90975095D01*
X143100380Y-91260809D02*
X142100380Y-91260809D01*
X142243238Y-91165571D01*
X142338476Y-91070333D01*
X142386095Y-90975095D01*
X142100380Y-92451285D02*
X142100380Y-91975095D01*
X142576571Y-91927476D01*
X142528952Y-91975095D01*
X142481333Y-92070333D01*
X142481333Y-92308428D01*
X142528952Y-92403666D01*
X142576571Y-92451285D01*
X142671809Y-92498904D01*
X142909904Y-92498904D01*
X143005142Y-92451285D01*
X143052761Y-92403666D01*
X143100380Y-92308428D01*
X143100380Y-92070333D01*
X143052761Y-91975095D01*
X143005142Y-91927476D01*
%TO.C,C6*%
X43792142Y-102703333D02*
X43839761Y-102655714D01*
X43887380Y-102512857D01*
X43887380Y-102417619D01*
X43839761Y-102274761D01*
X43744523Y-102179523D01*
X43649285Y-102131904D01*
X43458809Y-102084285D01*
X43315952Y-102084285D01*
X43125476Y-102131904D01*
X43030238Y-102179523D01*
X42935000Y-102274761D01*
X42887380Y-102417619D01*
X42887380Y-102512857D01*
X42935000Y-102655714D01*
X42982619Y-102703333D01*
X42887380Y-103560476D02*
X42887380Y-103370000D01*
X42935000Y-103274761D01*
X42982619Y-103227142D01*
X43125476Y-103131904D01*
X43315952Y-103084285D01*
X43696904Y-103084285D01*
X43792142Y-103131904D01*
X43839761Y-103179523D01*
X43887380Y-103274761D01*
X43887380Y-103465238D01*
X43839761Y-103560476D01*
X43792142Y-103608095D01*
X43696904Y-103655714D01*
X43458809Y-103655714D01*
X43363571Y-103608095D01*
X43315952Y-103560476D01*
X43268333Y-103465238D01*
X43268333Y-103274761D01*
X43315952Y-103179523D01*
X43363571Y-103131904D01*
X43458809Y-103084285D01*
%TO.C,R7*%
X103671666Y-85542380D02*
X104005000Y-85066190D01*
X104243095Y-85542380D02*
X104243095Y-84542380D01*
X103862142Y-84542380D01*
X103766904Y-84590000D01*
X103719285Y-84637619D01*
X103671666Y-84732857D01*
X103671666Y-84875714D01*
X103719285Y-84970952D01*
X103766904Y-85018571D01*
X103862142Y-85066190D01*
X104243095Y-85066190D01*
X103338333Y-84542380D02*
X102671666Y-84542380D01*
X103100238Y-85542380D01*
%TO.C,R8*%
X51506380Y-111602333D02*
X51030190Y-111269000D01*
X51506380Y-111030904D02*
X50506380Y-111030904D01*
X50506380Y-111411857D01*
X50554000Y-111507095D01*
X50601619Y-111554714D01*
X50696857Y-111602333D01*
X50839714Y-111602333D01*
X50934952Y-111554714D01*
X50982571Y-111507095D01*
X51030190Y-111411857D01*
X51030190Y-111030904D01*
X50934952Y-112173761D02*
X50887333Y-112078523D01*
X50839714Y-112030904D01*
X50744476Y-111983285D01*
X50696857Y-111983285D01*
X50601619Y-112030904D01*
X50554000Y-112078523D01*
X50506380Y-112173761D01*
X50506380Y-112364238D01*
X50554000Y-112459476D01*
X50601619Y-112507095D01*
X50696857Y-112554714D01*
X50744476Y-112554714D01*
X50839714Y-112507095D01*
X50887333Y-112459476D01*
X50934952Y-112364238D01*
X50934952Y-112173761D01*
X50982571Y-112078523D01*
X51030190Y-112030904D01*
X51125428Y-111983285D01*
X51315904Y-111983285D01*
X51411142Y-112030904D01*
X51458761Y-112078523D01*
X51506380Y-112173761D01*
X51506380Y-112364238D01*
X51458761Y-112459476D01*
X51411142Y-112507095D01*
X51315904Y-112554714D01*
X51125428Y-112554714D01*
X51030190Y-112507095D01*
X50982571Y-112459476D01*
X50934952Y-112364238D01*
%TO.C,R15*%
X117419380Y-107443142D02*
X116943190Y-107109809D01*
X117419380Y-106871714D02*
X116419380Y-106871714D01*
X116419380Y-107252666D01*
X116467000Y-107347904D01*
X116514619Y-107395523D01*
X116609857Y-107443142D01*
X116752714Y-107443142D01*
X116847952Y-107395523D01*
X116895571Y-107347904D01*
X116943190Y-107252666D01*
X116943190Y-106871714D01*
X117419380Y-108395523D02*
X117419380Y-107824095D01*
X117419380Y-108109809D02*
X116419380Y-108109809D01*
X116562238Y-108014571D01*
X116657476Y-107919333D01*
X116705095Y-107824095D01*
X116419380Y-109300285D02*
X116419380Y-108824095D01*
X116895571Y-108776476D01*
X116847952Y-108824095D01*
X116800333Y-108919333D01*
X116800333Y-109157428D01*
X116847952Y-109252666D01*
X116895571Y-109300285D01*
X116990809Y-109347904D01*
X117228904Y-109347904D01*
X117324142Y-109300285D01*
X117371761Y-109252666D01*
X117419380Y-109157428D01*
X117419380Y-108919333D01*
X117371761Y-108824095D01*
X117324142Y-108776476D01*
%TO.C,R11*%
X165742857Y-112084380D02*
X166076190Y-111608190D01*
X166314285Y-112084380D02*
X166314285Y-111084380D01*
X165933333Y-111084380D01*
X165838095Y-111132000D01*
X165790476Y-111179619D01*
X165742857Y-111274857D01*
X165742857Y-111417714D01*
X165790476Y-111512952D01*
X165838095Y-111560571D01*
X165933333Y-111608190D01*
X166314285Y-111608190D01*
X164790476Y-112084380D02*
X165361904Y-112084380D01*
X165076190Y-112084380D02*
X165076190Y-111084380D01*
X165171428Y-111227238D01*
X165266666Y-111322476D01*
X165361904Y-111370095D01*
X163838095Y-112084380D02*
X164409523Y-112084380D01*
X164123809Y-112084380D02*
X164123809Y-111084380D01*
X164219047Y-111227238D01*
X164314285Y-111322476D01*
X164409523Y-111370095D01*
%TO.C,R13*%
X56587380Y-103497142D02*
X56111190Y-103163809D01*
X56587380Y-102925714D02*
X55587380Y-102925714D01*
X55587380Y-103306666D01*
X55635000Y-103401904D01*
X55682619Y-103449523D01*
X55777857Y-103497142D01*
X55920714Y-103497142D01*
X56015952Y-103449523D01*
X56063571Y-103401904D01*
X56111190Y-103306666D01*
X56111190Y-102925714D01*
X56587380Y-104449523D02*
X56587380Y-103878095D01*
X56587380Y-104163809D02*
X55587380Y-104163809D01*
X55730238Y-104068571D01*
X55825476Y-103973333D01*
X55873095Y-103878095D01*
X55587380Y-104782857D02*
X55587380Y-105401904D01*
X55968333Y-105068571D01*
X55968333Y-105211428D01*
X56015952Y-105306666D01*
X56063571Y-105354285D01*
X56158809Y-105401904D01*
X56396904Y-105401904D01*
X56492142Y-105354285D01*
X56539761Y-105306666D01*
X56587380Y-105211428D01*
X56587380Y-104925714D01*
X56539761Y-104830476D01*
X56492142Y-104782857D01*
%TO.C,R32*%
X156344857Y-112592380D02*
X156678190Y-112116190D01*
X156916285Y-112592380D02*
X156916285Y-111592380D01*
X156535333Y-111592380D01*
X156440095Y-111640000D01*
X156392476Y-111687619D01*
X156344857Y-111782857D01*
X156344857Y-111925714D01*
X156392476Y-112020952D01*
X156440095Y-112068571D01*
X156535333Y-112116190D01*
X156916285Y-112116190D01*
X156011523Y-111592380D02*
X155392476Y-111592380D01*
X155725809Y-111973333D01*
X155582952Y-111973333D01*
X155487714Y-112020952D01*
X155440095Y-112068571D01*
X155392476Y-112163809D01*
X155392476Y-112401904D01*
X155440095Y-112497142D01*
X155487714Y-112544761D01*
X155582952Y-112592380D01*
X155868666Y-112592380D01*
X155963904Y-112544761D01*
X156011523Y-112497142D01*
X155011523Y-111687619D02*
X154963904Y-111640000D01*
X154868666Y-111592380D01*
X154630571Y-111592380D01*
X154535333Y-111640000D01*
X154487714Y-111687619D01*
X154440095Y-111782857D01*
X154440095Y-111878095D01*
X154487714Y-112020952D01*
X155059142Y-112592380D01*
X154440095Y-112592380D01*
%TO.C,R33*%
X151964380Y-99179142D02*
X151488190Y-98845809D01*
X151964380Y-98607714D02*
X150964380Y-98607714D01*
X150964380Y-98988666D01*
X151012000Y-99083904D01*
X151059619Y-99131523D01*
X151154857Y-99179142D01*
X151297714Y-99179142D01*
X151392952Y-99131523D01*
X151440571Y-99083904D01*
X151488190Y-98988666D01*
X151488190Y-98607714D01*
X150964380Y-99512476D02*
X150964380Y-100131523D01*
X151345333Y-99798190D01*
X151345333Y-99941047D01*
X151392952Y-100036285D01*
X151440571Y-100083904D01*
X151535809Y-100131523D01*
X151773904Y-100131523D01*
X151869142Y-100083904D01*
X151916761Y-100036285D01*
X151964380Y-99941047D01*
X151964380Y-99655333D01*
X151916761Y-99560095D01*
X151869142Y-99512476D01*
X150964380Y-100464857D02*
X150964380Y-101083904D01*
X151345333Y-100750571D01*
X151345333Y-100893428D01*
X151392952Y-100988666D01*
X151440571Y-101036285D01*
X151535809Y-101083904D01*
X151773904Y-101083904D01*
X151869142Y-101036285D01*
X151916761Y-100988666D01*
X151964380Y-100893428D01*
X151964380Y-100607714D01*
X151916761Y-100512476D01*
X151869142Y-100464857D01*
%TO.C,R37*%
X167266857Y-101416380D02*
X167600190Y-100940190D01*
X167838285Y-101416380D02*
X167838285Y-100416380D01*
X167457333Y-100416380D01*
X167362095Y-100464000D01*
X167314476Y-100511619D01*
X167266857Y-100606857D01*
X167266857Y-100749714D01*
X167314476Y-100844952D01*
X167362095Y-100892571D01*
X167457333Y-100940190D01*
X167838285Y-100940190D01*
X166933523Y-100416380D02*
X166314476Y-100416380D01*
X166647809Y-100797333D01*
X166504952Y-100797333D01*
X166409714Y-100844952D01*
X166362095Y-100892571D01*
X166314476Y-100987809D01*
X166314476Y-101225904D01*
X166362095Y-101321142D01*
X166409714Y-101368761D01*
X166504952Y-101416380D01*
X166790666Y-101416380D01*
X166885904Y-101368761D01*
X166933523Y-101321142D01*
X165981142Y-100416380D02*
X165314476Y-100416380D01*
X165743047Y-101416380D01*
%TO.C,R38*%
X171014380Y-108586142D02*
X170538190Y-108252809D01*
X171014380Y-108014714D02*
X170014380Y-108014714D01*
X170014380Y-108395666D01*
X170062000Y-108490904D01*
X170109619Y-108538523D01*
X170204857Y-108586142D01*
X170347714Y-108586142D01*
X170442952Y-108538523D01*
X170490571Y-108490904D01*
X170538190Y-108395666D01*
X170538190Y-108014714D01*
X170014380Y-108919476D02*
X170014380Y-109538523D01*
X170395333Y-109205190D01*
X170395333Y-109348047D01*
X170442952Y-109443285D01*
X170490571Y-109490904D01*
X170585809Y-109538523D01*
X170823904Y-109538523D01*
X170919142Y-109490904D01*
X170966761Y-109443285D01*
X171014380Y-109348047D01*
X171014380Y-109062333D01*
X170966761Y-108967095D01*
X170919142Y-108919476D01*
X170442952Y-110109952D02*
X170395333Y-110014714D01*
X170347714Y-109967095D01*
X170252476Y-109919476D01*
X170204857Y-109919476D01*
X170109619Y-109967095D01*
X170062000Y-110014714D01*
X170014380Y-110109952D01*
X170014380Y-110300428D01*
X170062000Y-110395666D01*
X170109619Y-110443285D01*
X170204857Y-110490904D01*
X170252476Y-110490904D01*
X170347714Y-110443285D01*
X170395333Y-110395666D01*
X170442952Y-110300428D01*
X170442952Y-110109952D01*
X170490571Y-110014714D01*
X170538190Y-109967095D01*
X170633428Y-109919476D01*
X170823904Y-109919476D01*
X170919142Y-109967095D01*
X170966761Y-110014714D01*
X171014380Y-110109952D01*
X171014380Y-110300428D01*
X170966761Y-110395666D01*
X170919142Y-110443285D01*
X170823904Y-110490904D01*
X170633428Y-110490904D01*
X170538190Y-110443285D01*
X170490571Y-110395666D01*
X170442952Y-110300428D01*
%TO.C,R39*%
X169298857Y-107004380D02*
X169632190Y-106528190D01*
X169870285Y-107004380D02*
X169870285Y-106004380D01*
X169489333Y-106004380D01*
X169394095Y-106052000D01*
X169346476Y-106099619D01*
X169298857Y-106194857D01*
X169298857Y-106337714D01*
X169346476Y-106432952D01*
X169394095Y-106480571D01*
X169489333Y-106528190D01*
X169870285Y-106528190D01*
X168965523Y-106004380D02*
X168346476Y-106004380D01*
X168679809Y-106385333D01*
X168536952Y-106385333D01*
X168441714Y-106432952D01*
X168394095Y-106480571D01*
X168346476Y-106575809D01*
X168346476Y-106813904D01*
X168394095Y-106909142D01*
X168441714Y-106956761D01*
X168536952Y-107004380D01*
X168822666Y-107004380D01*
X168917904Y-106956761D01*
X168965523Y-106909142D01*
X167870285Y-107004380D02*
X167679809Y-107004380D01*
X167584571Y-106956761D01*
X167536952Y-106909142D01*
X167441714Y-106766285D01*
X167394095Y-106575809D01*
X167394095Y-106194857D01*
X167441714Y-106099619D01*
X167489333Y-106052000D01*
X167584571Y-106004380D01*
X167775047Y-106004380D01*
X167870285Y-106052000D01*
X167917904Y-106099619D01*
X167965523Y-106194857D01*
X167965523Y-106432952D01*
X167917904Y-106528190D01*
X167870285Y-106575809D01*
X167775047Y-106623428D01*
X167584571Y-106623428D01*
X167489333Y-106575809D01*
X167441714Y-106528190D01*
X167394095Y-106432952D01*
%TO.C,R40*%
X158568380Y-122039142D02*
X158092190Y-121705809D01*
X158568380Y-121467714D02*
X157568380Y-121467714D01*
X157568380Y-121848666D01*
X157616000Y-121943904D01*
X157663619Y-121991523D01*
X157758857Y-122039142D01*
X157901714Y-122039142D01*
X157996952Y-121991523D01*
X158044571Y-121943904D01*
X158092190Y-121848666D01*
X158092190Y-121467714D01*
X157901714Y-122896285D02*
X158568380Y-122896285D01*
X157520761Y-122658190D02*
X158235047Y-122420095D01*
X158235047Y-123039142D01*
X157568380Y-123610571D02*
X157568380Y-123705809D01*
X157616000Y-123801047D01*
X157663619Y-123848666D01*
X157758857Y-123896285D01*
X157949333Y-123943904D01*
X158187428Y-123943904D01*
X158377904Y-123896285D01*
X158473142Y-123848666D01*
X158520761Y-123801047D01*
X158568380Y-123705809D01*
X158568380Y-123610571D01*
X158520761Y-123515333D01*
X158473142Y-123467714D01*
X158377904Y-123420095D01*
X158187428Y-123372476D01*
X157949333Y-123372476D01*
X157758857Y-123420095D01*
X157663619Y-123467714D01*
X157616000Y-123515333D01*
X157568380Y-123610571D01*
%TO.C,R41*%
X178179857Y-109800380D02*
X178513190Y-109324190D01*
X178751285Y-109800380D02*
X178751285Y-108800380D01*
X178370333Y-108800380D01*
X178275095Y-108848000D01*
X178227476Y-108895619D01*
X178179857Y-108990857D01*
X178179857Y-109133714D01*
X178227476Y-109228952D01*
X178275095Y-109276571D01*
X178370333Y-109324190D01*
X178751285Y-109324190D01*
X177322714Y-109133714D02*
X177322714Y-109800380D01*
X177560809Y-108752761D02*
X177798904Y-109467047D01*
X177179857Y-109467047D01*
X176275095Y-109800380D02*
X176846523Y-109800380D01*
X176560809Y-109800380D02*
X176560809Y-108800380D01*
X176656047Y-108943238D01*
X176751285Y-109038476D01*
X176846523Y-109086095D01*
%TO.C,R44*%
X150692380Y-89781142D02*
X150216190Y-89447809D01*
X150692380Y-89209714D02*
X149692380Y-89209714D01*
X149692380Y-89590666D01*
X149740000Y-89685904D01*
X149787619Y-89733523D01*
X149882857Y-89781142D01*
X150025714Y-89781142D01*
X150120952Y-89733523D01*
X150168571Y-89685904D01*
X150216190Y-89590666D01*
X150216190Y-89209714D01*
X150025714Y-90638285D02*
X150692380Y-90638285D01*
X149644761Y-90400190D02*
X150359047Y-90162095D01*
X150359047Y-90781142D01*
X150025714Y-91590666D02*
X150692380Y-91590666D01*
X149644761Y-91352571D02*
X150359047Y-91114476D01*
X150359047Y-91733523D01*
%TO.C,R48*%
X160600380Y-105520142D02*
X160124190Y-105186809D01*
X160600380Y-104948714D02*
X159600380Y-104948714D01*
X159600380Y-105329666D01*
X159648000Y-105424904D01*
X159695619Y-105472523D01*
X159790857Y-105520142D01*
X159933714Y-105520142D01*
X160028952Y-105472523D01*
X160076571Y-105424904D01*
X160124190Y-105329666D01*
X160124190Y-104948714D01*
X159933714Y-106377285D02*
X160600380Y-106377285D01*
X159552761Y-106139190D02*
X160267047Y-105901095D01*
X160267047Y-106520142D01*
X160028952Y-107043952D02*
X159981333Y-106948714D01*
X159933714Y-106901095D01*
X159838476Y-106853476D01*
X159790857Y-106853476D01*
X159695619Y-106901095D01*
X159648000Y-106948714D01*
X159600380Y-107043952D01*
X159600380Y-107234428D01*
X159648000Y-107329666D01*
X159695619Y-107377285D01*
X159790857Y-107424904D01*
X159838476Y-107424904D01*
X159933714Y-107377285D01*
X159981333Y-107329666D01*
X160028952Y-107234428D01*
X160028952Y-107043952D01*
X160076571Y-106948714D01*
X160124190Y-106901095D01*
X160219428Y-106853476D01*
X160409904Y-106853476D01*
X160505142Y-106901095D01*
X160552761Y-106948714D01*
X160600380Y-107043952D01*
X160600380Y-107234428D01*
X160552761Y-107329666D01*
X160505142Y-107377285D01*
X160409904Y-107424904D01*
X160219428Y-107424904D01*
X160124190Y-107377285D01*
X160076571Y-107329666D01*
X160028952Y-107234428D01*
%TO.C,R49*%
X154947857Y-85542380D02*
X155281190Y-85066190D01*
X155519285Y-85542380D02*
X155519285Y-84542380D01*
X155138333Y-84542380D01*
X155043095Y-84590000D01*
X154995476Y-84637619D01*
X154947857Y-84732857D01*
X154947857Y-84875714D01*
X154995476Y-84970952D01*
X155043095Y-85018571D01*
X155138333Y-85066190D01*
X155519285Y-85066190D01*
X154090714Y-84875714D02*
X154090714Y-85542380D01*
X154328809Y-84494761D02*
X154566904Y-85209047D01*
X153947857Y-85209047D01*
X153519285Y-85542380D02*
X153328809Y-85542380D01*
X153233571Y-85494761D01*
X153185952Y-85447142D01*
X153090714Y-85304285D01*
X153043095Y-85113809D01*
X153043095Y-84732857D01*
X153090714Y-84637619D01*
X153138333Y-84590000D01*
X153233571Y-84542380D01*
X153424047Y-84542380D01*
X153519285Y-84590000D01*
X153566904Y-84637619D01*
X153614523Y-84732857D01*
X153614523Y-84970952D01*
X153566904Y-85066190D01*
X153519285Y-85113809D01*
X153424047Y-85161428D01*
X153233571Y-85161428D01*
X153138333Y-85113809D01*
X153090714Y-85066190D01*
X153043095Y-84970952D01*
%TO.C,C11*%
X108687142Y-85327142D02*
X108734761Y-85279523D01*
X108782380Y-85136666D01*
X108782380Y-85041428D01*
X108734761Y-84898571D01*
X108639523Y-84803333D01*
X108544285Y-84755714D01*
X108353809Y-84708095D01*
X108210952Y-84708095D01*
X108020476Y-84755714D01*
X107925238Y-84803333D01*
X107830000Y-84898571D01*
X107782380Y-85041428D01*
X107782380Y-85136666D01*
X107830000Y-85279523D01*
X107877619Y-85327142D01*
X108782380Y-86279523D02*
X108782380Y-85708095D01*
X108782380Y-85993809D02*
X107782380Y-85993809D01*
X107925238Y-85898571D01*
X108020476Y-85803333D01*
X108068095Y-85708095D01*
X108782380Y-87231904D02*
X108782380Y-86660476D01*
X108782380Y-86946190D02*
X107782380Y-86946190D01*
X107925238Y-86850952D01*
X108020476Y-86755714D01*
X108068095Y-86660476D01*
%TO.C,C14*%
X126977142Y-96639142D02*
X127024761Y-96591523D01*
X127072380Y-96448666D01*
X127072380Y-96353428D01*
X127024761Y-96210571D01*
X126929523Y-96115333D01*
X126834285Y-96067714D01*
X126643809Y-96020095D01*
X126500952Y-96020095D01*
X126310476Y-96067714D01*
X126215238Y-96115333D01*
X126120000Y-96210571D01*
X126072380Y-96353428D01*
X126072380Y-96448666D01*
X126120000Y-96591523D01*
X126167619Y-96639142D01*
X127072380Y-97591523D02*
X127072380Y-97020095D01*
X127072380Y-97305809D02*
X126072380Y-97305809D01*
X126215238Y-97210571D01*
X126310476Y-97115333D01*
X126358095Y-97020095D01*
X126405714Y-98448666D02*
X127072380Y-98448666D01*
X126024761Y-98210571D02*
X126739047Y-97972476D01*
X126739047Y-98591523D01*
%TO.C,C17*%
X45441142Y-92067142D02*
X45488761Y-92019523D01*
X45536380Y-91876666D01*
X45536380Y-91781428D01*
X45488761Y-91638571D01*
X45393523Y-91543333D01*
X45298285Y-91495714D01*
X45107809Y-91448095D01*
X44964952Y-91448095D01*
X44774476Y-91495714D01*
X44679238Y-91543333D01*
X44584000Y-91638571D01*
X44536380Y-91781428D01*
X44536380Y-91876666D01*
X44584000Y-92019523D01*
X44631619Y-92067142D01*
X45536380Y-93019523D02*
X45536380Y-92448095D01*
X45536380Y-92733809D02*
X44536380Y-92733809D01*
X44679238Y-92638571D01*
X44774476Y-92543333D01*
X44822095Y-92448095D01*
X44536380Y-93352857D02*
X44536380Y-94019523D01*
X45536380Y-93590952D01*
%TD*%
M02*
