%TF.GenerationSoftware,KiCad,Pcbnew,(5.1.6)-1*%
%TF.CreationDate,2021-01-03T22:36:31+05:30*%
%TF.ProjectId,supplyboard,73757070-6c79-4626-9f61-72642e6b6963,rev?*%
%TF.SameCoordinates,Original*%
%TF.FileFunction,Paste,Bot*%
%TF.FilePolarity,Positive*%
%FSLAX46Y46*%
G04 Gerber Fmt 4.6, Leading zero omitted, Abs format (unit mm)*
G04 Created by KiCad (PCBNEW (5.1.6)-1) date 2021-01-03 22:36:31*
%MOMM*%
%LPD*%
G01*
G04 APERTURE LIST*
G04 APERTURE END LIST*
%TO.C,R35*%
G36*
G01*
X157538000Y-84385999D02*
X157538000Y-85286001D01*
G75*
G02*
X157288001Y-85536000I-249999J0D01*
G01*
X156637999Y-85536000D01*
G75*
G02*
X156388000Y-85286001I0J249999D01*
G01*
X156388000Y-84385999D01*
G75*
G02*
X156637999Y-84136000I249999J0D01*
G01*
X157288001Y-84136000D01*
G75*
G02*
X157538000Y-84385999I0J-249999D01*
G01*
G37*
G36*
G01*
X159588000Y-84385999D02*
X159588000Y-85286001D01*
G75*
G02*
X159338001Y-85536000I-249999J0D01*
G01*
X158687999Y-85536000D01*
G75*
G02*
X158438000Y-85286001I0J249999D01*
G01*
X158438000Y-84385999D01*
G75*
G02*
X158687999Y-84136000I249999J0D01*
G01*
X159338001Y-84136000D01*
G75*
G02*
X159588000Y-84385999I0J-249999D01*
G01*
G37*
%TD*%
%TO.C,C9*%
G36*
G01*
X140413000Y-114750001D02*
X140413000Y-113849999D01*
G75*
G02*
X140662999Y-113600000I249999J0D01*
G01*
X141313001Y-113600000D01*
G75*
G02*
X141563000Y-113849999I0J-249999D01*
G01*
X141563000Y-114750001D01*
G75*
G02*
X141313001Y-115000000I-249999J0D01*
G01*
X140662999Y-115000000D01*
G75*
G02*
X140413000Y-114750001I0J249999D01*
G01*
G37*
G36*
G01*
X138363000Y-114750001D02*
X138363000Y-113849999D01*
G75*
G02*
X138612999Y-113600000I249999J0D01*
G01*
X139263001Y-113600000D01*
G75*
G02*
X139513000Y-113849999I0J-249999D01*
G01*
X139513000Y-114750001D01*
G75*
G02*
X139263001Y-115000000I-249999J0D01*
G01*
X138612999Y-115000000D01*
G75*
G02*
X138363000Y-114750001I0J249999D01*
G01*
G37*
%TD*%
%TO.C,R10*%
G36*
G01*
X129852000Y-117405999D02*
X129852000Y-118306001D01*
G75*
G02*
X129602001Y-118556000I-249999J0D01*
G01*
X128951999Y-118556000D01*
G75*
G02*
X128702000Y-118306001I0J249999D01*
G01*
X128702000Y-117405999D01*
G75*
G02*
X128951999Y-117156000I249999J0D01*
G01*
X129602001Y-117156000D01*
G75*
G02*
X129852000Y-117405999I0J-249999D01*
G01*
G37*
G36*
G01*
X131902000Y-117405999D02*
X131902000Y-118306001D01*
G75*
G02*
X131652001Y-118556000I-249999J0D01*
G01*
X131001999Y-118556000D01*
G75*
G02*
X130752000Y-118306001I0J249999D01*
G01*
X130752000Y-117405999D01*
G75*
G02*
X131001999Y-117156000I249999J0D01*
G01*
X131652001Y-117156000D01*
G75*
G02*
X131902000Y-117405999I0J-249999D01*
G01*
G37*
%TD*%
%TO.C,C7*%
G36*
G01*
X140071500Y-112470250D02*
X140071500Y-111557750D01*
G75*
G02*
X140315250Y-111314000I243750J0D01*
G01*
X140802750Y-111314000D01*
G75*
G02*
X141046500Y-111557750I0J-243750D01*
G01*
X141046500Y-112470250D01*
G75*
G02*
X140802750Y-112714000I-243750J0D01*
G01*
X140315250Y-112714000D01*
G75*
G02*
X140071500Y-112470250I0J243750D01*
G01*
G37*
G36*
G01*
X138196500Y-112470250D02*
X138196500Y-111557750D01*
G75*
G02*
X138440250Y-111314000I243750J0D01*
G01*
X138927750Y-111314000D01*
G75*
G02*
X139171500Y-111557750I0J-243750D01*
G01*
X139171500Y-112470250D01*
G75*
G02*
X138927750Y-112714000I-243750J0D01*
G01*
X138440250Y-112714000D01*
G75*
G02*
X138196500Y-112470250I0J243750D01*
G01*
G37*
%TD*%
%TO.C,R1*%
G36*
G01*
X128720001Y-92260000D02*
X127819999Y-92260000D01*
G75*
G02*
X127570000Y-92010001I0J249999D01*
G01*
X127570000Y-91359999D01*
G75*
G02*
X127819999Y-91110000I249999J0D01*
G01*
X128720001Y-91110000D01*
G75*
G02*
X128970000Y-91359999I0J-249999D01*
G01*
X128970000Y-92010001D01*
G75*
G02*
X128720001Y-92260000I-249999J0D01*
G01*
G37*
G36*
G01*
X128720001Y-94310000D02*
X127819999Y-94310000D01*
G75*
G02*
X127570000Y-94060001I0J249999D01*
G01*
X127570000Y-93409999D01*
G75*
G02*
X127819999Y-93160000I249999J0D01*
G01*
X128720001Y-93160000D01*
G75*
G02*
X128970000Y-93409999I0J-249999D01*
G01*
X128970000Y-94060001D01*
G75*
G02*
X128720001Y-94310000I-249999J0D01*
G01*
G37*
%TD*%
%TO.C,C15*%
G36*
G01*
X136848001Y-94537000D02*
X135947999Y-94537000D01*
G75*
G02*
X135698000Y-94287001I0J249999D01*
G01*
X135698000Y-93636999D01*
G75*
G02*
X135947999Y-93387000I249999J0D01*
G01*
X136848001Y-93387000D01*
G75*
G02*
X137098000Y-93636999I0J-249999D01*
G01*
X137098000Y-94287001D01*
G75*
G02*
X136848001Y-94537000I-249999J0D01*
G01*
G37*
G36*
G01*
X136848001Y-96587000D02*
X135947999Y-96587000D01*
G75*
G02*
X135698000Y-96337001I0J249999D01*
G01*
X135698000Y-95686999D01*
G75*
G02*
X135947999Y-95437000I249999J0D01*
G01*
X136848001Y-95437000D01*
G75*
G02*
X137098000Y-95686999I0J-249999D01*
G01*
X137098000Y-96337001D01*
G75*
G02*
X136848001Y-96587000I-249999J0D01*
G01*
G37*
%TD*%
%TO.C,C6*%
G36*
G01*
X44634999Y-103320000D02*
X45535001Y-103320000D01*
G75*
G02*
X45785000Y-103569999I0J-249999D01*
G01*
X45785000Y-104220001D01*
G75*
G02*
X45535001Y-104470000I-249999J0D01*
G01*
X44634999Y-104470000D01*
G75*
G02*
X44385000Y-104220001I0J249999D01*
G01*
X44385000Y-103569999D01*
G75*
G02*
X44634999Y-103320000I249999J0D01*
G01*
G37*
G36*
G01*
X44634999Y-101270000D02*
X45535001Y-101270000D01*
G75*
G02*
X45785000Y-101519999I0J-249999D01*
G01*
X45785000Y-102170001D01*
G75*
G02*
X45535001Y-102420000I-249999J0D01*
G01*
X44634999Y-102420000D01*
G75*
G02*
X44385000Y-102170001I0J249999D01*
G01*
X44385000Y-101519999D01*
G75*
G02*
X44634999Y-101270000I249999J0D01*
G01*
G37*
%TD*%
%TO.C,R7*%
G36*
G01*
X103955000Y-83635001D02*
X103955000Y-82734999D01*
G75*
G02*
X104204999Y-82485000I249999J0D01*
G01*
X104855001Y-82485000D01*
G75*
G02*
X105105000Y-82734999I0J-249999D01*
G01*
X105105000Y-83635001D01*
G75*
G02*
X104855001Y-83885000I-249999J0D01*
G01*
X104204999Y-83885000D01*
G75*
G02*
X103955000Y-83635001I0J249999D01*
G01*
G37*
G36*
G01*
X101905000Y-83635001D02*
X101905000Y-82734999D01*
G75*
G02*
X102154999Y-82485000I249999J0D01*
G01*
X102805001Y-82485000D01*
G75*
G02*
X103055000Y-82734999I0J-249999D01*
G01*
X103055000Y-83635001D01*
G75*
G02*
X102805001Y-83885000I-249999J0D01*
G01*
X102154999Y-83885000D01*
G75*
G02*
X101905000Y-83635001I0J249999D01*
G01*
G37*
%TD*%
%TO.C,R8*%
G36*
G01*
X49726001Y-111310000D02*
X48825999Y-111310000D01*
G75*
G02*
X48576000Y-111060001I0J249999D01*
G01*
X48576000Y-110409999D01*
G75*
G02*
X48825999Y-110160000I249999J0D01*
G01*
X49726001Y-110160000D01*
G75*
G02*
X49976000Y-110409999I0J-249999D01*
G01*
X49976000Y-111060001D01*
G75*
G02*
X49726001Y-111310000I-249999J0D01*
G01*
G37*
G36*
G01*
X49726001Y-113360000D02*
X48825999Y-113360000D01*
G75*
G02*
X48576000Y-113110001I0J249999D01*
G01*
X48576000Y-112459999D01*
G75*
G02*
X48825999Y-112210000I249999J0D01*
G01*
X49726001Y-112210000D01*
G75*
G02*
X49976000Y-112459999I0J-249999D01*
G01*
X49976000Y-113110001D01*
G75*
G02*
X49726001Y-113360000I-249999J0D01*
G01*
G37*
%TD*%
%TO.C,R15*%
G36*
G01*
X119322001Y-107246000D02*
X118421999Y-107246000D01*
G75*
G02*
X118172000Y-106996001I0J249999D01*
G01*
X118172000Y-106345999D01*
G75*
G02*
X118421999Y-106096000I249999J0D01*
G01*
X119322001Y-106096000D01*
G75*
G02*
X119572000Y-106345999I0J-249999D01*
G01*
X119572000Y-106996001D01*
G75*
G02*
X119322001Y-107246000I-249999J0D01*
G01*
G37*
G36*
G01*
X119322001Y-109296000D02*
X118421999Y-109296000D01*
G75*
G02*
X118172000Y-109046001I0J249999D01*
G01*
X118172000Y-108395999D01*
G75*
G02*
X118421999Y-108146000I249999J0D01*
G01*
X119322001Y-108146000D01*
G75*
G02*
X119572000Y-108395999I0J-249999D01*
G01*
X119572000Y-109046001D01*
G75*
G02*
X119322001Y-109296000I-249999J0D01*
G01*
G37*
%TD*%
%TO.C,R11*%
G36*
G01*
X165550000Y-110432001D02*
X165550000Y-109531999D01*
G75*
G02*
X165799999Y-109282000I249999J0D01*
G01*
X166450001Y-109282000D01*
G75*
G02*
X166700000Y-109531999I0J-249999D01*
G01*
X166700000Y-110432001D01*
G75*
G02*
X166450001Y-110682000I-249999J0D01*
G01*
X165799999Y-110682000D01*
G75*
G02*
X165550000Y-110432001I0J249999D01*
G01*
G37*
G36*
G01*
X163500000Y-110432001D02*
X163500000Y-109531999D01*
G75*
G02*
X163749999Y-109282000I249999J0D01*
G01*
X164400001Y-109282000D01*
G75*
G02*
X164650000Y-109531999I0J-249999D01*
G01*
X164650000Y-110432001D01*
G75*
G02*
X164400001Y-110682000I-249999J0D01*
G01*
X163749999Y-110682000D01*
G75*
G02*
X163500000Y-110432001I0J249999D01*
G01*
G37*
%TD*%
%TO.C,R13*%
G36*
G01*
X57334999Y-104590000D02*
X58235001Y-104590000D01*
G75*
G02*
X58485000Y-104839999I0J-249999D01*
G01*
X58485000Y-105490001D01*
G75*
G02*
X58235001Y-105740000I-249999J0D01*
G01*
X57334999Y-105740000D01*
G75*
G02*
X57085000Y-105490001I0J249999D01*
G01*
X57085000Y-104839999D01*
G75*
G02*
X57334999Y-104590000I249999J0D01*
G01*
G37*
G36*
G01*
X57334999Y-102540000D02*
X58235001Y-102540000D01*
G75*
G02*
X58485000Y-102789999I0J-249999D01*
G01*
X58485000Y-103440001D01*
G75*
G02*
X58235001Y-103690000I-249999J0D01*
G01*
X57334999Y-103690000D01*
G75*
G02*
X57085000Y-103440001I0J249999D01*
G01*
X57085000Y-102789999D01*
G75*
G02*
X57334999Y-102540000I249999J0D01*
G01*
G37*
%TD*%
%TO.C,R32*%
G36*
G01*
X156152000Y-110940001D02*
X156152000Y-110039999D01*
G75*
G02*
X156401999Y-109790000I249999J0D01*
G01*
X157052001Y-109790000D01*
G75*
G02*
X157302000Y-110039999I0J-249999D01*
G01*
X157302000Y-110940001D01*
G75*
G02*
X157052001Y-111190000I-249999J0D01*
G01*
X156401999Y-111190000D01*
G75*
G02*
X156152000Y-110940001I0J249999D01*
G01*
G37*
G36*
G01*
X154102000Y-110940001D02*
X154102000Y-110039999D01*
G75*
G02*
X154351999Y-109790000I249999J0D01*
G01*
X155002001Y-109790000D01*
G75*
G02*
X155252000Y-110039999I0J-249999D01*
G01*
X155252000Y-110940001D01*
G75*
G02*
X155002001Y-111190000I-249999J0D01*
G01*
X154351999Y-111190000D01*
G75*
G02*
X154102000Y-110940001I0J249999D01*
G01*
G37*
%TD*%
%TO.C,R33*%
G36*
G01*
X152711999Y-100272000D02*
X153612001Y-100272000D01*
G75*
G02*
X153862000Y-100521999I0J-249999D01*
G01*
X153862000Y-101172001D01*
G75*
G02*
X153612001Y-101422000I-249999J0D01*
G01*
X152711999Y-101422000D01*
G75*
G02*
X152462000Y-101172001I0J249999D01*
G01*
X152462000Y-100521999D01*
G75*
G02*
X152711999Y-100272000I249999J0D01*
G01*
G37*
G36*
G01*
X152711999Y-98222000D02*
X153612001Y-98222000D01*
G75*
G02*
X153862000Y-98471999I0J-249999D01*
G01*
X153862000Y-99122001D01*
G75*
G02*
X153612001Y-99372000I-249999J0D01*
G01*
X152711999Y-99372000D01*
G75*
G02*
X152462000Y-99122001I0J249999D01*
G01*
X152462000Y-98471999D01*
G75*
G02*
X152711999Y-98222000I249999J0D01*
G01*
G37*
%TD*%
%TO.C,R37*%
G36*
G01*
X167074000Y-99764001D02*
X167074000Y-98863999D01*
G75*
G02*
X167323999Y-98614000I249999J0D01*
G01*
X167974001Y-98614000D01*
G75*
G02*
X168224000Y-98863999I0J-249999D01*
G01*
X168224000Y-99764001D01*
G75*
G02*
X167974001Y-100014000I-249999J0D01*
G01*
X167323999Y-100014000D01*
G75*
G02*
X167074000Y-99764001I0J249999D01*
G01*
G37*
G36*
G01*
X165024000Y-99764001D02*
X165024000Y-98863999D01*
G75*
G02*
X165273999Y-98614000I249999J0D01*
G01*
X165924001Y-98614000D01*
G75*
G02*
X166174000Y-98863999I0J-249999D01*
G01*
X166174000Y-99764001D01*
G75*
G02*
X165924001Y-100014000I-249999J0D01*
G01*
X165273999Y-100014000D01*
G75*
G02*
X165024000Y-99764001I0J249999D01*
G01*
G37*
%TD*%
%TO.C,R38*%
G36*
G01*
X171761999Y-109679000D02*
X172662001Y-109679000D01*
G75*
G02*
X172912000Y-109928999I0J-249999D01*
G01*
X172912000Y-110579001D01*
G75*
G02*
X172662001Y-110829000I-249999J0D01*
G01*
X171761999Y-110829000D01*
G75*
G02*
X171512000Y-110579001I0J249999D01*
G01*
X171512000Y-109928999D01*
G75*
G02*
X171761999Y-109679000I249999J0D01*
G01*
G37*
G36*
G01*
X171761999Y-107629000D02*
X172662001Y-107629000D01*
G75*
G02*
X172912000Y-107878999I0J-249999D01*
G01*
X172912000Y-108529001D01*
G75*
G02*
X172662001Y-108779000I-249999J0D01*
G01*
X171761999Y-108779000D01*
G75*
G02*
X171512000Y-108529001I0J249999D01*
G01*
X171512000Y-107878999D01*
G75*
G02*
X171761999Y-107629000I249999J0D01*
G01*
G37*
%TD*%
%TO.C,R39*%
G36*
G01*
X169106000Y-105352001D02*
X169106000Y-104451999D01*
G75*
G02*
X169355999Y-104202000I249999J0D01*
G01*
X170006001Y-104202000D01*
G75*
G02*
X170256000Y-104451999I0J-249999D01*
G01*
X170256000Y-105352001D01*
G75*
G02*
X170006001Y-105602000I-249999J0D01*
G01*
X169355999Y-105602000D01*
G75*
G02*
X169106000Y-105352001I0J249999D01*
G01*
G37*
G36*
G01*
X167056000Y-105352001D02*
X167056000Y-104451999D01*
G75*
G02*
X167305999Y-104202000I249999J0D01*
G01*
X167956001Y-104202000D01*
G75*
G02*
X168206000Y-104451999I0J-249999D01*
G01*
X168206000Y-105352001D01*
G75*
G02*
X167956001Y-105602000I-249999J0D01*
G01*
X167305999Y-105602000D01*
G75*
G02*
X167056000Y-105352001I0J249999D01*
G01*
G37*
%TD*%
%TO.C,R40*%
G36*
G01*
X159315999Y-123132000D02*
X160216001Y-123132000D01*
G75*
G02*
X160466000Y-123381999I0J-249999D01*
G01*
X160466000Y-124032001D01*
G75*
G02*
X160216001Y-124282000I-249999J0D01*
G01*
X159315999Y-124282000D01*
G75*
G02*
X159066000Y-124032001I0J249999D01*
G01*
X159066000Y-123381999D01*
G75*
G02*
X159315999Y-123132000I249999J0D01*
G01*
G37*
G36*
G01*
X159315999Y-121082000D02*
X160216001Y-121082000D01*
G75*
G02*
X160466000Y-121331999I0J-249999D01*
G01*
X160466000Y-121982001D01*
G75*
G02*
X160216001Y-122232000I-249999J0D01*
G01*
X159315999Y-122232000D01*
G75*
G02*
X159066000Y-121982001I0J249999D01*
G01*
X159066000Y-121331999D01*
G75*
G02*
X159315999Y-121082000I249999J0D01*
G01*
G37*
%TD*%
%TO.C,R41*%
G36*
G01*
X177087000Y-110547999D02*
X177087000Y-111448001D01*
G75*
G02*
X176837001Y-111698000I-249999J0D01*
G01*
X176186999Y-111698000D01*
G75*
G02*
X175937000Y-111448001I0J249999D01*
G01*
X175937000Y-110547999D01*
G75*
G02*
X176186999Y-110298000I249999J0D01*
G01*
X176837001Y-110298000D01*
G75*
G02*
X177087000Y-110547999I0J-249999D01*
G01*
G37*
G36*
G01*
X179137000Y-110547999D02*
X179137000Y-111448001D01*
G75*
G02*
X178887001Y-111698000I-249999J0D01*
G01*
X178236999Y-111698000D01*
G75*
G02*
X177987000Y-111448001I0J249999D01*
G01*
X177987000Y-110547999D01*
G75*
G02*
X178236999Y-110298000I249999J0D01*
G01*
X178887001Y-110298000D01*
G75*
G02*
X179137000Y-110547999I0J-249999D01*
G01*
G37*
%TD*%
%TO.C,R44*%
G36*
G01*
X149040001Y-89974000D02*
X148139999Y-89974000D01*
G75*
G02*
X147890000Y-89724001I0J249999D01*
G01*
X147890000Y-89073999D01*
G75*
G02*
X148139999Y-88824000I249999J0D01*
G01*
X149040001Y-88824000D01*
G75*
G02*
X149290000Y-89073999I0J-249999D01*
G01*
X149290000Y-89724001D01*
G75*
G02*
X149040001Y-89974000I-249999J0D01*
G01*
G37*
G36*
G01*
X149040001Y-92024000D02*
X148139999Y-92024000D01*
G75*
G02*
X147890000Y-91774001I0J249999D01*
G01*
X147890000Y-91123999D01*
G75*
G02*
X148139999Y-90874000I249999J0D01*
G01*
X149040001Y-90874000D01*
G75*
G02*
X149290000Y-91123999I0J-249999D01*
G01*
X149290000Y-91774001D01*
G75*
G02*
X149040001Y-92024000I-249999J0D01*
G01*
G37*
%TD*%
%TO.C,R48*%
G36*
G01*
X161347999Y-106613000D02*
X162248001Y-106613000D01*
G75*
G02*
X162498000Y-106862999I0J-249999D01*
G01*
X162498000Y-107513001D01*
G75*
G02*
X162248001Y-107763000I-249999J0D01*
G01*
X161347999Y-107763000D01*
G75*
G02*
X161098000Y-107513001I0J249999D01*
G01*
X161098000Y-106862999D01*
G75*
G02*
X161347999Y-106613000I249999J0D01*
G01*
G37*
G36*
G01*
X161347999Y-104563000D02*
X162248001Y-104563000D01*
G75*
G02*
X162498000Y-104812999I0J-249999D01*
G01*
X162498000Y-105463001D01*
G75*
G02*
X162248001Y-105713000I-249999J0D01*
G01*
X161347999Y-105713000D01*
G75*
G02*
X161098000Y-105463001I0J249999D01*
G01*
X161098000Y-104812999D01*
G75*
G02*
X161347999Y-104563000I249999J0D01*
G01*
G37*
%TD*%
%TO.C,R49*%
G36*
G01*
X157930000Y-82238001D02*
X157930000Y-81337999D01*
G75*
G02*
X158179999Y-81088000I249999J0D01*
G01*
X158830001Y-81088000D01*
G75*
G02*
X159080000Y-81337999I0J-249999D01*
G01*
X159080000Y-82238001D01*
G75*
G02*
X158830001Y-82488000I-249999J0D01*
G01*
X158179999Y-82488000D01*
G75*
G02*
X157930000Y-82238001I0J249999D01*
G01*
G37*
G36*
G01*
X155880000Y-82238001D02*
X155880000Y-81337999D01*
G75*
G02*
X156129999Y-81088000I249999J0D01*
G01*
X156780001Y-81088000D01*
G75*
G02*
X157030000Y-81337999I0J-249999D01*
G01*
X157030000Y-82238001D01*
G75*
G02*
X156780001Y-82488000I-249999J0D01*
G01*
X156129999Y-82488000D01*
G75*
G02*
X155880000Y-82238001I0J249999D01*
G01*
G37*
%TD*%
%TO.C,C11*%
G36*
G01*
X107130001Y-87570000D02*
X106229999Y-87570000D01*
G75*
G02*
X105980000Y-87320001I0J249999D01*
G01*
X105980000Y-86669999D01*
G75*
G02*
X106229999Y-86420000I249999J0D01*
G01*
X107130001Y-86420000D01*
G75*
G02*
X107380000Y-86669999I0J-249999D01*
G01*
X107380000Y-87320001D01*
G75*
G02*
X107130001Y-87570000I-249999J0D01*
G01*
G37*
G36*
G01*
X107130001Y-85520000D02*
X106229999Y-85520000D01*
G75*
G02*
X105980000Y-85270001I0J249999D01*
G01*
X105980000Y-84619999D01*
G75*
G02*
X106229999Y-84370000I249999J0D01*
G01*
X107130001Y-84370000D01*
G75*
G02*
X107380000Y-84619999I0J-249999D01*
G01*
X107380000Y-85270001D01*
G75*
G02*
X107130001Y-85520000I-249999J0D01*
G01*
G37*
%TD*%
%TO.C,C14*%
G36*
G01*
X127819999Y-95682000D02*
X128720001Y-95682000D01*
G75*
G02*
X128970000Y-95931999I0J-249999D01*
G01*
X128970000Y-96582001D01*
G75*
G02*
X128720001Y-96832000I-249999J0D01*
G01*
X127819999Y-96832000D01*
G75*
G02*
X127570000Y-96582001I0J249999D01*
G01*
X127570000Y-95931999D01*
G75*
G02*
X127819999Y-95682000I249999J0D01*
G01*
G37*
G36*
G01*
X127819999Y-97732000D02*
X128720001Y-97732000D01*
G75*
G02*
X128970000Y-97981999I0J-249999D01*
G01*
X128970000Y-98632001D01*
G75*
G02*
X128720001Y-98882000I-249999J0D01*
G01*
X127819999Y-98882000D01*
G75*
G02*
X127570000Y-98632001I0J249999D01*
G01*
X127570000Y-97981999D01*
G75*
G02*
X127819999Y-97732000I249999J0D01*
G01*
G37*
%TD*%
%TO.C,C17*%
G36*
G01*
X43884001Y-92260000D02*
X42983999Y-92260000D01*
G75*
G02*
X42734000Y-92010001I0J249999D01*
G01*
X42734000Y-91359999D01*
G75*
G02*
X42983999Y-91110000I249999J0D01*
G01*
X43884001Y-91110000D01*
G75*
G02*
X44134000Y-91359999I0J-249999D01*
G01*
X44134000Y-92010001D01*
G75*
G02*
X43884001Y-92260000I-249999J0D01*
G01*
G37*
G36*
G01*
X43884001Y-94310000D02*
X42983999Y-94310000D01*
G75*
G02*
X42734000Y-94060001I0J249999D01*
G01*
X42734000Y-93409999D01*
G75*
G02*
X42983999Y-93160000I249999J0D01*
G01*
X43884001Y-93160000D01*
G75*
G02*
X44134000Y-93409999I0J-249999D01*
G01*
X44134000Y-94060001D01*
G75*
G02*
X43884001Y-94310000I-249999J0D01*
G01*
G37*
%TD*%
M02*
