%TF.GenerationSoftware,KiCad,Pcbnew,(5.1.6)-1*%
%TF.CreationDate,2021-01-03T22:36:30+05:30*%
%TF.ProjectId,supplyboard,73757070-6c79-4626-9f61-72642e6b6963,rev?*%
%TF.SameCoordinates,Original*%
%TF.FileFunction,Copper,L1,Top*%
%TF.FilePolarity,Positive*%
%FSLAX46Y46*%
G04 Gerber Fmt 4.6, Leading zero omitted, Abs format (unit mm)*
G04 Created by KiCad (PCBNEW (5.1.6)-1) date 2021-01-03 22:36:30*
%MOMM*%
%LPD*%
G01*
G04 APERTURE LIST*
%TA.AperFunction,ComponentPad*%
%ADD10O,2.400000X2.400000*%
%TD*%
%TA.AperFunction,ComponentPad*%
%ADD11C,2.400000*%
%TD*%
%TA.AperFunction,ComponentPad*%
%ADD12O,3.200000X3.200000*%
%TD*%
%TA.AperFunction,ComponentPad*%
%ADD13R,3.200000X3.200000*%
%TD*%
%TA.AperFunction,ComponentPad*%
%ADD14C,1.600000*%
%TD*%
%TA.AperFunction,ComponentPad*%
%ADD15R,1.600000X1.600000*%
%TD*%
%TA.AperFunction,ComponentPad*%
%ADD16O,1.600000X1.600000*%
%TD*%
%TA.AperFunction,ComponentPad*%
%ADD17O,1.400000X1.400000*%
%TD*%
%TA.AperFunction,ComponentPad*%
%ADD18C,1.400000*%
%TD*%
%TA.AperFunction,ComponentPad*%
%ADD19O,1.750000X1.200000*%
%TD*%
%TA.AperFunction,ComponentPad*%
%ADD20R,1.200000X1.200000*%
%TD*%
%TA.AperFunction,ComponentPad*%
%ADD21C,1.200000*%
%TD*%
%TA.AperFunction,ComponentPad*%
%ADD22C,0.100000*%
%TD*%
%TA.AperFunction,ComponentPad*%
%ADD23C,3.500000*%
%TD*%
%TA.AperFunction,ComponentPad*%
%ADD24O,1.500000X1.500000*%
%TD*%
%TA.AperFunction,ComponentPad*%
%ADD25R,1.500000X1.500000*%
%TD*%
%TA.AperFunction,ComponentPad*%
%ADD26C,2.000000*%
%TD*%
%TA.AperFunction,ComponentPad*%
%ADD27R,2.000000X2.000000*%
%TD*%
%TA.AperFunction,ComponentPad*%
%ADD28O,3.000000X2.500000*%
%TD*%
%TA.AperFunction,ComponentPad*%
%ADD29O,2.200000X2.200000*%
%TD*%
%TA.AperFunction,ComponentPad*%
%ADD30R,2.200000X2.200000*%
%TD*%
%TA.AperFunction,ComponentPad*%
%ADD31C,1.800000*%
%TD*%
%TA.AperFunction,ComponentPad*%
%ADD32R,1.800000X1.800000*%
%TD*%
%TA.AperFunction,ComponentPad*%
%ADD33O,1.905000X2.000000*%
%TD*%
%TA.AperFunction,ComponentPad*%
%ADD34R,1.905000X2.000000*%
%TD*%
%TA.AperFunction,ComponentPad*%
%ADD35C,3.000000*%
%TD*%
%TA.AperFunction,ComponentPad*%
%ADD36R,3.000000X3.000000*%
%TD*%
%TA.AperFunction,ComponentPad*%
%ADD37O,1.800000X1.800000*%
%TD*%
%TA.AperFunction,ComponentPad*%
%ADD38O,1.740000X2.190000*%
%TD*%
%TA.AperFunction,ComponentPad*%
%ADD39O,1.200000X1.200000*%
%TD*%
%TA.AperFunction,ComponentPad*%
%ADD40O,1.600000X1.200000*%
%TD*%
%TA.AperFunction,ComponentPad*%
%ADD41R,2.000000X1.905000*%
%TD*%
%TA.AperFunction,ComponentPad*%
%ADD42O,2.000000X1.905000*%
%TD*%
%TA.AperFunction,ComponentPad*%
%ADD43O,1.200000X1.600000*%
%TD*%
%TA.AperFunction,ComponentPad*%
%ADD44C,1.300000*%
%TD*%
%TA.AperFunction,ComponentPad*%
%ADD45R,1.300000X1.300000*%
%TD*%
%TA.AperFunction,ViaPad*%
%ADD46C,0.800000*%
%TD*%
G04 APERTURE END LIST*
D10*
%TO.P,R6,2*%
%TO.N,Net-(C1-Pad1)*%
X123190000Y-130810000D03*
D11*
%TO.P,R6,1*%
%TO.N,Net-(C1-Pad2)*%
X123190000Y-146050000D03*
%TD*%
D12*
%TO.P,D8,2*%
%TO.N,Net-(C20-Pad1)*%
X71120000Y-106045000D03*
D13*
%TO.P,D8,1*%
%TO.N,Net-(D8-Pad1)*%
X71120000Y-121285000D03*
%TD*%
D14*
%TO.P,C20,2*%
%TO.N,Earth*%
X63500000Y-108910000D03*
D15*
%TO.P,C20,1*%
%TO.N,Net-(C20-Pad1)*%
X63500000Y-105410000D03*
%TD*%
D16*
%TO.P,R19,2*%
%TO.N,Net-(D11-Pad1)*%
X77470000Y-104140000D03*
D14*
%TO.P,R19,1*%
%TO.N,OPTO_2*%
X77470000Y-116840000D03*
%TD*%
D17*
%TO.P,R25,2*%
%TO.N,Net-(R13-Pad1)*%
X57785000Y-101600000D03*
D18*
%TO.P,R25,1*%
%TO.N,Net-(C12-Pad1)*%
X65405000Y-101600000D03*
%TD*%
D17*
%TO.P,R21,2*%
%TO.N,Net-(C12-Pad1)*%
X65405000Y-99060000D03*
D18*
%TO.P,R21,1*%
%TO.N,Earth*%
X57785000Y-99060000D03*
%TD*%
D17*
%TO.P,R9,2*%
%TO.N,48V*%
X48895000Y-107315000D03*
D18*
%TO.P,R9,1*%
%TO.N,Net-(R13-Pad2)*%
X56515000Y-107315000D03*
%TD*%
D19*
%TO.P,J2,6*%
%TO.N,48V*%
X40640000Y-105885000D03*
%TO.P,J2,5*%
X40640000Y-103885000D03*
%TO.P,J2,4*%
%TO.N,Earth*%
X40640000Y-101885000D03*
%TO.P,J2,3*%
X40640000Y-99885000D03*
%TO.P,J2,2*%
%TO.N,5V*%
X40640000Y-97885000D03*
%TO.P,J2,1*%
%TO.N,Earth*%
%TA.AperFunction,ComponentPad*%
G36*
G01*
X40014999Y-95285000D02*
X41265001Y-95285000D01*
G75*
G02*
X41515000Y-95534999I0J-249999D01*
G01*
X41515000Y-96235001D01*
G75*
G02*
X41265001Y-96485000I-249999J0D01*
G01*
X40014999Y-96485000D01*
G75*
G02*
X39765000Y-96235001I0J249999D01*
G01*
X39765000Y-95534999D01*
G75*
G02*
X40014999Y-95285000I249999J0D01*
G01*
G37*
%TD.AperFunction*%
%TD*%
D16*
%TO.P,R31,2*%
%TO.N,Net-(R31-Pad2)*%
X159258000Y-109728000D03*
D14*
%TO.P,R31,1*%
%TO.N,Net-(C4-Pad1)*%
X174498000Y-109728000D03*
%TD*%
D17*
%TO.P,R30,2*%
%TO.N,Earth*%
X167132000Y-106934000D03*
D18*
%TO.P,R30,1*%
%TO.N,Net-(R28-Pad1)*%
X159512000Y-106934000D03*
%TD*%
D17*
%TO.P,R36,2*%
%TO.N,/INPUTB*%
X164084000Y-101854000D03*
D18*
%TO.P,R36,1*%
%TO.N,Net-(R28-Pad1)*%
X156464000Y-101854000D03*
%TD*%
D20*
%TO.P,C18,1*%
%TO.N,TO_FB1*%
X143764000Y-122936000D03*
D21*
%TO.P,C18,2*%
%TO.N,Earth*%
X143764000Y-124936000D03*
%TD*%
%TO.P,D3,2*%
%TO.N,Net-(D3-Pad2)*%
%TA.AperFunction,ComponentPad*%
G36*
G01*
X186125612Y-94798388D02*
X186125612Y-94798388D01*
G75*
G02*
X186125612Y-96354022I-777817J-777817D01*
G01*
X186125612Y-96354022D01*
G75*
G02*
X184569978Y-96354022I-777817J777817D01*
G01*
X184569978Y-96354022D01*
G75*
G02*
X184569978Y-94798388I777817J777817D01*
G01*
X184569978Y-94798388D01*
G75*
G02*
X186125612Y-94798388I777817J-777817D01*
G01*
G37*
%TD.AperFunction*%
%TA.AperFunction,ComponentPad*%
D22*
%TO.P,D3,1*%
%TO.N,Earth*%
G36*
X192532000Y-86836365D02*
G01*
X194087635Y-88392000D01*
X192532000Y-89947635D01*
X190976365Y-88392000D01*
X192532000Y-86836365D01*
G37*
%TD.AperFunction*%
%TD*%
D23*
%TO.P,,*%
%TO.N,Net-(J1-Pad3)*%
X189675000Y-148005000D03*
%TD*%
D15*
%TO.P,C21,2*%
%TO.N,48V*%
X48514000Y-103505000D03*
D14*
%TO.P,C21,1*%
%TO.N,Earth*%
X48514000Y-100005000D03*
%TD*%
D24*
%TO.P,ZD,2*%
%TO.N,Earth*%
X146558000Y-117856000D03*
D25*
%TO.P,ZD,1*%
%TO.N,TO_FB1*%
X138938000Y-117856000D03*
%TD*%
D26*
%TO.P,C4,2*%
%TO.N,Earth*%
X188806144Y-120618000D03*
D27*
%TO.P,C4,1*%
%TO.N,Net-(C4-Pad1)*%
X182461856Y-116618000D03*
D26*
%TO.P,C4,2*%
%TO.N,Earth*%
X188134000Y-118618000D03*
D27*
%TO.P,C4,1*%
%TO.N,Net-(C4-Pad1)*%
X183134000Y-118618000D03*
%TD*%
D28*
%TO.P,T1,7*%
%TO.N,Earth*%
X84455000Y-113030000D03*
%TO.P,T1,6*%
%TO.N,Net-(D8-Pad1)*%
X84455000Y-122174000D03*
%TO.P,T1,14*%
%TO.N,Net-(C2-Pad2)*%
X84455000Y-135890000D03*
%TO.P,T1,3*%
%TO.N,Net-(D4-Pad1)*%
X104648000Y-122174000D03*
%TO.P,T1,2*%
%TO.N,Earth*%
X104648000Y-113030000D03*
%TO.P,T1,1*%
%TO.N,Net-(D6-Pad1)*%
X104648000Y-108458000D03*
%TO.P,T1,5*%
%TO.N,N/C*%
X104648000Y-126746000D03*
%TO.P,T1,13*%
X84455000Y-131318000D03*
%TO.P,T1,12*%
X84455000Y-126746000D03*
%TO.P,T1,11*%
X104648000Y-131318000D03*
%TO.P,T1,10*%
X84455000Y-117602000D03*
%TO.P,T1,*%
%TO.N,Earth*%
X84455000Y-108458000D03*
%TO.P,T1,8*%
%TO.N,N/C*%
X104648000Y-117348000D03*
%TO.P,T1,4*%
%TO.N,Net-(C1-Pad2)*%
X104648000Y-135890000D03*
%TD*%
D25*
%TO.P,D2,1*%
%TO.N,Net-(D2-Pad1)*%
X127254000Y-117856000D03*
D24*
%TO.P,D2,2*%
%TO.N,Net-(D2-Pad2)*%
X134874000Y-117856000D03*
%TD*%
%TO.P,D7,2*%
%TO.N,Net-(C3-Pad1)*%
X132842000Y-91694000D03*
D25*
%TO.P,D7,1*%
%TO.N,OPTO_POS+*%
X140462000Y-91694000D03*
%TD*%
%TO.P,D10,1*%
%TO.N,/Qin*%
X166116000Y-88138000D03*
D24*
%TO.P,D10,2*%
%TO.N,Net-(D10-Pad2)*%
X166116000Y-95758000D03*
%TD*%
D25*
%TO.P,D9,1*%
%TO.N,/Qin*%
X163322000Y-88392000D03*
D24*
%TO.P,D9,2*%
%TO.N,Net-(D9-Pad2)*%
X155702000Y-88392000D03*
%TD*%
%TO.P,D14,2*%
%TO.N,Net-(D13-Pad1)*%
X156972000Y-104394000D03*
D25*
%TO.P,D14,1*%
%TO.N,/Qin*%
X164592000Y-104394000D03*
%TD*%
%TA.AperFunction,ComponentPad*%
D22*
%TO.P,D13,1*%
%TO.N,Net-(D13-Pad1)*%
G36*
X152101340Y-107950000D02*
G01*
X153162000Y-106889340D01*
X154222660Y-107950000D01*
X153162000Y-109010660D01*
X152101340Y-107950000D01*
G37*
%TD.AperFunction*%
%TO.P,D13,2*%
%TO.N,Net-(D13-Pad2)*%
%TA.AperFunction,ComponentPad*%
G36*
G01*
X158019824Y-112807824D02*
X158019824Y-112807824D01*
G75*
G02*
X159080484Y-112807824I530330J-530330D01*
G01*
X159080484Y-112807824D01*
G75*
G02*
X159080484Y-113868484I-530330J-530330D01*
G01*
X159080484Y-113868484D01*
G75*
G02*
X158019824Y-113868484I-530330J530330D01*
G01*
X158019824Y-113868484D01*
G75*
G02*
X158019824Y-112807824I530330J530330D01*
G01*
G37*
%TD.AperFunction*%
%TD*%
D10*
%TO.P,R4,2*%
%TO.N,Net-(Q4-Pad3)*%
X131318000Y-113284000D03*
D11*
%TO.P,R4,1*%
%TO.N,Earth*%
X146558000Y-113284000D03*
%TD*%
D29*
%TO.P,D4,2*%
%TO.N,Net-(C1-Pad1)*%
X113030000Y-128270000D03*
D30*
%TO.P,D4,1*%
%TO.N,Net-(D4-Pad1)*%
X113030000Y-118110000D03*
%TD*%
D31*
%TO.P,LED1,2*%
%TO.N,Net-(LED1-Pad2)*%
X49530000Y-115824000D03*
D32*
%TO.P,LED1,1*%
%TO.N,Earth*%
X52070000Y-115824000D03*
%TD*%
D31*
%TO.P,LED2,2*%
%TO.N,Net-(LED2-Pad2)*%
X46228000Y-86868000D03*
D32*
%TO.P,LED2,1*%
%TO.N,Earth*%
X46228000Y-89408000D03*
%TD*%
D33*
%TO.P,Q2,3*%
%TO.N,Net-(C2-Pad2)*%
X57404000Y-139192000D03*
%TO.P,Q2,2*%
%TO.N,OPTO_2*%
X59944000Y-136652000D03*
D34*
%TO.P,Q2,1*%
%TO.N,Net-(C2-Pad2)*%
X62484000Y-139192000D03*
%TD*%
D33*
%TO.P,Q1,3*%
%TO.N,358IN*%
X157988000Y-138176000D03*
%TO.P,Q1,2*%
%TO.N,Net-(C1-Pad2)*%
X160528000Y-135636000D03*
D34*
%TO.P,Q1,1*%
%TO.N,358IN*%
X163068000Y-138176000D03*
%TD*%
D29*
%TO.P,D1,2*%
%TO.N,Net-(C4-Pad1)*%
X176784000Y-122682000D03*
D30*
%TO.P,D1,1*%
%TO.N,358IN*%
X176784000Y-132842000D03*
%TD*%
D29*
%TO.P,D6,2*%
%TO.N,Net-(C18-Pad1)*%
X104775000Y-92075000D03*
D30*
%TO.P,D6,1*%
%TO.N,Net-(D6-Pad1)*%
X104775000Y-102235000D03*
%TD*%
D16*
%TO.P,R42,2*%
%TO.N,Net-(C8-Pad1)*%
X177800000Y-104394000D03*
D14*
%TO.P,R42,1*%
%TO.N,Net-(R42-Pad1)*%
X177800000Y-114554000D03*
%TD*%
D35*
%TO.P,J1,3*%
%TO.N,Net-(J1-Pad3)*%
X183388000Y-137668000D03*
%TO.P,J1,2*%
%TO.N,358IN*%
X183388000Y-132588000D03*
D36*
%TO.P,J1,1*%
%TO.N,Earth*%
X183388000Y-127508000D03*
%TD*%
D10*
%TO.P,R2,2*%
%TO.N,Net-(C2-Pad1)*%
X70485000Y-128905000D03*
D11*
%TO.P,R2,1*%
%TO.N,OPTO_2*%
X55245000Y-128905000D03*
%TD*%
%TO.P,L1,2*%
%TO.N,48V*%
X45933068Y-110022932D03*
%TO.P,L1,1*%
%TO.N,OPTO_2*%
X38862000Y-117094000D03*
%TD*%
%TO.P,L2,2*%
%TO.N,Net-(C8-Pad1)*%
X181356000Y-85250000D03*
%TO.P,L2,1*%
%TO.N,Net-(D3-Pad2)*%
X181356000Y-95250000D03*
%TD*%
D37*
%TO.P,U6,5*%
%TO.N,Earth*%
X189680000Y-107696000D03*
%TO.P,U6,4*%
%TO.N,Net-(C8-Pad1)*%
X187980000Y-103996000D03*
%TO.P,U6,3*%
%TO.N,Earth*%
X186280000Y-107696000D03*
%TO.P,U6,2*%
%TO.N,Net-(D3-Pad2)*%
X184580000Y-103996000D03*
D32*
%TO.P,U6,1*%
%TO.N,Net-(C4-Pad1)*%
X182880000Y-107696000D03*
%TD*%
D14*
%TO.P,C8,2*%
%TO.N,Earth*%
X170688000Y-81868000D03*
D15*
%TO.P,C8,1*%
%TO.N,Net-(C8-Pad1)*%
X170688000Y-86868000D03*
%TD*%
D16*
%TO.P,R45,2*%
%TO.N,Net-(D10-Pad2)*%
X170942000Y-92456000D03*
D14*
%TO.P,R45,1*%
%TO.N,/INPUTB*%
X170942000Y-102616000D03*
%TD*%
D16*
%TO.P,R27,2*%
%TO.N,Net-(R14-Pad2)*%
X142240000Y-94742000D03*
D14*
%TO.P,R27,1*%
%TO.N,Net-(C14-Pad2)*%
X132080000Y-94742000D03*
%TD*%
%TO.P,C3,2*%
%TO.N,Earth*%
X122428000Y-96480000D03*
D15*
%TO.P,C3,1*%
%TO.N,Net-(C3-Pad1)*%
X122428000Y-93980000D03*
%TD*%
D16*
%TO.P,R46,2*%
%TO.N,Net-(Q5-Pad2)*%
X163068000Y-119634000D03*
D14*
%TO.P,R46,1*%
%TO.N,Net-(R42-Pad1)*%
X173228000Y-119634000D03*
%TD*%
D16*
%TO.P,R47,2*%
%TO.N,Net-(R42-Pad1)*%
X173228000Y-122682000D03*
D14*
%TO.P,R47,1*%
%TO.N,Net-(Q3-Pad3)*%
X163068000Y-122682000D03*
%TD*%
D16*
%TO.P,R12,2*%
%TO.N,Net-(LED2-Pad2)*%
X50546000Y-82296000D03*
D14*
%TO.P,R12,1*%
%TO.N,5V*%
X50546000Y-92456000D03*
%TD*%
%TO.P,C16,2*%
%TO.N,Earth*%
X59650000Y-90932000D03*
D15*
%TO.P,C16,1*%
%TO.N,5V*%
X57150000Y-90932000D03*
%TD*%
D26*
%TO.P,C12,2*%
%TO.N,Net-(C12-Pad2)*%
X68580000Y-80130000D03*
%TO.P,C12,1*%
%TO.N,Net-(C12-Pad1)*%
X68580000Y-87630000D03*
%TD*%
D16*
%TO.P,R14,2*%
%TO.N,Net-(R14-Pad2)*%
X143002000Y-98044000D03*
D14*
%TO.P,R14,1*%
%TO.N,Net-(R14-Pad1)*%
X143002000Y-108204000D03*
%TD*%
D16*
%TO.P,R29,2*%
%TO.N,Net-(R29-Pad2)*%
X150114000Y-106680000D03*
D14*
%TO.P,R29,1*%
%TO.N,Net-(R29-Pad1)*%
X150114000Y-96520000D03*
%TD*%
D16*
%TO.P,R28,2*%
%TO.N,Net-(R28-Pad2)*%
X151384000Y-93980000D03*
D14*
%TO.P,R28,1*%
%TO.N,Net-(R28-Pad1)*%
X151384000Y-83820000D03*
%TD*%
D16*
%TO.P,R20,2*%
%TO.N,Net-(C12-Pad2)*%
X88265000Y-97155000D03*
D14*
%TO.P,R20,1*%
%TO.N,Net-(C13-Pad1)*%
X78105000Y-97155000D03*
%TD*%
D16*
%TO.P,R18,2*%
%TO.N,Net-(Q4-Pad3)*%
X113030000Y-98552000D03*
D14*
%TO.P,R18,1*%
%TO.N,Net-(C15-Pad2)*%
X113030000Y-88392000D03*
%TD*%
D16*
%TO.P,R5,2*%
%TO.N,TO_FB1*%
X118618000Y-111760000D03*
D14*
%TO.P,R5,1*%
%TO.N,Net-(C18-Pad1)*%
X118618000Y-101600000D03*
%TD*%
D16*
%TO.P,R16,2*%
%TO.N,Net-(C12-Pad2)*%
X90424000Y-89408000D03*
D14*
%TO.P,R16,1*%
%TO.N,Net-(D5-Pad2)*%
X90424000Y-79248000D03*
%TD*%
D16*
%TO.P,R17,2*%
%TO.N,Net-(C12-Pad1)*%
X73660000Y-90170000D03*
D14*
%TO.P,R17,1*%
%TO.N,Net-(C12-Pad2)*%
X73660000Y-80010000D03*
%TD*%
D11*
%TO.P,C19,2*%
%TO.N,Earth*%
X49499301Y-125760699D03*
%TA.AperFunction,ComponentPad*%
D22*
%TO.P,C19,1*%
%TO.N,OPTO_2*%
G36*
X44196000Y-132761056D02*
G01*
X42498944Y-131064000D01*
X44196000Y-129366944D01*
X45893056Y-131064000D01*
X44196000Y-132761056D01*
G37*
%TD.AperFunction*%
%TD*%
D26*
%TO.P,C1,2*%
%TO.N,Net-(C1-Pad2)*%
X116205000Y-140850000D03*
%TO.P,C1,1*%
%TO.N,Net-(C1-Pad1)*%
X116205000Y-133350000D03*
%TD*%
%TO.P,C2,1*%
%TO.N,Net-(C2-Pad1)*%
X76835000Y-133096000D03*
%TO.P,C2,2*%
%TO.N,Net-(C2-Pad2)*%
X76835000Y-140596000D03*
%TD*%
%TO.P,C5,2*%
%TO.N,Earth*%
X139446000Y-127628000D03*
D27*
%TO.P,C5,1*%
%TO.N,Net-(C1-Pad2)*%
X139446000Y-135128000D03*
%TD*%
D26*
%TO.P,C10,1*%
%TO.N,Earth*%
X93980000Y-102235000D03*
%TO.P,C10,2*%
X101480000Y-102235000D03*
%TD*%
%TO.P,C13,2*%
%TO.N,Net-(C12-Pad1)*%
X72390000Y-93465000D03*
%TO.P,C13,1*%
%TO.N,Net-(C13-Pad1)*%
X72390000Y-100965000D03*
%TD*%
D24*
%TO.P,D5,2*%
%TO.N,Net-(D5-Pad2)*%
X86868000Y-79248000D03*
D25*
%TO.P,D5,1*%
%TO.N,Net-(D11-Pad2)*%
X86868000Y-86868000D03*
%TD*%
%TO.P,D11,1*%
%TO.N,Net-(D11-Pad1)*%
X80010000Y-100965000D03*
D24*
%TO.P,D11,2*%
%TO.N,Net-(D11-Pad2)*%
X87630000Y-100965000D03*
%TD*%
%TO.P,J3,1*%
%TO.N,Earth*%
%TA.AperFunction,ComponentPad*%
G36*
G01*
X165335000Y-82339999D02*
X165335000Y-84030001D01*
G75*
G02*
X165085001Y-84280000I-249999J0D01*
G01*
X163844999Y-84280000D01*
G75*
G02*
X163595000Y-84030001I0J249999D01*
G01*
X163595000Y-82339999D01*
G75*
G02*
X163844999Y-82090000I249999J0D01*
G01*
X165085001Y-82090000D01*
G75*
G02*
X165335000Y-82339999I0J-249999D01*
G01*
G37*
%TD.AperFunction*%
D38*
%TO.P,J3,2*%
%TO.N,Net-(J3-Pad2)*%
X161925000Y-83185000D03*
%TD*%
D39*
%TO.P,Q3,3*%
%TO.N,Net-(Q3-Pad3)*%
X163830000Y-114554000D03*
%TO.P,Q3,2*%
%TO.N,Net-(D13-Pad2)*%
X165100000Y-113284000D03*
D40*
%TO.P,Q3,1*%
%TO.N,Earth*%
X166370000Y-114554000D03*
%TD*%
D41*
%TO.P,Q4,1*%
%TO.N,Net-(D2-Pad1)*%
X113284000Y-109855000D03*
D42*
%TO.P,Q4,2*%
%TO.N,Net-(D4-Pad1)*%
X113284000Y-107315000D03*
%TO.P,Q4,3*%
%TO.N,Net-(Q4-Pad3)*%
X113284000Y-104775000D03*
%TD*%
D43*
%TO.P,Q5,1*%
%TO.N,Earth*%
X153924000Y-122174000D03*
D39*
%TO.P,Q5,2*%
%TO.N,Net-(Q5-Pad2)*%
X155194000Y-120904000D03*
%TO.P,Q5,3*%
%TO.N,OPTO_POS+*%
X153924000Y-119634000D03*
%TD*%
D14*
%TO.P,R3,1*%
%TO.N,Net-(C1-Pad2)*%
X128905000Y-144145000D03*
D16*
%TO.P,R3,2*%
%TO.N,TO_FB1*%
X128905000Y-128905000D03*
%TD*%
D15*
%TO.P,U1,1*%
%TO.N,Net-(D5-Pad2)*%
X93980000Y-86868000D03*
D16*
%TO.P,U1,3*%
%TO.N,Earth*%
X101600000Y-89408000D03*
%TO.P,U1,2*%
%TO.N,Net-(C12-Pad2)*%
X93980000Y-89408000D03*
%TO.P,U1,4*%
%TO.N,OPTO_POS+*%
X101600000Y-86868000D03*
%TD*%
D15*
%TO.P,U2,1*%
%TO.N,OPTO_POS+*%
X138938000Y-99568000D03*
D16*
%TO.P,U2,5*%
%TO.N,Earth*%
X131318000Y-107188000D03*
%TO.P,U2,2*%
X136398000Y-99568000D03*
%TO.P,U2,6*%
%TO.N,Net-(D2-Pad2)*%
X133858000Y-107188000D03*
%TO.P,U2,3*%
%TO.N,Net-(C15-Pad2)*%
X133858000Y-99568000D03*
%TO.P,U2,7*%
%TO.N,TO_FB1*%
X136398000Y-107188000D03*
%TO.P,U2,4*%
%TO.N,Net-(C14-Pad2)*%
X131318000Y-99568000D03*
%TO.P,U2,8*%
%TO.N,Net-(R14-Pad1)*%
X138938000Y-107188000D03*
%TD*%
D44*
%TO.P,U3,2*%
%TO.N,Earth*%
X78740000Y-83820000D03*
%TO.P,U3,3*%
X80010000Y-82550000D03*
D45*
%TO.P,U3,1*%
%TO.N,Net-(C12-Pad2)*%
X80010000Y-85090000D03*
%TD*%
D34*
%TO.P,U4,1*%
%TO.N,Net-(C20-Pad1)*%
X61468000Y-82804000D03*
D33*
%TO.P,U4,2*%
%TO.N,Earth*%
X58928000Y-82804000D03*
%TO.P,U4,3*%
%TO.N,5V*%
X56388000Y-82804000D03*
%TD*%
D16*
%TO.P,U5,8*%
%TO.N,Net-(C8-Pad1)*%
X163068000Y-91186000D03*
%TO.P,U5,4*%
%TO.N,Earth*%
X155448000Y-98806000D03*
%TO.P,U5,7*%
%TO.N,Net-(D10-Pad2)*%
X163068000Y-93726000D03*
%TO.P,U5,3*%
%TO.N,Net-(R29-Pad1)*%
X155448000Y-96266000D03*
%TO.P,U5,6*%
%TO.N,Net-(R37-Pad1)*%
X163068000Y-96266000D03*
%TO.P,U5,2*%
%TO.N,Net-(R28-Pad2)*%
X155448000Y-93726000D03*
%TO.P,U5,5*%
%TO.N,/INPUTB*%
X163068000Y-98806000D03*
D15*
%TO.P,U5,1*%
%TO.N,Net-(D9-Pad2)*%
X155448000Y-91186000D03*
%TD*%
D46*
%TO.N,*%
X150622000Y-125730000D03*
%TD*%
M02*
