%TF.GenerationSoftware,KiCad,Pcbnew,(5.1.6)-1*%
%TF.CreationDate,2021-01-03T22:36:31+05:30*%
%TF.ProjectId,supplyboard,73757070-6c79-4626-9f61-72642e6b6963,rev?*%
%TF.SameCoordinates,Original*%
%TF.FileFunction,Legend,Top*%
%TF.FilePolarity,Positive*%
%FSLAX46Y46*%
G04 Gerber Fmt 4.6, Leading zero omitted, Abs format (unit mm)*
G04 Created by KiCad (PCBNEW (5.1.6)-1) date 2021-01-03 22:36:31*
%MOMM*%
%LPD*%
G01*
G04 APERTURE LIST*
%ADD10C,0.120000*%
%ADD11C,0.150000*%
%ADD12C,0.010000*%
%ADD13C,0.254000*%
G04 APERTURE END LIST*
D10*
X167005000Y-137795000D02*
X167005000Y-151130000D01*
D11*
X190134761Y-139112142D02*
X188134761Y-139112142D01*
X190134761Y-138159761D02*
X188134761Y-138159761D01*
X190134761Y-137016904D01*
X188134761Y-137016904D01*
X190134761Y-136064523D02*
X188134761Y-136064523D01*
X188134761Y-135302619D01*
X188230000Y-135112142D01*
X188325238Y-135016904D01*
X188515714Y-134921666D01*
X188801428Y-134921666D01*
X188991904Y-135016904D01*
X189087142Y-135112142D01*
X189182380Y-135302619D01*
X189182380Y-136064523D01*
X188134761Y-134064523D02*
X189753809Y-134064523D01*
X189944285Y-133969285D01*
X190039523Y-133874047D01*
X190134761Y-133683571D01*
X190134761Y-133302619D01*
X190039523Y-133112142D01*
X189944285Y-133016904D01*
X189753809Y-132921666D01*
X188134761Y-132921666D01*
X188134761Y-132255000D02*
X188134761Y-131112142D01*
X190134761Y-131683571D02*
X188134761Y-131683571D01*
X36758571Y-101124047D02*
X36758571Y-101885952D01*
X37044285Y-102790714D02*
X36377619Y-102790714D01*
X37425238Y-102552619D02*
X36710952Y-102314523D01*
X36710952Y-102933571D01*
X36949047Y-103457380D02*
X36996666Y-103362142D01*
X37044285Y-103314523D01*
X37139523Y-103266904D01*
X37187142Y-103266904D01*
X37282380Y-103314523D01*
X37330000Y-103362142D01*
X37377619Y-103457380D01*
X37377619Y-103647857D01*
X37330000Y-103743095D01*
X37282380Y-103790714D01*
X37187142Y-103838333D01*
X37139523Y-103838333D01*
X37044285Y-103790714D01*
X36996666Y-103743095D01*
X36949047Y-103647857D01*
X36949047Y-103457380D01*
X36901428Y-103362142D01*
X36853809Y-103314523D01*
X36758571Y-103266904D01*
X36568095Y-103266904D01*
X36472857Y-103314523D01*
X36425238Y-103362142D01*
X36377619Y-103457380D01*
X36377619Y-103647857D01*
X36425238Y-103743095D01*
X36472857Y-103790714D01*
X36568095Y-103838333D01*
X36758571Y-103838333D01*
X36853809Y-103790714D01*
X36901428Y-103743095D01*
X36949047Y-103647857D01*
X37377619Y-104124047D02*
X36377619Y-104457380D01*
X37377619Y-104790714D01*
X36758571Y-105124047D02*
X36758571Y-105885952D01*
X36377619Y-105505000D02*
X37139523Y-105505000D01*
X36758571Y-95250238D02*
X36758571Y-96012142D01*
X37377619Y-96964523D02*
X37377619Y-96488333D01*
X36901428Y-96440714D01*
X36949047Y-96488333D01*
X36996666Y-96583571D01*
X36996666Y-96821666D01*
X36949047Y-96916904D01*
X36901428Y-96964523D01*
X36806190Y-97012142D01*
X36568095Y-97012142D01*
X36472857Y-96964523D01*
X36425238Y-96916904D01*
X36377619Y-96821666D01*
X36377619Y-96583571D01*
X36425238Y-96488333D01*
X36472857Y-96440714D01*
X37377619Y-97297857D02*
X36377619Y-97631190D01*
X37377619Y-97964523D01*
X36758571Y-98297857D02*
X36758571Y-99059761D01*
X36377619Y-98678809D02*
X37139523Y-98678809D01*
D10*
X96520000Y-77470000D02*
X96774000Y-77470000D01*
X98552000Y-77470000D02*
X98298000Y-77470000D01*
X98044000Y-77470000D02*
X98552000Y-77470000D01*
X98044000Y-77470000D02*
X97790000Y-77470000D01*
X98298000Y-152400000D02*
X98552000Y-152400000D01*
X109474000Y-77470000D02*
X109474000Y-152400000D01*
X108966000Y-77470000D02*
X109474000Y-77470000D01*
X108966000Y-152400000D02*
X108966000Y-77470000D01*
X198120000Y-152400000D02*
X35560000Y-152400000D01*
X198120000Y-77470000D02*
X196850000Y-77470000D01*
X35560000Y-77470000D02*
X196850000Y-77470000D01*
X35560000Y-152400000D02*
X35560000Y-77470000D01*
%TO.C,R6*%
X121270000Y-143500000D02*
X125110000Y-143500000D01*
X125110000Y-143500000D02*
X125110000Y-133360000D01*
X125110000Y-133360000D02*
X121270000Y-133360000D01*
X121270000Y-133360000D02*
X121270000Y-143500000D01*
X123190000Y-144610000D02*
X123190000Y-143500000D01*
X123190000Y-132250000D02*
X123190000Y-133360000D01*
%TO.C,D8*%
X68400000Y-118535000D02*
X73840000Y-118535000D01*
X73840000Y-118535000D02*
X73840000Y-108795000D01*
X73840000Y-108795000D02*
X68400000Y-108795000D01*
X68400000Y-108795000D02*
X68400000Y-118535000D01*
X71120000Y-119445000D02*
X71120000Y-118535000D01*
X71120000Y-107885000D02*
X71120000Y-108795000D01*
X68400000Y-110617000D02*
X73840000Y-110617000D01*
X68400000Y-110617000D02*
X73840000Y-110617000D01*
X68400000Y-110760000D02*
X73840000Y-110760000D01*
D12*
%TO.C,*%
G36*
X160692746Y-125692912D02*
G01*
X161094961Y-125784504D01*
X161322564Y-125885173D01*
X161758278Y-126192773D01*
X162080294Y-126545807D01*
X162285218Y-126935319D01*
X162369654Y-127352353D01*
X162330208Y-127787956D01*
X162191444Y-128177210D01*
X162088307Y-128374505D01*
X162004402Y-128505146D01*
X161968901Y-128536884D01*
X161911077Y-128482112D01*
X161793750Y-128334152D01*
X161635662Y-128117533D01*
X161504845Y-127929492D01*
X161277463Y-127594979D01*
X161029768Y-127228271D01*
X160804064Y-126892063D01*
X160734853Y-126788333D01*
X160574183Y-126553159D01*
X160441794Y-126370872D01*
X160357319Y-126267975D01*
X160339476Y-126254565D01*
X160271266Y-126309732D01*
X160126919Y-126469458D01*
X159913576Y-126725077D01*
X159638376Y-127067926D01*
X159308459Y-127489339D01*
X159110744Y-127745636D01*
X158900878Y-128014493D01*
X158720318Y-128237467D01*
X158586533Y-128393588D01*
X158516988Y-128461884D01*
X158513036Y-128463261D01*
X158426337Y-128401346D01*
X158318301Y-128243942D01*
X158213030Y-128033554D01*
X158134623Y-127812689D01*
X158126885Y-127782192D01*
X158092012Y-127368753D01*
X158175384Y-126962579D01*
X158365376Y-126582277D01*
X158650363Y-126246454D01*
X159018720Y-125973716D01*
X159354327Y-125817507D01*
X159781834Y-125708018D01*
X160241505Y-125666951D01*
X160692746Y-125692912D01*
G37*
X160692746Y-125692912D02*
X161094961Y-125784504D01*
X161322564Y-125885173D01*
X161758278Y-126192773D01*
X162080294Y-126545807D01*
X162285218Y-126935319D01*
X162369654Y-127352353D01*
X162330208Y-127787956D01*
X162191444Y-128177210D01*
X162088307Y-128374505D01*
X162004402Y-128505146D01*
X161968901Y-128536884D01*
X161911077Y-128482112D01*
X161793750Y-128334152D01*
X161635662Y-128117533D01*
X161504845Y-127929492D01*
X161277463Y-127594979D01*
X161029768Y-127228271D01*
X160804064Y-126892063D01*
X160734853Y-126788333D01*
X160574183Y-126553159D01*
X160441794Y-126370872D01*
X160357319Y-126267975D01*
X160339476Y-126254565D01*
X160271266Y-126309732D01*
X160126919Y-126469458D01*
X159913576Y-126725077D01*
X159638376Y-127067926D01*
X159308459Y-127489339D01*
X159110744Y-127745636D01*
X158900878Y-128014493D01*
X158720318Y-128237467D01*
X158586533Y-128393588D01*
X158516988Y-128461884D01*
X158513036Y-128463261D01*
X158426337Y-128401346D01*
X158318301Y-128243942D01*
X158213030Y-128033554D01*
X158134623Y-127812689D01*
X158126885Y-127782192D01*
X158092012Y-127368753D01*
X158175384Y-126962579D01*
X158365376Y-126582277D01*
X158650363Y-126246454D01*
X159018720Y-125973716D01*
X159354327Y-125817507D01*
X159781834Y-125708018D01*
X160241505Y-125666951D01*
X160692746Y-125692912D01*
G36*
X160706154Y-127874275D02*
G01*
X160785663Y-128234436D01*
X160852786Y-128539107D01*
X160901746Y-128762018D01*
X160926766Y-128876899D01*
X160928780Y-128886594D01*
X160881939Y-128902960D01*
X160761244Y-128879693D01*
X160622436Y-128829082D01*
X160562226Y-128795109D01*
X160521457Y-128740816D01*
X160496552Y-128640696D01*
X160483938Y-128469243D01*
X160480040Y-128200951D01*
X160481221Y-127821430D01*
X160486544Y-126880362D01*
X160706154Y-127874275D01*
G37*
X160706154Y-127874275D02*
X160785663Y-128234436D01*
X160852786Y-128539107D01*
X160901746Y-128762018D01*
X160926766Y-128876899D01*
X160928780Y-128886594D01*
X160881939Y-128902960D01*
X160761244Y-128879693D01*
X160622436Y-128829082D01*
X160562226Y-128795109D01*
X160521457Y-128740816D01*
X160496552Y-128640696D01*
X160483938Y-128469243D01*
X160480040Y-128200951D01*
X160481221Y-127821430D01*
X160486544Y-126880362D01*
X160706154Y-127874275D01*
G36*
X160191265Y-126822052D02*
G01*
X160134639Y-126935579D01*
X160064022Y-127065003D01*
X159943078Y-127294012D01*
X159786359Y-127594508D01*
X159608414Y-127938395D01*
X159423795Y-128297574D01*
X159247051Y-128643949D01*
X159124301Y-128886594D01*
X158966812Y-129199492D01*
X159379432Y-129200303D01*
X159649667Y-129206310D01*
X159911002Y-129220937D01*
X160052564Y-129234610D01*
X160203226Y-129251899D01*
X160232243Y-129246526D01*
X160147097Y-129215168D01*
X160117692Y-129205699D01*
X159940605Y-129168791D01*
X159699833Y-129142220D01*
X159547820Y-129134580D01*
X159346584Y-129119342D01*
X159210647Y-129088842D01*
X159173333Y-129058932D01*
X159232349Y-129014229D01*
X159387829Y-128958958D01*
X159607421Y-128904389D01*
X159630892Y-128899559D01*
X159920812Y-128852072D01*
X160159045Y-128847996D01*
X160418752Y-128888761D01*
X160542687Y-128917373D01*
X160755555Y-128969464D01*
X160893800Y-128988686D01*
X160966857Y-128953914D01*
X160984163Y-128844027D01*
X160955156Y-128637901D01*
X160889272Y-128314414D01*
X160864779Y-128196427D01*
X160807865Y-127904071D01*
X160767814Y-127665960D01*
X160750472Y-127518471D01*
X160751534Y-127491680D01*
X160793745Y-127522661D01*
X160894988Y-127654012D01*
X161040306Y-127864919D01*
X161214740Y-128134569D01*
X161223119Y-128147886D01*
X161457525Y-128520462D01*
X161718633Y-128934840D01*
X161967072Y-129328563D01*
X162092187Y-129526548D01*
X162320551Y-129893748D01*
X162472084Y-130152403D01*
X162550613Y-130309588D01*
X162559968Y-130372376D01*
X162550686Y-130374001D01*
X162488056Y-130336592D01*
X162343966Y-130240953D01*
X162147612Y-130106525D01*
X162114752Y-130083727D01*
X161806908Y-129887214D01*
X161461198Y-129694324D01*
X161113497Y-129522596D01*
X160799680Y-129389569D01*
X160555622Y-129312781D01*
X160525930Y-129306970D01*
X160313077Y-129270346D01*
X160541025Y-129374437D01*
X160752746Y-129470410D01*
X160950794Y-129559138D01*
X160957109Y-129561940D01*
X161093109Y-129633569D01*
X161104352Y-129672762D01*
X160990238Y-129679569D01*
X160750164Y-129654037D01*
X160432572Y-129604579D01*
X159761511Y-129539715D01*
X159128781Y-129587009D01*
X158484020Y-129750779D01*
X158403140Y-129778572D01*
X158181507Y-129851547D01*
X158061202Y-129875158D01*
X158021541Y-129851593D01*
X158026913Y-129818410D01*
X158075537Y-129735313D01*
X158191764Y-129559891D01*
X158362494Y-129310542D01*
X158574627Y-129005665D01*
X158815063Y-128663656D01*
X159070703Y-128302914D01*
X159328446Y-127941836D01*
X159575193Y-127598822D01*
X159797844Y-127292267D01*
X159983298Y-127040571D01*
X160118457Y-126862130D01*
X160190220Y-126775344D01*
X160197528Y-126769927D01*
X160191265Y-126822052D01*
G37*
X160191265Y-126822052D02*
X160134639Y-126935579D01*
X160064022Y-127065003D01*
X159943078Y-127294012D01*
X159786359Y-127594508D01*
X159608414Y-127938395D01*
X159423795Y-128297574D01*
X159247051Y-128643949D01*
X159124301Y-128886594D01*
X158966812Y-129199492D01*
X159379432Y-129200303D01*
X159649667Y-129206310D01*
X159911002Y-129220937D01*
X160052564Y-129234610D01*
X160203226Y-129251899D01*
X160232243Y-129246526D01*
X160147097Y-129215168D01*
X160117692Y-129205699D01*
X159940605Y-129168791D01*
X159699833Y-129142220D01*
X159547820Y-129134580D01*
X159346584Y-129119342D01*
X159210647Y-129088842D01*
X159173333Y-129058932D01*
X159232349Y-129014229D01*
X159387829Y-128958958D01*
X159607421Y-128904389D01*
X159630892Y-128899559D01*
X159920812Y-128852072D01*
X160159045Y-128847996D01*
X160418752Y-128888761D01*
X160542687Y-128917373D01*
X160755555Y-128969464D01*
X160893800Y-128988686D01*
X160966857Y-128953914D01*
X160984163Y-128844027D01*
X160955156Y-128637901D01*
X160889272Y-128314414D01*
X160864779Y-128196427D01*
X160807865Y-127904071D01*
X160767814Y-127665960D01*
X160750472Y-127518471D01*
X160751534Y-127491680D01*
X160793745Y-127522661D01*
X160894988Y-127654012D01*
X161040306Y-127864919D01*
X161214740Y-128134569D01*
X161223119Y-128147886D01*
X161457525Y-128520462D01*
X161718633Y-128934840D01*
X161967072Y-129328563D01*
X162092187Y-129526548D01*
X162320551Y-129893748D01*
X162472084Y-130152403D01*
X162550613Y-130309588D01*
X162559968Y-130372376D01*
X162550686Y-130374001D01*
X162488056Y-130336592D01*
X162343966Y-130240953D01*
X162147612Y-130106525D01*
X162114752Y-130083727D01*
X161806908Y-129887214D01*
X161461198Y-129694324D01*
X161113497Y-129522596D01*
X160799680Y-129389569D01*
X160555622Y-129312781D01*
X160525930Y-129306970D01*
X160313077Y-129270346D01*
X160541025Y-129374437D01*
X160752746Y-129470410D01*
X160950794Y-129559138D01*
X160957109Y-129561940D01*
X161093109Y-129633569D01*
X161104352Y-129672762D01*
X160990238Y-129679569D01*
X160750164Y-129654037D01*
X160432572Y-129604579D01*
X159761511Y-129539715D01*
X159128781Y-129587009D01*
X158484020Y-129750779D01*
X158403140Y-129778572D01*
X158181507Y-129851547D01*
X158061202Y-129875158D01*
X158021541Y-129851593D01*
X158026913Y-129818410D01*
X158075537Y-129735313D01*
X158191764Y-129559891D01*
X158362494Y-129310542D01*
X158574627Y-129005665D01*
X158815063Y-128663656D01*
X159070703Y-128302914D01*
X159328446Y-127941836D01*
X159575193Y-127598822D01*
X159797844Y-127292267D01*
X159983298Y-127040571D01*
X160118457Y-126862130D01*
X160190220Y-126775344D01*
X160197528Y-126769927D01*
X160191265Y-126822052D01*
G36*
X163804257Y-130677158D02*
G01*
X163964694Y-130696031D01*
X164041362Y-130733477D01*
X164057949Y-130782391D01*
X164042471Y-130875569D01*
X163976847Y-130874356D01*
X163859693Y-130800797D01*
X163747922Y-130745696D01*
X163682685Y-130791972D01*
X163677672Y-130800720D01*
X163649339Y-130932913D01*
X163641137Y-131149344D01*
X163653131Y-131388761D01*
X163676886Y-131553687D01*
X163641801Y-131651237D01*
X163553205Y-131687648D01*
X163437411Y-131684839D01*
X163401333Y-131652584D01*
X163400042Y-131550900D01*
X163402278Y-131351291D01*
X163405939Y-131168913D01*
X163404383Y-130920840D01*
X163380791Y-130789711D01*
X163329058Y-130746329D01*
X163317425Y-130745579D01*
X163204574Y-130788461D01*
X163178718Y-130819203D01*
X163095271Y-130890302D01*
X163027136Y-130845253D01*
X163015897Y-130782391D01*
X163040438Y-130725728D01*
X163129478Y-130691722D01*
X163306147Y-130675472D01*
X163536923Y-130671956D01*
X163804257Y-130677158D01*
G37*
X163804257Y-130677158D02*
X163964694Y-130696031D01*
X164041362Y-130733477D01*
X164057949Y-130782391D01*
X164042471Y-130875569D01*
X163976847Y-130874356D01*
X163859693Y-130800797D01*
X163747922Y-130745696D01*
X163682685Y-130791972D01*
X163677672Y-130800720D01*
X163649339Y-130932913D01*
X163641137Y-131149344D01*
X163653131Y-131388761D01*
X163676886Y-131553687D01*
X163641801Y-131651237D01*
X163553205Y-131687648D01*
X163437411Y-131684839D01*
X163401333Y-131652584D01*
X163400042Y-131550900D01*
X163402278Y-131351291D01*
X163405939Y-131168913D01*
X163404383Y-130920840D01*
X163380791Y-130789711D01*
X163329058Y-130746329D01*
X163317425Y-130745579D01*
X163204574Y-130788461D01*
X163178718Y-130819203D01*
X163095271Y-130890302D01*
X163027136Y-130845253D01*
X163015897Y-130782391D01*
X163040438Y-130725728D01*
X163129478Y-130691722D01*
X163306147Y-130675472D01*
X163536923Y-130671956D01*
X163804257Y-130677158D01*
G36*
X162054362Y-130718313D02*
G01*
X162245619Y-130869814D01*
X162333799Y-130964027D01*
X162483686Y-131124523D01*
X162598427Y-131231639D01*
X162641410Y-131258520D01*
X162680375Y-131199736D01*
X162690768Y-131057432D01*
X162676173Y-130890777D01*
X162640173Y-130758940D01*
X162608846Y-130720715D01*
X162610038Y-130695800D01*
X162714760Y-130680396D01*
X162755384Y-130678896D01*
X162884810Y-130688891D01*
X162915962Y-130720096D01*
X162905409Y-130730210D01*
X162861385Y-130828509D01*
X162825396Y-131027688D01*
X162807717Y-131242044D01*
X162787949Y-131697878D01*
X162403846Y-131316531D01*
X162019744Y-130935183D01*
X162052363Y-131318932D01*
X162065487Y-131545918D01*
X162050313Y-131661834D01*
X161999972Y-131700854D01*
X161975209Y-131702681D01*
X161913766Y-131681969D01*
X161886624Y-131597740D01*
X161887491Y-131416857D01*
X161896023Y-131285754D01*
X161906556Y-131032870D01*
X161886537Y-130881740D01*
X161828558Y-130789210D01*
X161807523Y-130770391D01*
X161737245Y-130701857D01*
X161769789Y-130675752D01*
X161881736Y-130671956D01*
X162054362Y-130718313D01*
G37*
X162054362Y-130718313D02*
X162245619Y-130869814D01*
X162333799Y-130964027D01*
X162483686Y-131124523D01*
X162598427Y-131231639D01*
X162641410Y-131258520D01*
X162680375Y-131199736D01*
X162690768Y-131057432D01*
X162676173Y-130890777D01*
X162640173Y-130758940D01*
X162608846Y-130720715D01*
X162610038Y-130695800D01*
X162714760Y-130680396D01*
X162755384Y-130678896D01*
X162884810Y-130688891D01*
X162915962Y-130720096D01*
X162905409Y-130730210D01*
X162861385Y-130828509D01*
X162825396Y-131027688D01*
X162807717Y-131242044D01*
X162787949Y-131697878D01*
X162403846Y-131316531D01*
X162019744Y-130935183D01*
X162052363Y-131318932D01*
X162065487Y-131545918D01*
X162050313Y-131661834D01*
X161999972Y-131700854D01*
X161975209Y-131702681D01*
X161913766Y-131681969D01*
X161886624Y-131597740D01*
X161887491Y-131416857D01*
X161896023Y-131285754D01*
X161906556Y-131032870D01*
X161886537Y-130881740D01*
X161828558Y-130789210D01*
X161807523Y-130770391D01*
X161737245Y-130701857D01*
X161769789Y-130675752D01*
X161881736Y-130671956D01*
X162054362Y-130718313D01*
G36*
X161150318Y-130732071D02*
G01*
X161256677Y-130889759D01*
X161375774Y-131111037D01*
X161377068Y-131113695D01*
X161492911Y-131334991D01*
X161591564Y-131493472D01*
X161651986Y-131555412D01*
X161652614Y-131555435D01*
X161710987Y-131612207D01*
X161713333Y-131633722D01*
X161656682Y-131681427D01*
X161516127Y-131690345D01*
X161501667Y-131688940D01*
X161348361Y-131648530D01*
X161292414Y-131557044D01*
X161290000Y-131518623D01*
X161261972Y-131415801D01*
X161156089Y-131364098D01*
X161045769Y-131348526D01*
X160872563Y-131350815D01*
X160797751Y-131420211D01*
X160793953Y-131585528D01*
X160796677Y-131610652D01*
X160751481Y-131684370D01*
X160674137Y-131702681D01*
X160566582Y-131691173D01*
X160541025Y-131674789D01*
X160572058Y-131602525D01*
X160653459Y-131439701D01*
X160767681Y-131221404D01*
X160768974Y-131218975D01*
X160807202Y-131144486D01*
X160957391Y-131144486D01*
X160962001Y-131237556D01*
X161055083Y-131260942D01*
X161164689Y-131235092D01*
X161192308Y-131196333D01*
X161147749Y-131100384D01*
X161094615Y-131040072D01*
X161015451Y-130982353D01*
X160996923Y-130988224D01*
X160976375Y-131083638D01*
X160957391Y-131144486D01*
X160807202Y-131144486D01*
X160884061Y-130994724D01*
X160966001Y-130819409D01*
X160996923Y-130731505D01*
X161048699Y-130676292D01*
X161079582Y-130671956D01*
X161150318Y-130732071D01*
G37*
X161150318Y-130732071D02*
X161256677Y-130889759D01*
X161375774Y-131111037D01*
X161377068Y-131113695D01*
X161492911Y-131334991D01*
X161591564Y-131493472D01*
X161651986Y-131555412D01*
X161652614Y-131555435D01*
X161710987Y-131612207D01*
X161713333Y-131633722D01*
X161656682Y-131681427D01*
X161516127Y-131690345D01*
X161501667Y-131688940D01*
X161348361Y-131648530D01*
X161292414Y-131557044D01*
X161290000Y-131518623D01*
X161261972Y-131415801D01*
X161156089Y-131364098D01*
X161045769Y-131348526D01*
X160872563Y-131350815D01*
X160797751Y-131420211D01*
X160793953Y-131585528D01*
X160796677Y-131610652D01*
X160751481Y-131684370D01*
X160674137Y-131702681D01*
X160566582Y-131691173D01*
X160541025Y-131674789D01*
X160572058Y-131602525D01*
X160653459Y-131439701D01*
X160767681Y-131221404D01*
X160768974Y-131218975D01*
X160807202Y-131144486D01*
X160957391Y-131144486D01*
X160962001Y-131237556D01*
X161055083Y-131260942D01*
X161164689Y-131235092D01*
X161192308Y-131196333D01*
X161147749Y-131100384D01*
X161094615Y-131040072D01*
X161015451Y-130982353D01*
X160996923Y-130988224D01*
X160976375Y-131083638D01*
X160957391Y-131144486D01*
X160807202Y-131144486D01*
X160884061Y-130994724D01*
X160966001Y-130819409D01*
X160996923Y-130731505D01*
X161048699Y-130676292D01*
X161079582Y-130671956D01*
X161150318Y-130732071D01*
G36*
X159592320Y-130681718D02*
G01*
X159650024Y-130734310D01*
X159646302Y-130867800D01*
X159643123Y-130892826D01*
X159633943Y-131039007D01*
X159681367Y-131100402D01*
X159819638Y-131113608D01*
X159849787Y-131113695D01*
X160007394Y-131100622D01*
X160073222Y-131042431D01*
X160085128Y-130935773D01*
X160055193Y-130784538D01*
X160003718Y-130720715D01*
X160008105Y-130696748D01*
X160115664Y-130680549D01*
X160179564Y-130677769D01*
X160337929Y-130683368D01*
X160384707Y-130715532D01*
X160358666Y-130760304D01*
X160314602Y-130873138D01*
X160288825Y-131058493D01*
X160282156Y-131266158D01*
X160295420Y-131445924D01*
X160329437Y-131547583D01*
X160345641Y-131555435D01*
X160408877Y-131611460D01*
X160410769Y-131629058D01*
X160353293Y-131676647D01*
X160211002Y-131701596D01*
X160169795Y-131702681D01*
X160019244Y-131692696D01*
X159980564Y-131656397D01*
X160006974Y-131614333D01*
X160070069Y-131473303D01*
X160085128Y-131356652D01*
X160065996Y-131242449D01*
X159983815Y-131195154D01*
X159852271Y-131187319D01*
X159698398Y-131196928D01*
X159638880Y-131252739D01*
X159637911Y-131395226D01*
X159640604Y-131426594D01*
X159640494Y-131596225D01*
X159583925Y-131670864D01*
X159515256Y-131689396D01*
X159399270Y-131685192D01*
X159363165Y-131652584D01*
X159361905Y-131550051D01*
X159364645Y-131351801D01*
X159368316Y-131195262D01*
X159357982Y-130907140D01*
X159308686Y-130752054D01*
X159292458Y-130736244D01*
X159280683Y-130693352D01*
X159394007Y-130674033D01*
X159438848Y-130673084D01*
X159592320Y-130681718D01*
G37*
X159592320Y-130681718D02*
X159650024Y-130734310D01*
X159646302Y-130867800D01*
X159643123Y-130892826D01*
X159633943Y-131039007D01*
X159681367Y-131100402D01*
X159819638Y-131113608D01*
X159849787Y-131113695D01*
X160007394Y-131100622D01*
X160073222Y-131042431D01*
X160085128Y-130935773D01*
X160055193Y-130784538D01*
X160003718Y-130720715D01*
X160008105Y-130696748D01*
X160115664Y-130680549D01*
X160179564Y-130677769D01*
X160337929Y-130683368D01*
X160384707Y-130715532D01*
X160358666Y-130760304D01*
X160314602Y-130873138D01*
X160288825Y-131058493D01*
X160282156Y-131266158D01*
X160295420Y-131445924D01*
X160329437Y-131547583D01*
X160345641Y-131555435D01*
X160408877Y-131611460D01*
X160410769Y-131629058D01*
X160353293Y-131676647D01*
X160211002Y-131701596D01*
X160169795Y-131702681D01*
X160019244Y-131692696D01*
X159980564Y-131656397D01*
X160006974Y-131614333D01*
X160070069Y-131473303D01*
X160085128Y-131356652D01*
X160065996Y-131242449D01*
X159983815Y-131195154D01*
X159852271Y-131187319D01*
X159698398Y-131196928D01*
X159638880Y-131252739D01*
X159637911Y-131395226D01*
X159640604Y-131426594D01*
X159640494Y-131596225D01*
X159583925Y-131670864D01*
X159515256Y-131689396D01*
X159399270Y-131685192D01*
X159363165Y-131652584D01*
X159361905Y-131550051D01*
X159364645Y-131351801D01*
X159368316Y-131195262D01*
X159357982Y-130907140D01*
X159308686Y-130752054D01*
X159292458Y-130736244D01*
X159280683Y-130693352D01*
X159394007Y-130674033D01*
X159438848Y-130673084D01*
X159592320Y-130681718D01*
G36*
X158963278Y-130673084D02*
G01*
X159112257Y-130685798D01*
X159134342Y-130722455D01*
X159116133Y-130738483D01*
X159064476Y-130826181D01*
X159046533Y-131007739D01*
X159055161Y-131252718D01*
X159083953Y-131702681D01*
X158896305Y-131702681D01*
X158765303Y-131684150D01*
X158735136Y-131613554D01*
X158743054Y-131573840D01*
X158811181Y-131193312D01*
X158793619Y-130895292D01*
X158780735Y-130850577D01*
X158751498Y-130733875D01*
X158789975Y-130683938D01*
X158924688Y-130673033D01*
X158963278Y-130673084D01*
G37*
X158963278Y-130673084D02*
X159112257Y-130685798D01*
X159134342Y-130722455D01*
X159116133Y-130738483D01*
X159064476Y-130826181D01*
X159046533Y-131007739D01*
X159055161Y-131252718D01*
X159083953Y-131702681D01*
X158896305Y-131702681D01*
X158765303Y-131684150D01*
X158735136Y-131613554D01*
X158743054Y-131573840D01*
X158811181Y-131193312D01*
X158793619Y-130895292D01*
X158780735Y-130850577D01*
X158751498Y-130733875D01*
X158789975Y-130683938D01*
X158924688Y-130673033D01*
X158963278Y-130673084D01*
G36*
X158175224Y-130681865D02*
G01*
X158306629Y-130719056D01*
X158379669Y-130795306D01*
X158390126Y-130815678D01*
X158419302Y-130947908D01*
X158349214Y-131073129D01*
X158324102Y-131100595D01*
X158190035Y-131241789D01*
X158388607Y-131430670D01*
X158535208Y-131582049D01*
X158578898Y-131666646D01*
X158524700Y-131700109D01*
X158475951Y-131702681D01*
X158368664Y-131654422D01*
X158213819Y-131530676D01*
X158109261Y-131426594D01*
X157853799Y-131150507D01*
X157890753Y-131426594D01*
X157907512Y-131606466D01*
X157878039Y-131684285D01*
X157781109Y-131702507D01*
X157752700Y-131702736D01*
X157661299Y-131696658D01*
X157608999Y-131656936D01*
X157584885Y-131551442D01*
X157578046Y-131348049D01*
X157577692Y-131187555D01*
X157577692Y-130929637D01*
X157870769Y-130929637D01*
X157909664Y-131078360D01*
X158007655Y-131106523D01*
X158116707Y-131027099D01*
X158158123Y-130917190D01*
X158121758Y-130843041D01*
X158003262Y-130749652D01*
X157908114Y-130784816D01*
X157870769Y-130929637D01*
X157577692Y-130929637D01*
X157577692Y-130672320D01*
X157949888Y-130672138D01*
X158175224Y-130681865D01*
G37*
X158175224Y-130681865D02*
X158306629Y-130719056D01*
X158379669Y-130795306D01*
X158390126Y-130815678D01*
X158419302Y-130947908D01*
X158349214Y-131073129D01*
X158324102Y-131100595D01*
X158190035Y-131241789D01*
X158388607Y-131430670D01*
X158535208Y-131582049D01*
X158578898Y-131666646D01*
X158524700Y-131700109D01*
X158475951Y-131702681D01*
X158368664Y-131654422D01*
X158213819Y-131530676D01*
X158109261Y-131426594D01*
X157853799Y-131150507D01*
X157890753Y-131426594D01*
X157907512Y-131606466D01*
X157878039Y-131684285D01*
X157781109Y-131702507D01*
X157752700Y-131702736D01*
X157661299Y-131696658D01*
X157608999Y-131656936D01*
X157584885Y-131551442D01*
X157578046Y-131348049D01*
X157577692Y-131187555D01*
X157577692Y-130929637D01*
X157870769Y-130929637D01*
X157909664Y-131078360D01*
X158007655Y-131106523D01*
X158116707Y-131027099D01*
X158158123Y-130917190D01*
X158121758Y-130843041D01*
X158003262Y-130749652D01*
X157908114Y-130784816D01*
X157870769Y-130929637D01*
X157577692Y-130929637D01*
X157577692Y-130672320D01*
X157949888Y-130672138D01*
X158175224Y-130681865D01*
G36*
X156883094Y-130733644D02*
G01*
X156985111Y-130877757D01*
X157092400Y-131071894D01*
X157207585Y-131291308D01*
X157304186Y-131455341D01*
X157355959Y-131522966D01*
X157416984Y-131607759D01*
X157365089Y-131675089D01*
X157217544Y-131702680D01*
X157216632Y-131702681D01*
X157072098Y-131676194D01*
X157028964Y-131610652D01*
X157031270Y-131433098D01*
X156965557Y-131354616D01*
X156804443Y-131346393D01*
X156779872Y-131348526D01*
X156613675Y-131380974D01*
X156544349Y-131451296D01*
X156535641Y-131518623D01*
X156482430Y-131650284D01*
X156389102Y-131689396D01*
X156275445Y-131687431D01*
X156242564Y-131658381D01*
X156281731Y-131566744D01*
X156345646Y-131475079D01*
X156438614Y-131332480D01*
X156499442Y-131220846D01*
X156662541Y-131220846D01*
X156712164Y-131258740D01*
X156761298Y-131260942D01*
X156867989Y-131238158D01*
X156892849Y-131205724D01*
X156860801Y-131100962D01*
X156834721Y-131048532D01*
X156779837Y-130996805D01*
X156719608Y-131070376D01*
X156703170Y-131103749D01*
X156662541Y-131220846D01*
X156499442Y-131220846D01*
X156552478Y-131123513D01*
X156598125Y-131030570D01*
X156699206Y-130840255D01*
X156787057Y-130713813D01*
X156817637Y-130688402D01*
X156883094Y-130733644D01*
G37*
X156883094Y-130733644D02*
X156985111Y-130877757D01*
X157092400Y-131071894D01*
X157207585Y-131291308D01*
X157304186Y-131455341D01*
X157355959Y-131522966D01*
X157416984Y-131607759D01*
X157365089Y-131675089D01*
X157217544Y-131702680D01*
X157216632Y-131702681D01*
X157072098Y-131676194D01*
X157028964Y-131610652D01*
X157031270Y-131433098D01*
X156965557Y-131354616D01*
X156804443Y-131346393D01*
X156779872Y-131348526D01*
X156613675Y-131380974D01*
X156544349Y-131451296D01*
X156535641Y-131518623D01*
X156482430Y-131650284D01*
X156389102Y-131689396D01*
X156275445Y-131687431D01*
X156242564Y-131658381D01*
X156281731Y-131566744D01*
X156345646Y-131475079D01*
X156438614Y-131332480D01*
X156499442Y-131220846D01*
X156662541Y-131220846D01*
X156712164Y-131258740D01*
X156761298Y-131260942D01*
X156867989Y-131238158D01*
X156892849Y-131205724D01*
X156860801Y-131100962D01*
X156834721Y-131048532D01*
X156779837Y-130996805D01*
X156719608Y-131070376D01*
X156703170Y-131103749D01*
X156662541Y-131220846D01*
X156499442Y-131220846D01*
X156552478Y-131123513D01*
X156598125Y-131030570D01*
X156699206Y-130840255D01*
X156787057Y-130713813D01*
X156817637Y-130688402D01*
X156883094Y-130733644D01*
D10*
%TO.C,C20*%
X66215000Y-103150302D02*
X65415000Y-103150302D01*
X65815000Y-102750302D02*
X65815000Y-103550302D01*
X64033000Y-111241000D02*
X62967000Y-111241000D01*
X64268000Y-111201000D02*
X62732000Y-111201000D01*
X64448000Y-111161000D02*
X62552000Y-111161000D01*
X64598000Y-111121000D02*
X62402000Y-111121000D01*
X64729000Y-111081000D02*
X62271000Y-111081000D01*
X64846000Y-111041000D02*
X62154000Y-111041000D01*
X64953000Y-111001000D02*
X62047000Y-111001000D01*
X65052000Y-110961000D02*
X61948000Y-110961000D01*
X65145000Y-110921000D02*
X61855000Y-110921000D01*
X65231000Y-110881000D02*
X61769000Y-110881000D01*
X65313000Y-110841000D02*
X61687000Y-110841000D01*
X65390000Y-110801000D02*
X61610000Y-110801000D01*
X65464000Y-110761000D02*
X61536000Y-110761000D01*
X65534000Y-110721000D02*
X61466000Y-110721000D01*
X65602000Y-110681000D02*
X61398000Y-110681000D01*
X65666000Y-110641000D02*
X61334000Y-110641000D01*
X65728000Y-110601000D02*
X61272000Y-110601000D01*
X65787000Y-110561000D02*
X61213000Y-110561000D01*
X65845000Y-110521000D02*
X61155000Y-110521000D01*
X65900000Y-110481000D02*
X61100000Y-110481000D01*
X65954000Y-110441000D02*
X61046000Y-110441000D01*
X66005000Y-110401000D02*
X60995000Y-110401000D01*
X66056000Y-110361000D02*
X60944000Y-110361000D01*
X66104000Y-110321000D02*
X60896000Y-110321000D01*
X66151000Y-110281000D02*
X60849000Y-110281000D01*
X66197000Y-110241000D02*
X60803000Y-110241000D01*
X66241000Y-110201000D02*
X60759000Y-110201000D01*
X66284000Y-110161000D02*
X60716000Y-110161000D01*
X66326000Y-110121000D02*
X60674000Y-110121000D01*
X66367000Y-110081000D02*
X60633000Y-110081000D01*
X66407000Y-110041000D02*
X60593000Y-110041000D01*
X66445000Y-110001000D02*
X60555000Y-110001000D01*
X66483000Y-109961000D02*
X60517000Y-109961000D01*
X62460000Y-109921000D02*
X60481000Y-109921000D01*
X66519000Y-109921000D02*
X64540000Y-109921000D01*
X62460000Y-109881000D02*
X60445000Y-109881000D01*
X66555000Y-109881000D02*
X64540000Y-109881000D01*
X62460000Y-109841000D02*
X60410000Y-109841000D01*
X66590000Y-109841000D02*
X64540000Y-109841000D01*
X62460000Y-109801000D02*
X60376000Y-109801000D01*
X66624000Y-109801000D02*
X64540000Y-109801000D01*
X62460000Y-109761000D02*
X60344000Y-109761000D01*
X66656000Y-109761000D02*
X64540000Y-109761000D01*
X62460000Y-109721000D02*
X60311000Y-109721000D01*
X66689000Y-109721000D02*
X64540000Y-109721000D01*
X62460000Y-109681000D02*
X60280000Y-109681000D01*
X66720000Y-109681000D02*
X64540000Y-109681000D01*
X62460000Y-109641000D02*
X60250000Y-109641000D01*
X66750000Y-109641000D02*
X64540000Y-109641000D01*
X62460000Y-109601000D02*
X60220000Y-109601000D01*
X66780000Y-109601000D02*
X64540000Y-109601000D01*
X62460000Y-109561000D02*
X60191000Y-109561000D01*
X66809000Y-109561000D02*
X64540000Y-109561000D01*
X62460000Y-109521000D02*
X60162000Y-109521000D01*
X66838000Y-109521000D02*
X64540000Y-109521000D01*
X62460000Y-109481000D02*
X60135000Y-109481000D01*
X66865000Y-109481000D02*
X64540000Y-109481000D01*
X62460000Y-109441000D02*
X60108000Y-109441000D01*
X66892000Y-109441000D02*
X64540000Y-109441000D01*
X62460000Y-109401000D02*
X60082000Y-109401000D01*
X66918000Y-109401000D02*
X64540000Y-109401000D01*
X62460000Y-109361000D02*
X60056000Y-109361000D01*
X66944000Y-109361000D02*
X64540000Y-109361000D01*
X62460000Y-109321000D02*
X60031000Y-109321000D01*
X66969000Y-109321000D02*
X64540000Y-109321000D01*
X62460000Y-109281000D02*
X60007000Y-109281000D01*
X66993000Y-109281000D02*
X64540000Y-109281000D01*
X62460000Y-109241000D02*
X59983000Y-109241000D01*
X67017000Y-109241000D02*
X64540000Y-109241000D01*
X62460000Y-109201000D02*
X59960000Y-109201000D01*
X67040000Y-109201000D02*
X64540000Y-109201000D01*
X62460000Y-109161000D02*
X59938000Y-109161000D01*
X67062000Y-109161000D02*
X64540000Y-109161000D01*
X62460000Y-109121000D02*
X59916000Y-109121000D01*
X67084000Y-109121000D02*
X64540000Y-109121000D01*
X62460000Y-109081000D02*
X59894000Y-109081000D01*
X67106000Y-109081000D02*
X64540000Y-109081000D01*
X62460000Y-109041000D02*
X59873000Y-109041000D01*
X67127000Y-109041000D02*
X64540000Y-109041000D01*
X62460000Y-109001000D02*
X59853000Y-109001000D01*
X67147000Y-109001000D02*
X64540000Y-109001000D01*
X62460000Y-108961000D02*
X59834000Y-108961000D01*
X67166000Y-108961000D02*
X64540000Y-108961000D01*
X62460000Y-108921000D02*
X59814000Y-108921000D01*
X67186000Y-108921000D02*
X64540000Y-108921000D01*
X62460000Y-108881000D02*
X59796000Y-108881000D01*
X67204000Y-108881000D02*
X64540000Y-108881000D01*
X62460000Y-108841000D02*
X59778000Y-108841000D01*
X67222000Y-108841000D02*
X64540000Y-108841000D01*
X62460000Y-108801000D02*
X59760000Y-108801000D01*
X67240000Y-108801000D02*
X64540000Y-108801000D01*
X62460000Y-108761000D02*
X59743000Y-108761000D01*
X67257000Y-108761000D02*
X64540000Y-108761000D01*
X62460000Y-108721000D02*
X59726000Y-108721000D01*
X67274000Y-108721000D02*
X64540000Y-108721000D01*
X62460000Y-108681000D02*
X59710000Y-108681000D01*
X67290000Y-108681000D02*
X64540000Y-108681000D01*
X62460000Y-108641000D02*
X59695000Y-108641000D01*
X67305000Y-108641000D02*
X64540000Y-108641000D01*
X62460000Y-108601000D02*
X59679000Y-108601000D01*
X67321000Y-108601000D02*
X64540000Y-108601000D01*
X62460000Y-108561000D02*
X59665000Y-108561000D01*
X67335000Y-108561000D02*
X64540000Y-108561000D01*
X62460000Y-108521000D02*
X59650000Y-108521000D01*
X67350000Y-108521000D02*
X64540000Y-108521000D01*
X62460000Y-108481000D02*
X59637000Y-108481000D01*
X67363000Y-108481000D02*
X64540000Y-108481000D01*
X62460000Y-108441000D02*
X59623000Y-108441000D01*
X67377000Y-108441000D02*
X64540000Y-108441000D01*
X62460000Y-108401000D02*
X59611000Y-108401000D01*
X67389000Y-108401000D02*
X64540000Y-108401000D01*
X62460000Y-108361000D02*
X59598000Y-108361000D01*
X67402000Y-108361000D02*
X64540000Y-108361000D01*
X62460000Y-108321000D02*
X59586000Y-108321000D01*
X67414000Y-108321000D02*
X64540000Y-108321000D01*
X62460000Y-108281000D02*
X59575000Y-108281000D01*
X67425000Y-108281000D02*
X64540000Y-108281000D01*
X62460000Y-108241000D02*
X59564000Y-108241000D01*
X67436000Y-108241000D02*
X64540000Y-108241000D01*
X62460000Y-108201000D02*
X59553000Y-108201000D01*
X67447000Y-108201000D02*
X64540000Y-108201000D01*
X62460000Y-108161000D02*
X59543000Y-108161000D01*
X67457000Y-108161000D02*
X64540000Y-108161000D01*
X62460000Y-108121000D02*
X59533000Y-108121000D01*
X67467000Y-108121000D02*
X64540000Y-108121000D01*
X62460000Y-108081000D02*
X59524000Y-108081000D01*
X67476000Y-108081000D02*
X64540000Y-108081000D01*
X62460000Y-108041000D02*
X59515000Y-108041000D01*
X67485000Y-108041000D02*
X64540000Y-108041000D01*
X62460000Y-108001000D02*
X59506000Y-108001000D01*
X67494000Y-108001000D02*
X64540000Y-108001000D01*
X62460000Y-107961000D02*
X59498000Y-107961000D01*
X67502000Y-107961000D02*
X64540000Y-107961000D01*
X62460000Y-107921000D02*
X59490000Y-107921000D01*
X67510000Y-107921000D02*
X64540000Y-107921000D01*
X62460000Y-107881000D02*
X59483000Y-107881000D01*
X67517000Y-107881000D02*
X64540000Y-107881000D01*
X67524000Y-107840000D02*
X59476000Y-107840000D01*
X67530000Y-107800000D02*
X59470000Y-107800000D01*
X67537000Y-107760000D02*
X59463000Y-107760000D01*
X67542000Y-107720000D02*
X59458000Y-107720000D01*
X67548000Y-107680000D02*
X59452000Y-107680000D01*
X67552000Y-107640000D02*
X59448000Y-107640000D01*
X67557000Y-107600000D02*
X59443000Y-107600000D01*
X67561000Y-107560000D02*
X59439000Y-107560000D01*
X67565000Y-107520000D02*
X59435000Y-107520000D01*
X67568000Y-107480000D02*
X59432000Y-107480000D01*
X67571000Y-107440000D02*
X59429000Y-107440000D01*
X67574000Y-107400000D02*
X59426000Y-107400000D01*
X67576000Y-107360000D02*
X59424000Y-107360000D01*
X67577000Y-107320000D02*
X59423000Y-107320000D01*
X67579000Y-107280000D02*
X59421000Y-107280000D01*
X67580000Y-107240000D02*
X59420000Y-107240000D01*
X67580000Y-107200000D02*
X59420000Y-107200000D01*
X67580000Y-107160000D02*
X59420000Y-107160000D01*
X67620000Y-107160000D02*
G75*
G03*
X67620000Y-107160000I-4120000J0D01*
G01*
%TO.C,R19*%
X75750000Y-115110000D02*
X79190000Y-115110000D01*
X79190000Y-115110000D02*
X79190000Y-105870000D01*
X79190000Y-105870000D02*
X75750000Y-105870000D01*
X75750000Y-105870000D02*
X75750000Y-115110000D01*
X77470000Y-115800000D02*
X77470000Y-115110000D01*
X77470000Y-105180000D02*
X77470000Y-105870000D01*
%TO.C,R25*%
X63515000Y-102520000D02*
X63515000Y-100680000D01*
X63515000Y-100680000D02*
X59675000Y-100680000D01*
X59675000Y-100680000D02*
X59675000Y-102520000D01*
X59675000Y-102520000D02*
X63515000Y-102520000D01*
X64465000Y-101600000D02*
X63515000Y-101600000D01*
X58725000Y-101600000D02*
X59675000Y-101600000D01*
%TO.C,R21*%
X59675000Y-98140000D02*
X59675000Y-99980000D01*
X59675000Y-99980000D02*
X63515000Y-99980000D01*
X63515000Y-99980000D02*
X63515000Y-98140000D01*
X63515000Y-98140000D02*
X59675000Y-98140000D01*
X58725000Y-99060000D02*
X59675000Y-99060000D01*
X64465000Y-99060000D02*
X63515000Y-99060000D01*
%TO.C,R9*%
X54625000Y-108235000D02*
X54625000Y-106395000D01*
X54625000Y-106395000D02*
X50785000Y-106395000D01*
X50785000Y-106395000D02*
X50785000Y-108235000D01*
X50785000Y-108235000D02*
X54625000Y-108235000D01*
X55575000Y-107315000D02*
X54625000Y-107315000D01*
X49835000Y-107315000D02*
X50785000Y-107315000D01*
%TO.C,J2*%
X42450000Y-93825000D02*
X37730000Y-93825000D01*
X37730000Y-93825000D02*
X37730000Y-107945000D01*
X37730000Y-107945000D02*
X42450000Y-107945000D01*
X42450000Y-107945000D02*
X42450000Y-93825000D01*
X42450000Y-95585000D02*
X42650000Y-95585000D01*
X42650000Y-95585000D02*
X42650000Y-95285000D01*
X42650000Y-95285000D02*
X42450000Y-95285000D01*
X42550000Y-95585000D02*
X42550000Y-95285000D01*
X42450000Y-96385000D02*
X41840000Y-96385000D01*
X41840000Y-96385000D02*
X41840000Y-94435000D01*
X41840000Y-94435000D02*
X38340000Y-94435000D01*
X38340000Y-94435000D02*
X38340000Y-107335000D01*
X38340000Y-107335000D02*
X41840000Y-107335000D01*
X41840000Y-107335000D02*
X41840000Y-105385000D01*
X41840000Y-105385000D02*
X42450000Y-105385000D01*
X41140000Y-93825000D02*
X41140000Y-94435000D01*
X39840000Y-93825000D02*
X39840000Y-94435000D01*
X41140000Y-107945000D02*
X41140000Y-107335000D01*
X39840000Y-107945000D02*
X39840000Y-107335000D01*
X38340000Y-96785000D02*
X38840000Y-96785000D01*
X38840000Y-96785000D02*
X38840000Y-96985000D01*
X38840000Y-96985000D02*
X38340000Y-96985000D01*
X38340000Y-96885000D02*
X38840000Y-96885000D01*
X38340000Y-98785000D02*
X38840000Y-98785000D01*
X38840000Y-98785000D02*
X38840000Y-98985000D01*
X38840000Y-98985000D02*
X38340000Y-98985000D01*
X38340000Y-98885000D02*
X38840000Y-98885000D01*
X38340000Y-100785000D02*
X38840000Y-100785000D01*
X38840000Y-100785000D02*
X38840000Y-100985000D01*
X38840000Y-100985000D02*
X38340000Y-100985000D01*
X38340000Y-100885000D02*
X38840000Y-100885000D01*
X38340000Y-102785000D02*
X38840000Y-102785000D01*
X38840000Y-102785000D02*
X38840000Y-102985000D01*
X38840000Y-102985000D02*
X38340000Y-102985000D01*
X38340000Y-102885000D02*
X38840000Y-102885000D01*
X38340000Y-104785000D02*
X38840000Y-104785000D01*
X38840000Y-104785000D02*
X38840000Y-104985000D01*
X38840000Y-104985000D02*
X38340000Y-104985000D01*
X38340000Y-104885000D02*
X38840000Y-104885000D01*
X42750000Y-94775000D02*
X42750000Y-93525000D01*
X42750000Y-93525000D02*
X41500000Y-93525000D01*
%TO.C,R31*%
X160298000Y-109728000D02*
X163608000Y-109728000D01*
X173458000Y-109728000D02*
X170148000Y-109728000D01*
X163608000Y-111098000D02*
X170148000Y-111098000D01*
X163608000Y-108358000D02*
X163608000Y-111098000D01*
X170148000Y-108358000D02*
X163608000Y-108358000D01*
X170148000Y-111098000D02*
X170148000Y-108358000D01*
%TO.C,R30*%
X166192000Y-106934000D02*
X165242000Y-106934000D01*
X160452000Y-106934000D02*
X161402000Y-106934000D01*
X165242000Y-106014000D02*
X161402000Y-106014000D01*
X165242000Y-107854000D02*
X165242000Y-106014000D01*
X161402000Y-107854000D02*
X165242000Y-107854000D01*
X161402000Y-106014000D02*
X161402000Y-107854000D01*
%TO.C,R36*%
X163144000Y-101854000D02*
X162194000Y-101854000D01*
X157404000Y-101854000D02*
X158354000Y-101854000D01*
X162194000Y-100934000D02*
X158354000Y-100934000D01*
X162194000Y-102774000D02*
X162194000Y-100934000D01*
X158354000Y-102774000D02*
X162194000Y-102774000D01*
X158354000Y-100934000D02*
X158354000Y-102774000D01*
%TO.C,C18*%
X145159000Y-121866199D02*
X144759000Y-121866199D01*
X144959000Y-121666199D02*
X144959000Y-122066199D01*
X144134000Y-126017000D02*
X143394000Y-126017000D01*
X144301000Y-125977000D02*
X143227000Y-125977000D01*
X144428000Y-125937000D02*
X143100000Y-125937000D01*
X144532000Y-125897000D02*
X142996000Y-125897000D01*
X144623000Y-125857000D02*
X142905000Y-125857000D01*
X144704000Y-125817000D02*
X142824000Y-125817000D01*
X144777000Y-125777000D02*
X142751000Y-125777000D01*
X142924000Y-125737000D02*
X142684000Y-125737000D01*
X144844000Y-125737000D02*
X144604000Y-125737000D01*
X142924000Y-125697000D02*
X142622000Y-125697000D01*
X144906000Y-125697000D02*
X144604000Y-125697000D01*
X142924000Y-125657000D02*
X142564000Y-125657000D01*
X144964000Y-125657000D02*
X144604000Y-125657000D01*
X142924000Y-125617000D02*
X142510000Y-125617000D01*
X145018000Y-125617000D02*
X144604000Y-125617000D01*
X142924000Y-125577000D02*
X142460000Y-125577000D01*
X145068000Y-125577000D02*
X144604000Y-125577000D01*
X142924000Y-125537000D02*
X142413000Y-125537000D01*
X145115000Y-125537000D02*
X144604000Y-125537000D01*
X142924000Y-125497000D02*
X142368000Y-125497000D01*
X145160000Y-125497000D02*
X144604000Y-125497000D01*
X142924000Y-125457000D02*
X142326000Y-125457000D01*
X145202000Y-125457000D02*
X144604000Y-125457000D01*
X142924000Y-125417000D02*
X142286000Y-125417000D01*
X145242000Y-125417000D02*
X144604000Y-125417000D01*
X142924000Y-125377000D02*
X142248000Y-125377000D01*
X145280000Y-125377000D02*
X144604000Y-125377000D01*
X142924000Y-125337000D02*
X142212000Y-125337000D01*
X145316000Y-125337000D02*
X144604000Y-125337000D01*
X142924000Y-125297000D02*
X142177000Y-125297000D01*
X145351000Y-125297000D02*
X144604000Y-125297000D01*
X142924000Y-125257000D02*
X142145000Y-125257000D01*
X145383000Y-125257000D02*
X144604000Y-125257000D01*
X142924000Y-125217000D02*
X142114000Y-125217000D01*
X145414000Y-125217000D02*
X144604000Y-125217000D01*
X142924000Y-125177000D02*
X142084000Y-125177000D01*
X145444000Y-125177000D02*
X144604000Y-125177000D01*
X142924000Y-125137000D02*
X142056000Y-125137000D01*
X145472000Y-125137000D02*
X144604000Y-125137000D01*
X142924000Y-125097000D02*
X142029000Y-125097000D01*
X145499000Y-125097000D02*
X144604000Y-125097000D01*
X142924000Y-125057000D02*
X142004000Y-125057000D01*
X145524000Y-125057000D02*
X144604000Y-125057000D01*
X142924000Y-125017000D02*
X141979000Y-125017000D01*
X145549000Y-125017000D02*
X144604000Y-125017000D01*
X142924000Y-124977000D02*
X141956000Y-124977000D01*
X145572000Y-124977000D02*
X144604000Y-124977000D01*
X142924000Y-124937000D02*
X141934000Y-124937000D01*
X145594000Y-124937000D02*
X144604000Y-124937000D01*
X142924000Y-124897000D02*
X141913000Y-124897000D01*
X145615000Y-124897000D02*
X144604000Y-124897000D01*
X142924000Y-124857000D02*
X141894000Y-124857000D01*
X145634000Y-124857000D02*
X144604000Y-124857000D01*
X142924000Y-124817000D02*
X141875000Y-124817000D01*
X145653000Y-124817000D02*
X144604000Y-124817000D01*
X142924000Y-124777000D02*
X141857000Y-124777000D01*
X145671000Y-124777000D02*
X144604000Y-124777000D01*
X142924000Y-124737000D02*
X141840000Y-124737000D01*
X145688000Y-124737000D02*
X144604000Y-124737000D01*
X142924000Y-124697000D02*
X141824000Y-124697000D01*
X145704000Y-124697000D02*
X144604000Y-124697000D01*
X142924000Y-124657000D02*
X141810000Y-124657000D01*
X145718000Y-124657000D02*
X144604000Y-124657000D01*
X142924000Y-124616000D02*
X141796000Y-124616000D01*
X145732000Y-124616000D02*
X144604000Y-124616000D01*
X142924000Y-124576000D02*
X141782000Y-124576000D01*
X145746000Y-124576000D02*
X144604000Y-124576000D01*
X142924000Y-124536000D02*
X141770000Y-124536000D01*
X145758000Y-124536000D02*
X144604000Y-124536000D01*
X142924000Y-124496000D02*
X141759000Y-124496000D01*
X145769000Y-124496000D02*
X144604000Y-124496000D01*
X142924000Y-124456000D02*
X141748000Y-124456000D01*
X145780000Y-124456000D02*
X144604000Y-124456000D01*
X142924000Y-124416000D02*
X141739000Y-124416000D01*
X145789000Y-124416000D02*
X144604000Y-124416000D01*
X142924000Y-124376000D02*
X141730000Y-124376000D01*
X145798000Y-124376000D02*
X144604000Y-124376000D01*
X142924000Y-124336000D02*
X141722000Y-124336000D01*
X145806000Y-124336000D02*
X144604000Y-124336000D01*
X142924000Y-124296000D02*
X141714000Y-124296000D01*
X145814000Y-124296000D02*
X144604000Y-124296000D01*
X142924000Y-124256000D02*
X141708000Y-124256000D01*
X145820000Y-124256000D02*
X144604000Y-124256000D01*
X142924000Y-124216000D02*
X141702000Y-124216000D01*
X145826000Y-124216000D02*
X144604000Y-124216000D01*
X142924000Y-124176000D02*
X141697000Y-124176000D01*
X145831000Y-124176000D02*
X144604000Y-124176000D01*
X142924000Y-124136000D02*
X141693000Y-124136000D01*
X145835000Y-124136000D02*
X144604000Y-124136000D01*
X145838000Y-124096000D02*
X141690000Y-124096000D01*
X145841000Y-124056000D02*
X141687000Y-124056000D01*
X145843000Y-124016000D02*
X141685000Y-124016000D01*
X145844000Y-123976000D02*
X141684000Y-123976000D01*
X145844000Y-123936000D02*
X141684000Y-123936000D01*
X145884000Y-123936000D02*
G75*
G03*
X145884000Y-123936000I-2120000J0D01*
G01*
%TO.C,D3*%
X188939898Y-94139364D02*
X186784636Y-91984102D01*
X191902675Y-91100219D02*
X189823781Y-89021325D01*
X186295318Y-94628682D02*
X187016567Y-93907433D01*
X191584477Y-89339523D02*
X190863228Y-90060772D01*
X188056014Y-94946880D02*
X191902675Y-91100219D01*
X185977120Y-92867986D02*
X188056014Y-94946880D01*
X189823781Y-89021325D02*
X185977120Y-92867986D01*
%TO.C,C21*%
X45799000Y-105764698D02*
X46599000Y-105764698D01*
X46199000Y-106164698D02*
X46199000Y-105364698D01*
X47981000Y-97674000D02*
X49047000Y-97674000D01*
X47746000Y-97714000D02*
X49282000Y-97714000D01*
X47566000Y-97754000D02*
X49462000Y-97754000D01*
X47416000Y-97794000D02*
X49612000Y-97794000D01*
X47285000Y-97834000D02*
X49743000Y-97834000D01*
X47168000Y-97874000D02*
X49860000Y-97874000D01*
X47061000Y-97914000D02*
X49967000Y-97914000D01*
X46962000Y-97954000D02*
X50066000Y-97954000D01*
X46869000Y-97994000D02*
X50159000Y-97994000D01*
X46783000Y-98034000D02*
X50245000Y-98034000D01*
X46701000Y-98074000D02*
X50327000Y-98074000D01*
X46624000Y-98114000D02*
X50404000Y-98114000D01*
X46550000Y-98154000D02*
X50478000Y-98154000D01*
X46480000Y-98194000D02*
X50548000Y-98194000D01*
X46412000Y-98234000D02*
X50616000Y-98234000D01*
X46348000Y-98274000D02*
X50680000Y-98274000D01*
X46286000Y-98314000D02*
X50742000Y-98314000D01*
X46227000Y-98354000D02*
X50801000Y-98354000D01*
X46169000Y-98394000D02*
X50859000Y-98394000D01*
X46114000Y-98434000D02*
X50914000Y-98434000D01*
X46060000Y-98474000D02*
X50968000Y-98474000D01*
X46009000Y-98514000D02*
X51019000Y-98514000D01*
X45958000Y-98554000D02*
X51070000Y-98554000D01*
X45910000Y-98594000D02*
X51118000Y-98594000D01*
X45863000Y-98634000D02*
X51165000Y-98634000D01*
X45817000Y-98674000D02*
X51211000Y-98674000D01*
X45773000Y-98714000D02*
X51255000Y-98714000D01*
X45730000Y-98754000D02*
X51298000Y-98754000D01*
X45688000Y-98794000D02*
X51340000Y-98794000D01*
X45647000Y-98834000D02*
X51381000Y-98834000D01*
X45607000Y-98874000D02*
X51421000Y-98874000D01*
X45569000Y-98914000D02*
X51459000Y-98914000D01*
X45531000Y-98954000D02*
X51497000Y-98954000D01*
X49554000Y-98994000D02*
X51533000Y-98994000D01*
X45495000Y-98994000D02*
X47474000Y-98994000D01*
X49554000Y-99034000D02*
X51569000Y-99034000D01*
X45459000Y-99034000D02*
X47474000Y-99034000D01*
X49554000Y-99074000D02*
X51604000Y-99074000D01*
X45424000Y-99074000D02*
X47474000Y-99074000D01*
X49554000Y-99114000D02*
X51638000Y-99114000D01*
X45390000Y-99114000D02*
X47474000Y-99114000D01*
X49554000Y-99154000D02*
X51670000Y-99154000D01*
X45358000Y-99154000D02*
X47474000Y-99154000D01*
X49554000Y-99194000D02*
X51703000Y-99194000D01*
X45325000Y-99194000D02*
X47474000Y-99194000D01*
X49554000Y-99234000D02*
X51734000Y-99234000D01*
X45294000Y-99234000D02*
X47474000Y-99234000D01*
X49554000Y-99274000D02*
X51764000Y-99274000D01*
X45264000Y-99274000D02*
X47474000Y-99274000D01*
X49554000Y-99314000D02*
X51794000Y-99314000D01*
X45234000Y-99314000D02*
X47474000Y-99314000D01*
X49554000Y-99354000D02*
X51823000Y-99354000D01*
X45205000Y-99354000D02*
X47474000Y-99354000D01*
X49554000Y-99394000D02*
X51852000Y-99394000D01*
X45176000Y-99394000D02*
X47474000Y-99394000D01*
X49554000Y-99434000D02*
X51879000Y-99434000D01*
X45149000Y-99434000D02*
X47474000Y-99434000D01*
X49554000Y-99474000D02*
X51906000Y-99474000D01*
X45122000Y-99474000D02*
X47474000Y-99474000D01*
X49554000Y-99514000D02*
X51932000Y-99514000D01*
X45096000Y-99514000D02*
X47474000Y-99514000D01*
X49554000Y-99554000D02*
X51958000Y-99554000D01*
X45070000Y-99554000D02*
X47474000Y-99554000D01*
X49554000Y-99594000D02*
X51983000Y-99594000D01*
X45045000Y-99594000D02*
X47474000Y-99594000D01*
X49554000Y-99634000D02*
X52007000Y-99634000D01*
X45021000Y-99634000D02*
X47474000Y-99634000D01*
X49554000Y-99674000D02*
X52031000Y-99674000D01*
X44997000Y-99674000D02*
X47474000Y-99674000D01*
X49554000Y-99714000D02*
X52054000Y-99714000D01*
X44974000Y-99714000D02*
X47474000Y-99714000D01*
X49554000Y-99754000D02*
X52076000Y-99754000D01*
X44952000Y-99754000D02*
X47474000Y-99754000D01*
X49554000Y-99794000D02*
X52098000Y-99794000D01*
X44930000Y-99794000D02*
X47474000Y-99794000D01*
X49554000Y-99834000D02*
X52120000Y-99834000D01*
X44908000Y-99834000D02*
X47474000Y-99834000D01*
X49554000Y-99874000D02*
X52141000Y-99874000D01*
X44887000Y-99874000D02*
X47474000Y-99874000D01*
X49554000Y-99914000D02*
X52161000Y-99914000D01*
X44867000Y-99914000D02*
X47474000Y-99914000D01*
X49554000Y-99954000D02*
X52180000Y-99954000D01*
X44848000Y-99954000D02*
X47474000Y-99954000D01*
X49554000Y-99994000D02*
X52200000Y-99994000D01*
X44828000Y-99994000D02*
X47474000Y-99994000D01*
X49554000Y-100034000D02*
X52218000Y-100034000D01*
X44810000Y-100034000D02*
X47474000Y-100034000D01*
X49554000Y-100074000D02*
X52236000Y-100074000D01*
X44792000Y-100074000D02*
X47474000Y-100074000D01*
X49554000Y-100114000D02*
X52254000Y-100114000D01*
X44774000Y-100114000D02*
X47474000Y-100114000D01*
X49554000Y-100154000D02*
X52271000Y-100154000D01*
X44757000Y-100154000D02*
X47474000Y-100154000D01*
X49554000Y-100194000D02*
X52288000Y-100194000D01*
X44740000Y-100194000D02*
X47474000Y-100194000D01*
X49554000Y-100234000D02*
X52304000Y-100234000D01*
X44724000Y-100234000D02*
X47474000Y-100234000D01*
X49554000Y-100274000D02*
X52319000Y-100274000D01*
X44709000Y-100274000D02*
X47474000Y-100274000D01*
X49554000Y-100314000D02*
X52335000Y-100314000D01*
X44693000Y-100314000D02*
X47474000Y-100314000D01*
X49554000Y-100354000D02*
X52349000Y-100354000D01*
X44679000Y-100354000D02*
X47474000Y-100354000D01*
X49554000Y-100394000D02*
X52364000Y-100394000D01*
X44664000Y-100394000D02*
X47474000Y-100394000D01*
X49554000Y-100434000D02*
X52377000Y-100434000D01*
X44651000Y-100434000D02*
X47474000Y-100434000D01*
X49554000Y-100474000D02*
X52391000Y-100474000D01*
X44637000Y-100474000D02*
X47474000Y-100474000D01*
X49554000Y-100514000D02*
X52403000Y-100514000D01*
X44625000Y-100514000D02*
X47474000Y-100514000D01*
X49554000Y-100554000D02*
X52416000Y-100554000D01*
X44612000Y-100554000D02*
X47474000Y-100554000D01*
X49554000Y-100594000D02*
X52428000Y-100594000D01*
X44600000Y-100594000D02*
X47474000Y-100594000D01*
X49554000Y-100634000D02*
X52439000Y-100634000D01*
X44589000Y-100634000D02*
X47474000Y-100634000D01*
X49554000Y-100674000D02*
X52450000Y-100674000D01*
X44578000Y-100674000D02*
X47474000Y-100674000D01*
X49554000Y-100714000D02*
X52461000Y-100714000D01*
X44567000Y-100714000D02*
X47474000Y-100714000D01*
X49554000Y-100754000D02*
X52471000Y-100754000D01*
X44557000Y-100754000D02*
X47474000Y-100754000D01*
X49554000Y-100794000D02*
X52481000Y-100794000D01*
X44547000Y-100794000D02*
X47474000Y-100794000D01*
X49554000Y-100834000D02*
X52490000Y-100834000D01*
X44538000Y-100834000D02*
X47474000Y-100834000D01*
X49554000Y-100874000D02*
X52499000Y-100874000D01*
X44529000Y-100874000D02*
X47474000Y-100874000D01*
X49554000Y-100914000D02*
X52508000Y-100914000D01*
X44520000Y-100914000D02*
X47474000Y-100914000D01*
X49554000Y-100954000D02*
X52516000Y-100954000D01*
X44512000Y-100954000D02*
X47474000Y-100954000D01*
X49554000Y-100994000D02*
X52524000Y-100994000D01*
X44504000Y-100994000D02*
X47474000Y-100994000D01*
X49554000Y-101034000D02*
X52531000Y-101034000D01*
X44497000Y-101034000D02*
X47474000Y-101034000D01*
X44490000Y-101075000D02*
X52538000Y-101075000D01*
X44484000Y-101115000D02*
X52544000Y-101115000D01*
X44477000Y-101155000D02*
X52551000Y-101155000D01*
X44472000Y-101195000D02*
X52556000Y-101195000D01*
X44466000Y-101235000D02*
X52562000Y-101235000D01*
X44462000Y-101275000D02*
X52566000Y-101275000D01*
X44457000Y-101315000D02*
X52571000Y-101315000D01*
X44453000Y-101355000D02*
X52575000Y-101355000D01*
X44449000Y-101395000D02*
X52579000Y-101395000D01*
X44446000Y-101435000D02*
X52582000Y-101435000D01*
X44443000Y-101475000D02*
X52585000Y-101475000D01*
X44440000Y-101515000D02*
X52588000Y-101515000D01*
X44438000Y-101555000D02*
X52590000Y-101555000D01*
X44437000Y-101595000D02*
X52591000Y-101595000D01*
X44435000Y-101635000D02*
X52593000Y-101635000D01*
X44434000Y-101675000D02*
X52594000Y-101675000D01*
X44434000Y-101715000D02*
X52594000Y-101715000D01*
X44434000Y-101755000D02*
X52594000Y-101755000D01*
X52634000Y-101755000D02*
G75*
G03*
X52634000Y-101755000I-4120000J0D01*
G01*
%TO.C,ZD*%
X141108000Y-116936000D02*
X141108000Y-118776000D01*
X141108000Y-118776000D02*
X144388000Y-118776000D01*
X144388000Y-118776000D02*
X144388000Y-116936000D01*
X144388000Y-116936000D02*
X141108000Y-116936000D01*
X139928000Y-117856000D02*
X141108000Y-117856000D01*
X145568000Y-117856000D02*
X144388000Y-117856000D01*
X141684000Y-116936000D02*
X141684000Y-118776000D01*
X141804000Y-116936000D02*
X141804000Y-118776000D01*
X141564000Y-116936000D02*
X141564000Y-118776000D01*
%TO.C,C4*%
X185634000Y-113538000D02*
X185634000Y-123698000D01*
X185674000Y-113538000D02*
X185674000Y-123698000D01*
X185714000Y-113538000D02*
X185714000Y-123698000D01*
X185754000Y-113539000D02*
X185754000Y-123697000D01*
X185794000Y-113540000D02*
X185794000Y-123696000D01*
X185834000Y-113541000D02*
X185834000Y-123695000D01*
X185874000Y-113543000D02*
X185874000Y-123693000D01*
X185914000Y-113545000D02*
X185914000Y-123691000D01*
X185954000Y-113548000D02*
X185954000Y-123688000D01*
X185994000Y-113550000D02*
X185994000Y-123686000D01*
X186034000Y-113553000D02*
X186034000Y-123683000D01*
X186074000Y-113556000D02*
X186074000Y-123680000D01*
X186114000Y-113560000D02*
X186114000Y-123676000D01*
X186154000Y-113564000D02*
X186154000Y-123672000D01*
X186194000Y-113568000D02*
X186194000Y-123668000D01*
X186234000Y-113573000D02*
X186234000Y-123663000D01*
X186274000Y-113578000D02*
X186274000Y-123658000D01*
X186314000Y-113583000D02*
X186314000Y-123653000D01*
X186355000Y-113588000D02*
X186355000Y-123648000D01*
X186395000Y-113594000D02*
X186395000Y-123642000D01*
X186435000Y-113600000D02*
X186435000Y-123636000D01*
X186475000Y-113607000D02*
X186475000Y-123629000D01*
X186515000Y-113614000D02*
X186515000Y-123622000D01*
X186555000Y-113621000D02*
X186555000Y-123615000D01*
X186595000Y-113628000D02*
X186595000Y-123608000D01*
X186635000Y-113636000D02*
X186635000Y-123600000D01*
X186675000Y-113644000D02*
X186675000Y-123592000D01*
X186715000Y-113653000D02*
X186715000Y-123583000D01*
X186755000Y-113662000D02*
X186755000Y-123574000D01*
X186795000Y-113671000D02*
X186795000Y-123565000D01*
X186835000Y-113680000D02*
X186835000Y-123556000D01*
X186875000Y-113690000D02*
X186875000Y-123546000D01*
X186915000Y-113700000D02*
X186915000Y-117377000D01*
X186915000Y-119859000D02*
X186915000Y-123536000D01*
X186955000Y-113711000D02*
X186955000Y-117377000D01*
X186955000Y-119859000D02*
X186955000Y-123525000D01*
X186995000Y-113721000D02*
X186995000Y-117377000D01*
X186995000Y-119859000D02*
X186995000Y-123515000D01*
X187035000Y-113733000D02*
X187035000Y-117377000D01*
X187035000Y-119859000D02*
X187035000Y-123503000D01*
X187075000Y-113744000D02*
X187075000Y-117377000D01*
X187075000Y-119859000D02*
X187075000Y-123492000D01*
X187115000Y-113756000D02*
X187115000Y-117377000D01*
X187115000Y-119859000D02*
X187115000Y-123480000D01*
X187155000Y-113768000D02*
X187155000Y-117377000D01*
X187155000Y-119859000D02*
X187155000Y-123468000D01*
X187195000Y-113781000D02*
X187195000Y-117377000D01*
X187195000Y-119859000D02*
X187195000Y-123455000D01*
X187235000Y-113794000D02*
X187235000Y-117377000D01*
X187235000Y-119859000D02*
X187235000Y-123442000D01*
X187275000Y-113807000D02*
X187275000Y-117377000D01*
X187275000Y-119859000D02*
X187275000Y-123429000D01*
X187315000Y-113821000D02*
X187315000Y-117377000D01*
X187315000Y-119859000D02*
X187315000Y-123415000D01*
X187355000Y-113835000D02*
X187355000Y-117377000D01*
X187355000Y-119859000D02*
X187355000Y-123401000D01*
X187395000Y-113850000D02*
X187395000Y-117377000D01*
X187395000Y-119859000D02*
X187395000Y-123386000D01*
X187435000Y-113864000D02*
X187435000Y-117377000D01*
X187435000Y-119859000D02*
X187435000Y-123372000D01*
X187475000Y-113880000D02*
X187475000Y-117377000D01*
X187475000Y-119859000D02*
X187475000Y-123356000D01*
X187515000Y-113895000D02*
X187515000Y-117377000D01*
X187515000Y-119859000D02*
X187515000Y-123341000D01*
X187555000Y-113911000D02*
X187555000Y-117377000D01*
X187555000Y-119859000D02*
X187555000Y-123325000D01*
X187595000Y-113928000D02*
X187595000Y-117377000D01*
X187595000Y-121858000D02*
X187595000Y-123308000D01*
X187635000Y-113944000D02*
X187635000Y-117377000D01*
X187635000Y-121858000D02*
X187635000Y-123292000D01*
X187675000Y-113961000D02*
X187675000Y-117377000D01*
X187675000Y-121858000D02*
X187675000Y-123275000D01*
X187715000Y-113979000D02*
X187715000Y-117377000D01*
X187715000Y-121858000D02*
X187715000Y-123257000D01*
X187755000Y-113997000D02*
X187755000Y-117377000D01*
X187755000Y-121858000D02*
X187755000Y-123239000D01*
X187795000Y-114015000D02*
X187795000Y-117377000D01*
X187795000Y-121858000D02*
X187795000Y-123221000D01*
X187835000Y-114034000D02*
X187835000Y-117377000D01*
X187835000Y-121858000D02*
X187835000Y-123202000D01*
X187875000Y-114054000D02*
X187875000Y-117377000D01*
X187875000Y-121858000D02*
X187875000Y-123182000D01*
X187915000Y-114073000D02*
X187915000Y-117377000D01*
X187915000Y-121858000D02*
X187915000Y-123163000D01*
X187955000Y-114093000D02*
X187955000Y-117377000D01*
X187955000Y-121858000D02*
X187955000Y-123143000D01*
X187995000Y-114114000D02*
X187995000Y-117377000D01*
X187995000Y-121858000D02*
X187995000Y-123122000D01*
X188035000Y-114135000D02*
X188035000Y-117377000D01*
X188035000Y-121858000D02*
X188035000Y-123101000D01*
X188075000Y-114156000D02*
X188075000Y-117377000D01*
X188075000Y-121858000D02*
X188075000Y-123080000D01*
X188115000Y-114178000D02*
X188115000Y-117377000D01*
X188115000Y-121858000D02*
X188115000Y-123058000D01*
X188155000Y-114201000D02*
X188155000Y-117377000D01*
X188155000Y-121858000D02*
X188155000Y-123035000D01*
X188195000Y-114223000D02*
X188195000Y-117377000D01*
X188195000Y-121858000D02*
X188195000Y-123013000D01*
X188235000Y-114247000D02*
X188235000Y-117377000D01*
X188235000Y-121858000D02*
X188235000Y-122989000D01*
X188275000Y-114271000D02*
X188275000Y-117377000D01*
X188275000Y-121858000D02*
X188275000Y-122965000D01*
X188315000Y-114295000D02*
X188315000Y-117377000D01*
X188315000Y-121858000D02*
X188315000Y-122941000D01*
X188355000Y-114320000D02*
X188355000Y-117377000D01*
X188355000Y-121858000D02*
X188355000Y-122916000D01*
X188395000Y-114345000D02*
X188395000Y-117377000D01*
X188395000Y-121858000D02*
X188395000Y-122891000D01*
X188435000Y-114371000D02*
X188435000Y-117377000D01*
X188435000Y-121858000D02*
X188435000Y-122865000D01*
X188475000Y-114397000D02*
X188475000Y-117377000D01*
X188475000Y-121858000D02*
X188475000Y-122839000D01*
X188515000Y-114424000D02*
X188515000Y-117377000D01*
X188515000Y-121858000D02*
X188515000Y-122812000D01*
X188555000Y-114452000D02*
X188555000Y-117377000D01*
X188555000Y-121858000D02*
X188555000Y-122784000D01*
X188595000Y-114480000D02*
X188595000Y-117377000D01*
X188595000Y-121858000D02*
X188595000Y-122756000D01*
X188635000Y-114508000D02*
X188635000Y-117377000D01*
X188635000Y-121858000D02*
X188635000Y-122728000D01*
X188675000Y-114538000D02*
X188675000Y-117377000D01*
X188675000Y-121858000D02*
X188675000Y-122698000D01*
X188715000Y-114568000D02*
X188715000Y-117377000D01*
X188715000Y-121858000D02*
X188715000Y-122668000D01*
X188755000Y-114598000D02*
X188755000Y-117377000D01*
X188755000Y-121858000D02*
X188755000Y-122638000D01*
X188795000Y-114629000D02*
X188795000Y-117377000D01*
X188795000Y-121858000D02*
X188795000Y-122607000D01*
X188835000Y-114661000D02*
X188835000Y-117377000D01*
X188835000Y-121858000D02*
X188835000Y-122575000D01*
X188875000Y-114693000D02*
X188875000Y-117377000D01*
X188875000Y-121858000D02*
X188875000Y-122543000D01*
X188915000Y-114726000D02*
X188915000Y-117377000D01*
X188915000Y-121858000D02*
X188915000Y-122510000D01*
X188955000Y-114760000D02*
X188955000Y-117377000D01*
X188955000Y-121858000D02*
X188955000Y-122476000D01*
X188995000Y-114794000D02*
X188995000Y-117377000D01*
X188995000Y-121858000D02*
X188995000Y-122442000D01*
X189035000Y-114829000D02*
X189035000Y-117377000D01*
X189035000Y-121858000D02*
X189035000Y-122407000D01*
X189075000Y-114865000D02*
X189075000Y-117377000D01*
X189075000Y-121858000D02*
X189075000Y-122371000D01*
X189115000Y-114902000D02*
X189115000Y-117377000D01*
X189115000Y-121858000D02*
X189115000Y-122334000D01*
X189155000Y-114939000D02*
X189155000Y-117377000D01*
X189155000Y-121858000D02*
X189155000Y-122297000D01*
X189195000Y-114978000D02*
X189195000Y-117377000D01*
X189195000Y-121858000D02*
X189195000Y-122258000D01*
X189235000Y-115017000D02*
X189235000Y-117377000D01*
X189235000Y-121858000D02*
X189235000Y-122219000D01*
X189275000Y-115057000D02*
X189275000Y-117377000D01*
X189275000Y-121858000D02*
X189275000Y-122179000D01*
X189315000Y-115098000D02*
X189315000Y-117377000D01*
X189315000Y-121858000D02*
X189315000Y-122138000D01*
X189355000Y-115140000D02*
X189355000Y-117377000D01*
X189355000Y-121858000D02*
X189355000Y-122096000D01*
X189395000Y-115182000D02*
X189395000Y-119378000D01*
X189395000Y-121858000D02*
X189395000Y-122054000D01*
X189435000Y-115226000D02*
X189435000Y-119378000D01*
X189435000Y-121858000D02*
X189435000Y-122010000D01*
X189475000Y-115271000D02*
X189475000Y-119378000D01*
X189475000Y-121858000D02*
X189475000Y-121965000D01*
X189515000Y-115317000D02*
X189515000Y-119378000D01*
X189515000Y-121858000D02*
X189515000Y-121919000D01*
X189555000Y-115364000D02*
X189555000Y-119378000D01*
X189555000Y-121858000D02*
X189555000Y-121872000D01*
X189595000Y-115412000D02*
X189595000Y-119378000D01*
X189635000Y-115462000D02*
X189635000Y-119378000D01*
X189675000Y-115512000D02*
X189675000Y-119378000D01*
X189715000Y-115564000D02*
X189715000Y-119378000D01*
X189755000Y-115618000D02*
X189755000Y-119378000D01*
X189795000Y-115673000D02*
X189795000Y-119378000D01*
X189835000Y-115729000D02*
X189835000Y-119378000D01*
X189875000Y-115788000D02*
X189875000Y-119378000D01*
X189915000Y-115848000D02*
X189915000Y-119378000D01*
X189955000Y-115909000D02*
X189955000Y-119378000D01*
X189995000Y-115973000D02*
X189995000Y-119378000D01*
X190035000Y-116039000D02*
X190035000Y-119378000D01*
X190075000Y-116108000D02*
X190075000Y-121128000D01*
X190115000Y-116179000D02*
X190115000Y-121057000D01*
X190155000Y-116253000D02*
X190155000Y-120983000D01*
X190195000Y-116329000D02*
X190195000Y-120907000D01*
X190235000Y-116409000D02*
X190235000Y-120827000D01*
X190275000Y-116493000D02*
X190275000Y-120743000D01*
X190315000Y-116581000D02*
X190315000Y-120655000D01*
X190355000Y-116674000D02*
X190355000Y-120562000D01*
X190395000Y-116772000D02*
X190395000Y-120464000D01*
X190435000Y-116876000D02*
X190435000Y-120360000D01*
X190475000Y-116988000D02*
X190475000Y-120248000D01*
X190515000Y-117108000D02*
X190515000Y-120128000D01*
X190555000Y-117240000D02*
X190555000Y-119996000D01*
X190595000Y-117388000D02*
X190595000Y-119848000D01*
X190635000Y-117556000D02*
X190635000Y-119680000D01*
X190675000Y-117756000D02*
X190675000Y-119480000D01*
X190715000Y-118019000D02*
X190715000Y-119217000D01*
X180154354Y-115743000D02*
X181154354Y-115743000D01*
X180654354Y-115243000D02*
X180654354Y-116243000D01*
X180809096Y-116904902D02*
G75*
G03*
X181685988Y-115358000I4824904J-1713098D01*
G01*
%TO.C,D2*%
X131912000Y-116936000D02*
X131912000Y-118776000D01*
X132152000Y-116936000D02*
X132152000Y-118776000D01*
X132032000Y-116936000D02*
X132032000Y-118776000D01*
X133884000Y-117856000D02*
X132704000Y-117856000D01*
X128244000Y-117856000D02*
X129424000Y-117856000D01*
X132704000Y-116936000D02*
X129424000Y-116936000D01*
X132704000Y-118776000D02*
X132704000Y-116936000D01*
X129424000Y-118776000D02*
X132704000Y-118776000D01*
X129424000Y-116936000D02*
X129424000Y-118776000D01*
%TO.C,D7*%
X138292000Y-92614000D02*
X138292000Y-90774000D01*
X138292000Y-90774000D02*
X135012000Y-90774000D01*
X135012000Y-90774000D02*
X135012000Y-92614000D01*
X135012000Y-92614000D02*
X138292000Y-92614000D01*
X139472000Y-91694000D02*
X138292000Y-91694000D01*
X133832000Y-91694000D02*
X135012000Y-91694000D01*
X135684000Y-92614000D02*
X135684000Y-90774000D01*
X135564000Y-92614000D02*
X135564000Y-90774000D01*
X135804000Y-92614000D02*
X135804000Y-90774000D01*
%TO.C,D10*%
X167036000Y-92710000D02*
X165196000Y-92710000D01*
X167036000Y-92710000D02*
X165196000Y-92710000D01*
X167036000Y-92710000D02*
X165196000Y-92710000D01*
X166116000Y-94768000D02*
X166116000Y-93588000D01*
X166116000Y-89128000D02*
X166116000Y-90308000D01*
X167036000Y-93588000D02*
X167036000Y-90308000D01*
X165196000Y-93588000D02*
X167036000Y-93588000D01*
X165196000Y-90308000D02*
X165196000Y-93588000D01*
X167036000Y-90308000D02*
X165196000Y-90308000D01*
%TO.C,D9*%
X158750000Y-89312000D02*
X158750000Y-87472000D01*
X158750000Y-89312000D02*
X158750000Y-87472000D01*
X158750000Y-89312000D02*
X158750000Y-87472000D01*
X156692000Y-88392000D02*
X157872000Y-88392000D01*
X162332000Y-88392000D02*
X161152000Y-88392000D01*
X157872000Y-89312000D02*
X161152000Y-89312000D01*
X157872000Y-87472000D02*
X157872000Y-89312000D01*
X161152000Y-87472000D02*
X157872000Y-87472000D01*
X161152000Y-89312000D02*
X161152000Y-87472000D01*
%TO.C,D14*%
X162422000Y-105314000D02*
X162422000Y-103474000D01*
X162422000Y-103474000D02*
X159142000Y-103474000D01*
X159142000Y-103474000D02*
X159142000Y-105314000D01*
X159142000Y-105314000D02*
X162422000Y-105314000D01*
X163602000Y-104394000D02*
X162422000Y-104394000D01*
X157962000Y-104394000D02*
X159142000Y-104394000D01*
X160020000Y-105314000D02*
X160020000Y-103474000D01*
X160020000Y-105314000D02*
X160020000Y-103474000D01*
X160020000Y-105314000D02*
X160020000Y-103474000D01*
%TO.C,D13*%
X157045430Y-110532354D02*
X155744354Y-111833430D01*
X157045430Y-110532354D02*
X155744354Y-111833430D01*
X157045430Y-110532354D02*
X155744354Y-111833430D01*
X157850118Y-112638118D02*
X157015732Y-111803732D01*
X153862036Y-108650036D02*
X154696422Y-109484422D01*
X157666270Y-111153194D02*
X155346960Y-108833883D01*
X156365194Y-112454270D02*
X157666270Y-111153194D01*
X154045883Y-110134960D02*
X156365194Y-112454270D01*
X155346960Y-108833883D02*
X154045883Y-110134960D01*
%TO.C,R4*%
X132758000Y-113284000D02*
X133868000Y-113284000D01*
X145118000Y-113284000D02*
X144008000Y-113284000D01*
X133868000Y-115204000D02*
X144008000Y-115204000D01*
X133868000Y-111364000D02*
X133868000Y-115204000D01*
X144008000Y-111364000D02*
X133868000Y-111364000D01*
X144008000Y-115204000D02*
X144008000Y-111364000D01*
%TO.C,D4*%
X114500000Y-124714000D02*
X111560000Y-124714000D01*
X114500000Y-124714000D02*
X111560000Y-124714000D01*
X114500000Y-124714000D02*
X111560000Y-124714000D01*
X113030000Y-126930000D02*
X113030000Y-125910000D01*
X113030000Y-119450000D02*
X113030000Y-120470000D01*
X114500000Y-125910000D02*
X114500000Y-120470000D01*
X111560000Y-125910000D02*
X114500000Y-125910000D01*
X111560000Y-120470000D02*
X111560000Y-125910000D01*
X114500000Y-120470000D02*
X111560000Y-120470000D01*
%TO.C,LED1*%
X52360000Y-114744000D02*
X52360000Y-114588000D01*
X52360000Y-117060000D02*
X52360000Y-116904000D01*
X49758870Y-114744163D02*
G75*
G02*
X51840961Y-114744000I1041130J-1079837D01*
G01*
X49758870Y-116903837D02*
G75*
G03*
X51840961Y-116904000I1041130J1079837D01*
G01*
X49127665Y-114745392D02*
G75*
G02*
X52360000Y-114588484I1672335J-1078608D01*
G01*
X49127665Y-116902608D02*
G75*
G03*
X52360000Y-117059516I1672335J1078608D01*
G01*
%TO.C,LED2*%
X47308000Y-89698000D02*
X47464000Y-89698000D01*
X44992000Y-89698000D02*
X45148000Y-89698000D01*
X47307837Y-87096870D02*
G75*
G02*
X47308000Y-89178961I-1079837J-1041130D01*
G01*
X45148163Y-87096870D02*
G75*
G03*
X45148000Y-89178961I1079837J-1041130D01*
G01*
X47306608Y-86465665D02*
G75*
G02*
X47463516Y-89698000I-1078608J-1672335D01*
G01*
X45149392Y-86465665D02*
G75*
G03*
X44992484Y-89698000I1078608J-1672335D01*
G01*
%TO.C,Q2*%
X54864000Y-136144000D02*
X54864000Y-135636000D01*
X65024000Y-136144000D02*
X65024000Y-135636000D01*
X65064000Y-137821000D02*
X65024000Y-136144000D01*
X54824000Y-137821000D02*
X54824000Y-136144000D01*
X65064000Y-142462000D02*
X54824000Y-142462000D01*
X65104000Y-135636000D02*
X54864000Y-135636000D01*
X65064000Y-142462000D02*
X65064000Y-137821000D01*
X54824000Y-142462000D02*
X54824000Y-137821000D01*
X65064000Y-140952000D02*
X54824000Y-140952000D01*
X61794000Y-142462000D02*
X61794000Y-140952000D01*
X58093000Y-142462000D02*
X58093000Y-140952000D01*
%TO.C,Q1*%
X165648000Y-136805000D02*
X165608000Y-134620000D01*
X155408000Y-136805000D02*
X155448000Y-134620000D01*
X165648000Y-141446000D02*
X155408000Y-141446000D01*
X165688000Y-134620000D02*
X155448000Y-134620000D01*
X165648000Y-141446000D02*
X165648000Y-136805000D01*
X155408000Y-141446000D02*
X155408000Y-136805000D01*
X165648000Y-139936000D02*
X155408000Y-139936000D01*
X162378000Y-141446000D02*
X162378000Y-139936000D01*
X158677000Y-141446000D02*
X158677000Y-139936000D01*
%TO.C,D1*%
X175314000Y-126238000D02*
X178254000Y-126238000D01*
X175314000Y-126238000D02*
X178254000Y-126238000D01*
X175314000Y-126238000D02*
X178254000Y-126238000D01*
X176784000Y-124022000D02*
X176784000Y-125042000D01*
X176784000Y-131502000D02*
X176784000Y-130482000D01*
X175314000Y-125042000D02*
X175314000Y-130482000D01*
X178254000Y-125042000D02*
X175314000Y-125042000D01*
X178254000Y-130482000D02*
X178254000Y-125042000D01*
X175314000Y-130482000D02*
X178254000Y-130482000D01*
%TO.C,D6*%
X103251000Y-95631000D02*
X106299000Y-95631000D01*
X104775000Y-93415000D02*
X104775000Y-94435000D01*
X104775000Y-100895000D02*
X104775000Y-99875000D01*
X103305000Y-94435000D02*
X103305000Y-99875000D01*
X106245000Y-94435000D02*
X103305000Y-94435000D01*
X106245000Y-99875000D02*
X106245000Y-94435000D01*
X103305000Y-99875000D02*
X106245000Y-99875000D01*
%TO.C,R42*%
X177800000Y-105434000D02*
X177800000Y-106204000D01*
X177800000Y-113514000D02*
X177800000Y-112744000D01*
X176430000Y-106204000D02*
X176430000Y-112744000D01*
X179170000Y-106204000D02*
X176430000Y-106204000D01*
X179170000Y-112744000D02*
X179170000Y-106204000D01*
X176430000Y-112744000D02*
X179170000Y-112744000D01*
%TO.C,J1*%
X179578000Y-124968000D02*
X179578000Y-140208000D01*
X187198000Y-124968000D02*
X187198000Y-140208000D01*
X180848000Y-124968000D02*
X180848000Y-140208000D01*
X179578000Y-140208000D02*
X187198000Y-140208000D01*
X179578000Y-124968000D02*
X187198000Y-124968000D01*
%TO.C,R2*%
X69045000Y-128905000D02*
X67935000Y-128905000D01*
X56685000Y-128905000D02*
X57795000Y-128905000D01*
X67935000Y-126985000D02*
X57795000Y-126985000D01*
X67935000Y-130825000D02*
X67935000Y-126985000D01*
X57795000Y-130825000D02*
X67935000Y-130825000D01*
X57795000Y-126985000D02*
X57795000Y-130825000D01*
%TO.C,L1*%
X47632457Y-110388295D02*
G75*
G02*
X39227363Y-118793389I-5234923J-3170171D01*
G01*
X45567705Y-108323543D02*
G75*
G03*
X37162611Y-116728637I-3170171J-5234923D01*
G01*
%TO.C,L2*%
X182816000Y-84306701D02*
G75*
G02*
X182816000Y-96193299I-1460000J-5943299D01*
G01*
X179896000Y-84306701D02*
G75*
G03*
X179896000Y-96193299I1460000J-5943299D01*
G01*
%TO.C,U6*%
X189680000Y-104017000D02*
X189680000Y-106631000D01*
X186280000Y-104017000D02*
X186280000Y-106631000D01*
X182880000Y-104017000D02*
X182880000Y-106647000D01*
X188130000Y-99376000D02*
X188130000Y-100885000D01*
X184430000Y-99376000D02*
X184430000Y-100885000D01*
X181159000Y-100885000D02*
X191400000Y-100885000D01*
X191400000Y-99376000D02*
X191400000Y-104017000D01*
X181159000Y-99376000D02*
X181159000Y-104017000D01*
X189045000Y-104017000D02*
X191400000Y-104017000D01*
X185645000Y-104017000D02*
X186915000Y-104017000D01*
X181159000Y-104017000D02*
X183515000Y-104017000D01*
X181159000Y-99376000D02*
X191400000Y-99376000D01*
%TO.C,C8*%
X167973000Y-88377698D02*
X168773000Y-88377698D01*
X168373000Y-88777698D02*
X168373000Y-87977698D01*
X170155000Y-80287000D02*
X171221000Y-80287000D01*
X169920000Y-80327000D02*
X171456000Y-80327000D01*
X169740000Y-80367000D02*
X171636000Y-80367000D01*
X169590000Y-80407000D02*
X171786000Y-80407000D01*
X169459000Y-80447000D02*
X171917000Y-80447000D01*
X169342000Y-80487000D02*
X172034000Y-80487000D01*
X169235000Y-80527000D02*
X172141000Y-80527000D01*
X169136000Y-80567000D02*
X172240000Y-80567000D01*
X169043000Y-80607000D02*
X172333000Y-80607000D01*
X168957000Y-80647000D02*
X172419000Y-80647000D01*
X168875000Y-80687000D02*
X172501000Y-80687000D01*
X168798000Y-80727000D02*
X172578000Y-80727000D01*
X168724000Y-80767000D02*
X172652000Y-80767000D01*
X168654000Y-80807000D02*
X172722000Y-80807000D01*
X171728000Y-80847000D02*
X172790000Y-80847000D01*
X168586000Y-80847000D02*
X169648000Y-80847000D01*
X171728000Y-80887000D02*
X172854000Y-80887000D01*
X168522000Y-80887000D02*
X169648000Y-80887000D01*
X171728000Y-80927000D02*
X172916000Y-80927000D01*
X168460000Y-80927000D02*
X169648000Y-80927000D01*
X171728000Y-80967000D02*
X172975000Y-80967000D01*
X168401000Y-80967000D02*
X169648000Y-80967000D01*
X171728000Y-81007000D02*
X173033000Y-81007000D01*
X168343000Y-81007000D02*
X169648000Y-81007000D01*
X171728000Y-81047000D02*
X173088000Y-81047000D01*
X168288000Y-81047000D02*
X169648000Y-81047000D01*
X171728000Y-81087000D02*
X173142000Y-81087000D01*
X168234000Y-81087000D02*
X169648000Y-81087000D01*
X171728000Y-81127000D02*
X173193000Y-81127000D01*
X168183000Y-81127000D02*
X169648000Y-81127000D01*
X171728000Y-81167000D02*
X173244000Y-81167000D01*
X168132000Y-81167000D02*
X169648000Y-81167000D01*
X171728000Y-81207000D02*
X173292000Y-81207000D01*
X168084000Y-81207000D02*
X169648000Y-81207000D01*
X171728000Y-81247000D02*
X173339000Y-81247000D01*
X168037000Y-81247000D02*
X169648000Y-81247000D01*
X171728000Y-81287000D02*
X173385000Y-81287000D01*
X167991000Y-81287000D02*
X169648000Y-81287000D01*
X171728000Y-81327000D02*
X173429000Y-81327000D01*
X167947000Y-81327000D02*
X169648000Y-81327000D01*
X171728000Y-81367000D02*
X173472000Y-81367000D01*
X167904000Y-81367000D02*
X169648000Y-81367000D01*
X171728000Y-81407000D02*
X173514000Y-81407000D01*
X167862000Y-81407000D02*
X169648000Y-81407000D01*
X171728000Y-81447000D02*
X173555000Y-81447000D01*
X167821000Y-81447000D02*
X169648000Y-81447000D01*
X171728000Y-81487000D02*
X173595000Y-81487000D01*
X167781000Y-81487000D02*
X169648000Y-81487000D01*
X171728000Y-81527000D02*
X173633000Y-81527000D01*
X167743000Y-81527000D02*
X169648000Y-81527000D01*
X171728000Y-81567000D02*
X173671000Y-81567000D01*
X167705000Y-81567000D02*
X169648000Y-81567000D01*
X171728000Y-81607000D02*
X173707000Y-81607000D01*
X167669000Y-81607000D02*
X169648000Y-81607000D01*
X171728000Y-81647000D02*
X173743000Y-81647000D01*
X167633000Y-81647000D02*
X169648000Y-81647000D01*
X171728000Y-81687000D02*
X173778000Y-81687000D01*
X167598000Y-81687000D02*
X169648000Y-81687000D01*
X171728000Y-81727000D02*
X173812000Y-81727000D01*
X167564000Y-81727000D02*
X169648000Y-81727000D01*
X171728000Y-81767000D02*
X173844000Y-81767000D01*
X167532000Y-81767000D02*
X169648000Y-81767000D01*
X171728000Y-81807000D02*
X173877000Y-81807000D01*
X167499000Y-81807000D02*
X169648000Y-81807000D01*
X171728000Y-81847000D02*
X173908000Y-81847000D01*
X167468000Y-81847000D02*
X169648000Y-81847000D01*
X171728000Y-81887000D02*
X173938000Y-81887000D01*
X167438000Y-81887000D02*
X169648000Y-81887000D01*
X171728000Y-81927000D02*
X173968000Y-81927000D01*
X167408000Y-81927000D02*
X169648000Y-81927000D01*
X171728000Y-81967000D02*
X173997000Y-81967000D01*
X167379000Y-81967000D02*
X169648000Y-81967000D01*
X171728000Y-82007000D02*
X174026000Y-82007000D01*
X167350000Y-82007000D02*
X169648000Y-82007000D01*
X171728000Y-82047000D02*
X174053000Y-82047000D01*
X167323000Y-82047000D02*
X169648000Y-82047000D01*
X171728000Y-82087000D02*
X174080000Y-82087000D01*
X167296000Y-82087000D02*
X169648000Y-82087000D01*
X171728000Y-82127000D02*
X174106000Y-82127000D01*
X167270000Y-82127000D02*
X169648000Y-82127000D01*
X171728000Y-82167000D02*
X174132000Y-82167000D01*
X167244000Y-82167000D02*
X169648000Y-82167000D01*
X171728000Y-82207000D02*
X174157000Y-82207000D01*
X167219000Y-82207000D02*
X169648000Y-82207000D01*
X171728000Y-82247000D02*
X174181000Y-82247000D01*
X167195000Y-82247000D02*
X169648000Y-82247000D01*
X171728000Y-82287000D02*
X174205000Y-82287000D01*
X167171000Y-82287000D02*
X169648000Y-82287000D01*
X171728000Y-82327000D02*
X174228000Y-82327000D01*
X167148000Y-82327000D02*
X169648000Y-82327000D01*
X171728000Y-82367000D02*
X174250000Y-82367000D01*
X167126000Y-82367000D02*
X169648000Y-82367000D01*
X171728000Y-82407000D02*
X174272000Y-82407000D01*
X167104000Y-82407000D02*
X169648000Y-82407000D01*
X171728000Y-82447000D02*
X174294000Y-82447000D01*
X167082000Y-82447000D02*
X169648000Y-82447000D01*
X171728000Y-82487000D02*
X174315000Y-82487000D01*
X167061000Y-82487000D02*
X169648000Y-82487000D01*
X171728000Y-82527000D02*
X174335000Y-82527000D01*
X167041000Y-82527000D02*
X169648000Y-82527000D01*
X171728000Y-82567000D02*
X174354000Y-82567000D01*
X167022000Y-82567000D02*
X169648000Y-82567000D01*
X171728000Y-82607000D02*
X174374000Y-82607000D01*
X167002000Y-82607000D02*
X169648000Y-82607000D01*
X171728000Y-82647000D02*
X174392000Y-82647000D01*
X166984000Y-82647000D02*
X169648000Y-82647000D01*
X171728000Y-82687000D02*
X174410000Y-82687000D01*
X166966000Y-82687000D02*
X169648000Y-82687000D01*
X171728000Y-82727000D02*
X174428000Y-82727000D01*
X166948000Y-82727000D02*
X169648000Y-82727000D01*
X171728000Y-82767000D02*
X174445000Y-82767000D01*
X166931000Y-82767000D02*
X169648000Y-82767000D01*
X171728000Y-82807000D02*
X174462000Y-82807000D01*
X166914000Y-82807000D02*
X169648000Y-82807000D01*
X171728000Y-82847000D02*
X174478000Y-82847000D01*
X166898000Y-82847000D02*
X169648000Y-82847000D01*
X171728000Y-82887000D02*
X174493000Y-82887000D01*
X166883000Y-82887000D02*
X169648000Y-82887000D01*
X166867000Y-82927000D02*
X174509000Y-82927000D01*
X166853000Y-82967000D02*
X174523000Y-82967000D01*
X166838000Y-83007000D02*
X174538000Y-83007000D01*
X166825000Y-83047000D02*
X174551000Y-83047000D01*
X166811000Y-83087000D02*
X174565000Y-83087000D01*
X166799000Y-83127000D02*
X174577000Y-83127000D01*
X166786000Y-83167000D02*
X174590000Y-83167000D01*
X166774000Y-83207000D02*
X174602000Y-83207000D01*
X166763000Y-83247000D02*
X174613000Y-83247000D01*
X166752000Y-83287000D02*
X174624000Y-83287000D01*
X166741000Y-83327000D02*
X174635000Y-83327000D01*
X166731000Y-83367000D02*
X174645000Y-83367000D01*
X166721000Y-83407000D02*
X174655000Y-83407000D01*
X166712000Y-83447000D02*
X174664000Y-83447000D01*
X166703000Y-83487000D02*
X174673000Y-83487000D01*
X166694000Y-83527000D02*
X174682000Y-83527000D01*
X166686000Y-83567000D02*
X174690000Y-83567000D01*
X166678000Y-83607000D02*
X174698000Y-83607000D01*
X166671000Y-83647000D02*
X174705000Y-83647000D01*
X166664000Y-83688000D02*
X174712000Y-83688000D01*
X166658000Y-83728000D02*
X174718000Y-83728000D01*
X166651000Y-83768000D02*
X174725000Y-83768000D01*
X166646000Y-83808000D02*
X174730000Y-83808000D01*
X166640000Y-83848000D02*
X174736000Y-83848000D01*
X166636000Y-83888000D02*
X174740000Y-83888000D01*
X166631000Y-83928000D02*
X174745000Y-83928000D01*
X166627000Y-83968000D02*
X174749000Y-83968000D01*
X166623000Y-84008000D02*
X174753000Y-84008000D01*
X166620000Y-84048000D02*
X174756000Y-84048000D01*
X166617000Y-84088000D02*
X174759000Y-84088000D01*
X166614000Y-84128000D02*
X174762000Y-84128000D01*
X166612000Y-84168000D02*
X174764000Y-84168000D01*
X166611000Y-84208000D02*
X174765000Y-84208000D01*
X166609000Y-84248000D02*
X174767000Y-84248000D01*
X166608000Y-84288000D02*
X174768000Y-84288000D01*
X166608000Y-84328000D02*
X174768000Y-84328000D01*
X166608000Y-84368000D02*
X174768000Y-84368000D01*
X174808000Y-84368000D02*
G75*
G03*
X174808000Y-84368000I-4120000J0D01*
G01*
%TO.C,R45*%
X170942000Y-93496000D02*
X170942000Y-94266000D01*
X170942000Y-101576000D02*
X170942000Y-100806000D01*
X169572000Y-94266000D02*
X169572000Y-100806000D01*
X172312000Y-94266000D02*
X169572000Y-94266000D01*
X172312000Y-100806000D02*
X172312000Y-94266000D01*
X169572000Y-100806000D02*
X172312000Y-100806000D01*
%TO.C,R27*%
X141200000Y-94742000D02*
X140430000Y-94742000D01*
X133120000Y-94742000D02*
X133890000Y-94742000D01*
X140430000Y-93372000D02*
X133890000Y-93372000D01*
X140430000Y-96112000D02*
X140430000Y-93372000D01*
X133890000Y-96112000D02*
X140430000Y-96112000D01*
X133890000Y-93372000D02*
X133890000Y-96112000D01*
%TO.C,C3*%
X124153000Y-92675225D02*
X123653000Y-92675225D01*
X123903000Y-92425225D02*
X123903000Y-92925225D01*
X122712000Y-97831000D02*
X122144000Y-97831000D01*
X122946000Y-97791000D02*
X121910000Y-97791000D01*
X123105000Y-97751000D02*
X121751000Y-97751000D01*
X123233000Y-97711000D02*
X121623000Y-97711000D01*
X123343000Y-97671000D02*
X121513000Y-97671000D01*
X123439000Y-97631000D02*
X121417000Y-97631000D01*
X123526000Y-97591000D02*
X121330000Y-97591000D01*
X123606000Y-97551000D02*
X121250000Y-97551000D01*
X121388000Y-97511000D02*
X121177000Y-97511000D01*
X123679000Y-97511000D02*
X123468000Y-97511000D01*
X121388000Y-97471000D02*
X121109000Y-97471000D01*
X123747000Y-97471000D02*
X123468000Y-97471000D01*
X121388000Y-97431000D02*
X121045000Y-97431000D01*
X123811000Y-97431000D02*
X123468000Y-97431000D01*
X121388000Y-97391000D02*
X120985000Y-97391000D01*
X123871000Y-97391000D02*
X123468000Y-97391000D01*
X121388000Y-97351000D02*
X120928000Y-97351000D01*
X123928000Y-97351000D02*
X123468000Y-97351000D01*
X121388000Y-97311000D02*
X120874000Y-97311000D01*
X123982000Y-97311000D02*
X123468000Y-97311000D01*
X121388000Y-97271000D02*
X120823000Y-97271000D01*
X124033000Y-97271000D02*
X123468000Y-97271000D01*
X121388000Y-97231000D02*
X120775000Y-97231000D01*
X124081000Y-97231000D02*
X123468000Y-97231000D01*
X121388000Y-97191000D02*
X120729000Y-97191000D01*
X124127000Y-97191000D02*
X123468000Y-97191000D01*
X121388000Y-97151000D02*
X120685000Y-97151000D01*
X124171000Y-97151000D02*
X123468000Y-97151000D01*
X121388000Y-97111000D02*
X120643000Y-97111000D01*
X124213000Y-97111000D02*
X123468000Y-97111000D01*
X121388000Y-97071000D02*
X120602000Y-97071000D01*
X124254000Y-97071000D02*
X123468000Y-97071000D01*
X121388000Y-97031000D02*
X120564000Y-97031000D01*
X124292000Y-97031000D02*
X123468000Y-97031000D01*
X121388000Y-96991000D02*
X120527000Y-96991000D01*
X124329000Y-96991000D02*
X123468000Y-96991000D01*
X121388000Y-96951000D02*
X120491000Y-96951000D01*
X124365000Y-96951000D02*
X123468000Y-96951000D01*
X121388000Y-96911000D02*
X120457000Y-96911000D01*
X124399000Y-96911000D02*
X123468000Y-96911000D01*
X121388000Y-96871000D02*
X120424000Y-96871000D01*
X124432000Y-96871000D02*
X123468000Y-96871000D01*
X121388000Y-96831000D02*
X120393000Y-96831000D01*
X124463000Y-96831000D02*
X123468000Y-96831000D01*
X121388000Y-96791000D02*
X120363000Y-96791000D01*
X124493000Y-96791000D02*
X123468000Y-96791000D01*
X121388000Y-96751000D02*
X120333000Y-96751000D01*
X124523000Y-96751000D02*
X123468000Y-96751000D01*
X121388000Y-96711000D02*
X120306000Y-96711000D01*
X124550000Y-96711000D02*
X123468000Y-96711000D01*
X121388000Y-96671000D02*
X120279000Y-96671000D01*
X124577000Y-96671000D02*
X123468000Y-96671000D01*
X121388000Y-96631000D02*
X120253000Y-96631000D01*
X124603000Y-96631000D02*
X123468000Y-96631000D01*
X121388000Y-96591000D02*
X120228000Y-96591000D01*
X124628000Y-96591000D02*
X123468000Y-96591000D01*
X121388000Y-96551000D02*
X120204000Y-96551000D01*
X124652000Y-96551000D02*
X123468000Y-96551000D01*
X121388000Y-96511000D02*
X120181000Y-96511000D01*
X124675000Y-96511000D02*
X123468000Y-96511000D01*
X121388000Y-96471000D02*
X120160000Y-96471000D01*
X124696000Y-96471000D02*
X123468000Y-96471000D01*
X121388000Y-96431000D02*
X120138000Y-96431000D01*
X124718000Y-96431000D02*
X123468000Y-96431000D01*
X121388000Y-96391000D02*
X120118000Y-96391000D01*
X124738000Y-96391000D02*
X123468000Y-96391000D01*
X121388000Y-96351000D02*
X120099000Y-96351000D01*
X124757000Y-96351000D02*
X123468000Y-96351000D01*
X121388000Y-96311000D02*
X120080000Y-96311000D01*
X124776000Y-96311000D02*
X123468000Y-96311000D01*
X121388000Y-96271000D02*
X120063000Y-96271000D01*
X124793000Y-96271000D02*
X123468000Y-96271000D01*
X121388000Y-96231000D02*
X120046000Y-96231000D01*
X124810000Y-96231000D02*
X123468000Y-96231000D01*
X121388000Y-96191000D02*
X120030000Y-96191000D01*
X124826000Y-96191000D02*
X123468000Y-96191000D01*
X121388000Y-96151000D02*
X120014000Y-96151000D01*
X124842000Y-96151000D02*
X123468000Y-96151000D01*
X121388000Y-96111000D02*
X120000000Y-96111000D01*
X124856000Y-96111000D02*
X123468000Y-96111000D01*
X121388000Y-96071000D02*
X119986000Y-96071000D01*
X124870000Y-96071000D02*
X123468000Y-96071000D01*
X121388000Y-96031000D02*
X119973000Y-96031000D01*
X124883000Y-96031000D02*
X123468000Y-96031000D01*
X121388000Y-95991000D02*
X119960000Y-95991000D01*
X124896000Y-95991000D02*
X123468000Y-95991000D01*
X121388000Y-95951000D02*
X119948000Y-95951000D01*
X124908000Y-95951000D02*
X123468000Y-95951000D01*
X121388000Y-95910000D02*
X119937000Y-95910000D01*
X124919000Y-95910000D02*
X123468000Y-95910000D01*
X121388000Y-95870000D02*
X119927000Y-95870000D01*
X124929000Y-95870000D02*
X123468000Y-95870000D01*
X121388000Y-95830000D02*
X119917000Y-95830000D01*
X124939000Y-95830000D02*
X123468000Y-95830000D01*
X121388000Y-95790000D02*
X119908000Y-95790000D01*
X124948000Y-95790000D02*
X123468000Y-95790000D01*
X121388000Y-95750000D02*
X119900000Y-95750000D01*
X124956000Y-95750000D02*
X123468000Y-95750000D01*
X121388000Y-95710000D02*
X119892000Y-95710000D01*
X124964000Y-95710000D02*
X123468000Y-95710000D01*
X121388000Y-95670000D02*
X119885000Y-95670000D01*
X124971000Y-95670000D02*
X123468000Y-95670000D01*
X121388000Y-95630000D02*
X119878000Y-95630000D01*
X124978000Y-95630000D02*
X123468000Y-95630000D01*
X121388000Y-95590000D02*
X119872000Y-95590000D01*
X124984000Y-95590000D02*
X123468000Y-95590000D01*
X121388000Y-95550000D02*
X119867000Y-95550000D01*
X124989000Y-95550000D02*
X123468000Y-95550000D01*
X121388000Y-95510000D02*
X119863000Y-95510000D01*
X124993000Y-95510000D02*
X123468000Y-95510000D01*
X121388000Y-95470000D02*
X119859000Y-95470000D01*
X124997000Y-95470000D02*
X123468000Y-95470000D01*
X125001000Y-95430000D02*
X119855000Y-95430000D01*
X125004000Y-95390000D02*
X119852000Y-95390000D01*
X125006000Y-95350000D02*
X119850000Y-95350000D01*
X125007000Y-95310000D02*
X119849000Y-95310000D01*
X125008000Y-95270000D02*
X119848000Y-95270000D01*
X125008000Y-95230000D02*
X119848000Y-95230000D01*
X125048000Y-95230000D02*
G75*
G03*
X125048000Y-95230000I-2620000J0D01*
G01*
%TO.C,R46*%
X164108000Y-119634000D02*
X164878000Y-119634000D01*
X172188000Y-119634000D02*
X171418000Y-119634000D01*
X164878000Y-121004000D02*
X171418000Y-121004000D01*
X164878000Y-118264000D02*
X164878000Y-121004000D01*
X171418000Y-118264000D02*
X164878000Y-118264000D01*
X171418000Y-121004000D02*
X171418000Y-118264000D01*
%TO.C,R47*%
X172188000Y-122682000D02*
X171418000Y-122682000D01*
X164108000Y-122682000D02*
X164878000Y-122682000D01*
X171418000Y-121312000D02*
X164878000Y-121312000D01*
X171418000Y-124052000D02*
X171418000Y-121312000D01*
X164878000Y-124052000D02*
X171418000Y-124052000D01*
X164878000Y-121312000D02*
X164878000Y-124052000D01*
%TO.C,R12*%
X50546000Y-83336000D02*
X50546000Y-84106000D01*
X50546000Y-91416000D02*
X50546000Y-90646000D01*
X49176000Y-84106000D02*
X49176000Y-90646000D01*
X51916000Y-84106000D02*
X49176000Y-84106000D01*
X51916000Y-90646000D02*
X51916000Y-84106000D01*
X49176000Y-90646000D02*
X51916000Y-90646000D01*
%TO.C,C16*%
X55845225Y-89207000D02*
X55845225Y-89707000D01*
X55595225Y-89457000D02*
X56095225Y-89457000D01*
X61001000Y-90648000D02*
X61001000Y-91216000D01*
X60961000Y-90414000D02*
X60961000Y-91450000D01*
X60921000Y-90255000D02*
X60921000Y-91609000D01*
X60881000Y-90127000D02*
X60881000Y-91737000D01*
X60841000Y-90017000D02*
X60841000Y-91847000D01*
X60801000Y-89921000D02*
X60801000Y-91943000D01*
X60761000Y-89834000D02*
X60761000Y-92030000D01*
X60721000Y-89754000D02*
X60721000Y-92110000D01*
X60681000Y-91972000D02*
X60681000Y-92183000D01*
X60681000Y-89681000D02*
X60681000Y-89892000D01*
X60641000Y-91972000D02*
X60641000Y-92251000D01*
X60641000Y-89613000D02*
X60641000Y-89892000D01*
X60601000Y-91972000D02*
X60601000Y-92315000D01*
X60601000Y-89549000D02*
X60601000Y-89892000D01*
X60561000Y-91972000D02*
X60561000Y-92375000D01*
X60561000Y-89489000D02*
X60561000Y-89892000D01*
X60521000Y-91972000D02*
X60521000Y-92432000D01*
X60521000Y-89432000D02*
X60521000Y-89892000D01*
X60481000Y-91972000D02*
X60481000Y-92486000D01*
X60481000Y-89378000D02*
X60481000Y-89892000D01*
X60441000Y-91972000D02*
X60441000Y-92537000D01*
X60441000Y-89327000D02*
X60441000Y-89892000D01*
X60401000Y-91972000D02*
X60401000Y-92585000D01*
X60401000Y-89279000D02*
X60401000Y-89892000D01*
X60361000Y-91972000D02*
X60361000Y-92631000D01*
X60361000Y-89233000D02*
X60361000Y-89892000D01*
X60321000Y-91972000D02*
X60321000Y-92675000D01*
X60321000Y-89189000D02*
X60321000Y-89892000D01*
X60281000Y-91972000D02*
X60281000Y-92717000D01*
X60281000Y-89147000D02*
X60281000Y-89892000D01*
X60241000Y-91972000D02*
X60241000Y-92758000D01*
X60241000Y-89106000D02*
X60241000Y-89892000D01*
X60201000Y-91972000D02*
X60201000Y-92796000D01*
X60201000Y-89068000D02*
X60201000Y-89892000D01*
X60161000Y-91972000D02*
X60161000Y-92833000D01*
X60161000Y-89031000D02*
X60161000Y-89892000D01*
X60121000Y-91972000D02*
X60121000Y-92869000D01*
X60121000Y-88995000D02*
X60121000Y-89892000D01*
X60081000Y-91972000D02*
X60081000Y-92903000D01*
X60081000Y-88961000D02*
X60081000Y-89892000D01*
X60041000Y-91972000D02*
X60041000Y-92936000D01*
X60041000Y-88928000D02*
X60041000Y-89892000D01*
X60001000Y-91972000D02*
X60001000Y-92967000D01*
X60001000Y-88897000D02*
X60001000Y-89892000D01*
X59961000Y-91972000D02*
X59961000Y-92997000D01*
X59961000Y-88867000D02*
X59961000Y-89892000D01*
X59921000Y-91972000D02*
X59921000Y-93027000D01*
X59921000Y-88837000D02*
X59921000Y-89892000D01*
X59881000Y-91972000D02*
X59881000Y-93054000D01*
X59881000Y-88810000D02*
X59881000Y-89892000D01*
X59841000Y-91972000D02*
X59841000Y-93081000D01*
X59841000Y-88783000D02*
X59841000Y-89892000D01*
X59801000Y-91972000D02*
X59801000Y-93107000D01*
X59801000Y-88757000D02*
X59801000Y-89892000D01*
X59761000Y-91972000D02*
X59761000Y-93132000D01*
X59761000Y-88732000D02*
X59761000Y-89892000D01*
X59721000Y-91972000D02*
X59721000Y-93156000D01*
X59721000Y-88708000D02*
X59721000Y-89892000D01*
X59681000Y-91972000D02*
X59681000Y-93179000D01*
X59681000Y-88685000D02*
X59681000Y-89892000D01*
X59641000Y-91972000D02*
X59641000Y-93200000D01*
X59641000Y-88664000D02*
X59641000Y-89892000D01*
X59601000Y-91972000D02*
X59601000Y-93222000D01*
X59601000Y-88642000D02*
X59601000Y-89892000D01*
X59561000Y-91972000D02*
X59561000Y-93242000D01*
X59561000Y-88622000D02*
X59561000Y-89892000D01*
X59521000Y-91972000D02*
X59521000Y-93261000D01*
X59521000Y-88603000D02*
X59521000Y-89892000D01*
X59481000Y-91972000D02*
X59481000Y-93280000D01*
X59481000Y-88584000D02*
X59481000Y-89892000D01*
X59441000Y-91972000D02*
X59441000Y-93297000D01*
X59441000Y-88567000D02*
X59441000Y-89892000D01*
X59401000Y-91972000D02*
X59401000Y-93314000D01*
X59401000Y-88550000D02*
X59401000Y-89892000D01*
X59361000Y-91972000D02*
X59361000Y-93330000D01*
X59361000Y-88534000D02*
X59361000Y-89892000D01*
X59321000Y-91972000D02*
X59321000Y-93346000D01*
X59321000Y-88518000D02*
X59321000Y-89892000D01*
X59281000Y-91972000D02*
X59281000Y-93360000D01*
X59281000Y-88504000D02*
X59281000Y-89892000D01*
X59241000Y-91972000D02*
X59241000Y-93374000D01*
X59241000Y-88490000D02*
X59241000Y-89892000D01*
X59201000Y-91972000D02*
X59201000Y-93387000D01*
X59201000Y-88477000D02*
X59201000Y-89892000D01*
X59161000Y-91972000D02*
X59161000Y-93400000D01*
X59161000Y-88464000D02*
X59161000Y-89892000D01*
X59121000Y-91972000D02*
X59121000Y-93412000D01*
X59121000Y-88452000D02*
X59121000Y-89892000D01*
X59080000Y-91972000D02*
X59080000Y-93423000D01*
X59080000Y-88441000D02*
X59080000Y-89892000D01*
X59040000Y-91972000D02*
X59040000Y-93433000D01*
X59040000Y-88431000D02*
X59040000Y-89892000D01*
X59000000Y-91972000D02*
X59000000Y-93443000D01*
X59000000Y-88421000D02*
X59000000Y-89892000D01*
X58960000Y-91972000D02*
X58960000Y-93452000D01*
X58960000Y-88412000D02*
X58960000Y-89892000D01*
X58920000Y-91972000D02*
X58920000Y-93460000D01*
X58920000Y-88404000D02*
X58920000Y-89892000D01*
X58880000Y-91972000D02*
X58880000Y-93468000D01*
X58880000Y-88396000D02*
X58880000Y-89892000D01*
X58840000Y-91972000D02*
X58840000Y-93475000D01*
X58840000Y-88389000D02*
X58840000Y-89892000D01*
X58800000Y-91972000D02*
X58800000Y-93482000D01*
X58800000Y-88382000D02*
X58800000Y-89892000D01*
X58760000Y-91972000D02*
X58760000Y-93488000D01*
X58760000Y-88376000D02*
X58760000Y-89892000D01*
X58720000Y-91972000D02*
X58720000Y-93493000D01*
X58720000Y-88371000D02*
X58720000Y-89892000D01*
X58680000Y-91972000D02*
X58680000Y-93497000D01*
X58680000Y-88367000D02*
X58680000Y-89892000D01*
X58640000Y-91972000D02*
X58640000Y-93501000D01*
X58640000Y-88363000D02*
X58640000Y-89892000D01*
X58600000Y-88359000D02*
X58600000Y-93505000D01*
X58560000Y-88356000D02*
X58560000Y-93508000D01*
X58520000Y-88354000D02*
X58520000Y-93510000D01*
X58480000Y-88353000D02*
X58480000Y-93511000D01*
X58440000Y-88352000D02*
X58440000Y-93512000D01*
X58400000Y-88352000D02*
X58400000Y-93512000D01*
X61020000Y-90932000D02*
G75*
G03*
X61020000Y-90932000I-2620000J0D01*
G01*
%TO.C,C12*%
X69836000Y-80010000D02*
X71200000Y-80010000D01*
X65960000Y-80010000D02*
X67324000Y-80010000D01*
X69836000Y-87750000D02*
X71200000Y-87750000D01*
X65960000Y-87750000D02*
X67324000Y-87750000D01*
X71200000Y-87750000D02*
X71200000Y-80010000D01*
X65960000Y-87750000D02*
X65960000Y-80010000D01*
%TO.C,R14*%
X141632000Y-106394000D02*
X144372000Y-106394000D01*
X144372000Y-106394000D02*
X144372000Y-99854000D01*
X144372000Y-99854000D02*
X141632000Y-99854000D01*
X141632000Y-99854000D02*
X141632000Y-106394000D01*
X143002000Y-107164000D02*
X143002000Y-106394000D01*
X143002000Y-99084000D02*
X143002000Y-99854000D01*
%TO.C,R29*%
X151484000Y-98330000D02*
X148744000Y-98330000D01*
X148744000Y-98330000D02*
X148744000Y-104870000D01*
X148744000Y-104870000D02*
X151484000Y-104870000D01*
X151484000Y-104870000D02*
X151484000Y-98330000D01*
X150114000Y-97560000D02*
X150114000Y-98330000D01*
X150114000Y-105640000D02*
X150114000Y-104870000D01*
%TO.C,R28*%
X152754000Y-85630000D02*
X150014000Y-85630000D01*
X150014000Y-85630000D02*
X150014000Y-92170000D01*
X150014000Y-92170000D02*
X152754000Y-92170000D01*
X152754000Y-92170000D02*
X152754000Y-85630000D01*
X151384000Y-84860000D02*
X151384000Y-85630000D01*
X151384000Y-92940000D02*
X151384000Y-92170000D01*
%TO.C,R20*%
X79915000Y-95785000D02*
X79915000Y-98525000D01*
X79915000Y-98525000D02*
X86455000Y-98525000D01*
X86455000Y-98525000D02*
X86455000Y-95785000D01*
X86455000Y-95785000D02*
X79915000Y-95785000D01*
X79145000Y-97155000D02*
X79915000Y-97155000D01*
X87225000Y-97155000D02*
X86455000Y-97155000D01*
%TO.C,R18*%
X114400000Y-90202000D02*
X111660000Y-90202000D01*
X111660000Y-90202000D02*
X111660000Y-96742000D01*
X111660000Y-96742000D02*
X114400000Y-96742000D01*
X114400000Y-96742000D02*
X114400000Y-90202000D01*
X113030000Y-89432000D02*
X113030000Y-90202000D01*
X113030000Y-97512000D02*
X113030000Y-96742000D01*
%TO.C,R5*%
X119988000Y-103410000D02*
X117248000Y-103410000D01*
X117248000Y-103410000D02*
X117248000Y-109950000D01*
X117248000Y-109950000D02*
X119988000Y-109950000D01*
X119988000Y-109950000D02*
X119988000Y-103410000D01*
X118618000Y-102640000D02*
X118618000Y-103410000D01*
X118618000Y-110720000D02*
X118618000Y-109950000D01*
%TO.C,R16*%
X91794000Y-81058000D02*
X89054000Y-81058000D01*
X89054000Y-81058000D02*
X89054000Y-87598000D01*
X89054000Y-87598000D02*
X91794000Y-87598000D01*
X91794000Y-87598000D02*
X91794000Y-81058000D01*
X90424000Y-80288000D02*
X90424000Y-81058000D01*
X90424000Y-88368000D02*
X90424000Y-87598000D01*
%TO.C,R17*%
X75030000Y-81820000D02*
X72290000Y-81820000D01*
X72290000Y-81820000D02*
X72290000Y-88360000D01*
X72290000Y-88360000D02*
X75030000Y-88360000D01*
X75030000Y-88360000D02*
X75030000Y-81820000D01*
X73660000Y-81050000D02*
X73660000Y-81820000D01*
X73660000Y-89130000D02*
X73660000Y-88360000D01*
%TO.C,C19*%
X39499339Y-129820964D02*
X40383222Y-130704848D01*
X39499339Y-130704848D02*
X40383222Y-129820964D01*
X51121404Y-123690290D02*
X51569710Y-124138596D01*
X50781993Y-123407448D02*
X51852552Y-124478007D01*
X50562082Y-123244106D02*
X52015894Y-124697918D01*
X50383184Y-123121777D02*
X52138223Y-124876816D01*
X50226914Y-123022075D02*
X52237925Y-125033086D01*
X50084785Y-122936515D02*
X52323485Y-125175215D01*
X49953971Y-122862268D02*
X52397732Y-125306029D01*
X49831641Y-122796508D02*
X52463492Y-125428359D01*
X49716383Y-122737818D02*
X52522182Y-125543617D01*
X49606074Y-122684078D02*
X52575922Y-125653926D01*
X49500715Y-122635287D02*
X52624713Y-125759285D01*
X49399599Y-122590739D02*
X52669261Y-125860401D01*
X49302018Y-122549727D02*
X52710273Y-125957982D01*
X49207266Y-122511543D02*
X52748457Y-126052734D01*
X49115342Y-122476188D02*
X52783812Y-126144658D01*
X49025539Y-122442954D02*
X52817046Y-126234461D01*
X48938565Y-122412549D02*
X52847451Y-126321435D01*
X48853712Y-122384264D02*
X52875736Y-126406288D01*
X48770981Y-122358101D02*
X52901899Y-126489019D01*
X48689664Y-122333353D02*
X52926647Y-126570336D01*
X48609761Y-122310018D02*
X52949982Y-126650239D01*
X48531272Y-122288098D02*
X52971902Y-126728728D01*
X48454904Y-122268299D02*
X52991701Y-126805096D01*
X48379244Y-122249207D02*
X53010793Y-126880756D01*
X48305705Y-122232236D02*
X53027764Y-126954295D01*
X48232873Y-122215973D02*
X53044027Y-127027127D01*
X48160748Y-122200416D02*
X53059584Y-127099252D01*
X48090037Y-122186274D02*
X53073726Y-127169963D01*
X48020033Y-122172839D02*
X53087161Y-127239967D01*
X47951444Y-122160819D02*
X53099181Y-127308556D01*
X51515262Y-125781205D02*
X53110495Y-127376438D01*
X47883562Y-122149505D02*
X49478795Y-123744738D01*
X51486978Y-125809490D02*
X53120395Y-127442906D01*
X47817094Y-122139605D02*
X49450510Y-123773022D01*
X51458694Y-125837774D02*
X53130294Y-127509374D01*
X47750626Y-122129706D02*
X49422226Y-123801306D01*
X51430409Y-125866058D02*
X53138779Y-127574428D01*
X47685572Y-122121221D02*
X49393942Y-123829591D01*
X51402125Y-125894342D02*
X53146558Y-127638775D01*
X47621225Y-122113442D02*
X49365658Y-123857875D01*
X51373841Y-125922627D02*
X53153629Y-127702414D01*
X47557586Y-122106371D02*
X49337373Y-123886159D01*
X51345557Y-125950911D02*
X53160700Y-127766054D01*
X47493946Y-122099300D02*
X49309089Y-123914443D01*
X51317272Y-125979195D02*
X53166357Y-127828279D01*
X47431721Y-122093643D02*
X49280805Y-123942728D01*
X51288988Y-126007479D02*
X53171306Y-127889798D01*
X47370202Y-122088694D02*
X49252521Y-123971012D01*
X51260704Y-126035764D02*
X53175549Y-127950609D01*
X47309391Y-122084451D02*
X49224236Y-123999296D01*
X51232420Y-126064048D02*
X53179792Y-128011420D01*
X47248580Y-122080208D02*
X49195952Y-124027580D01*
X51204135Y-126092332D02*
X53182620Y-128070817D01*
X47189183Y-122077380D02*
X49167668Y-124055865D01*
X51175851Y-126120616D02*
X53185449Y-128130214D01*
X47129786Y-122074551D02*
X49139384Y-124084149D01*
X51147567Y-126148901D02*
X53187570Y-128188904D01*
X47071096Y-122072430D02*
X49111099Y-124112433D01*
X51119282Y-126177185D02*
X53188984Y-128246887D01*
X47013113Y-122071016D02*
X49082815Y-124140718D01*
X51090998Y-126205469D02*
X53189691Y-128304162D01*
X46955838Y-122070309D02*
X49054531Y-124169002D01*
X51062714Y-126233754D02*
X53190398Y-128361438D01*
X46898562Y-122069602D02*
X49026246Y-124197286D01*
X51034430Y-126262038D02*
X53190398Y-128418006D01*
X46841994Y-122069602D02*
X48997962Y-124225570D01*
X51006145Y-126290322D02*
X53189691Y-128473868D01*
X46786132Y-122070309D02*
X48969678Y-124253855D01*
X50977861Y-126318606D02*
X53188984Y-128529729D01*
X46730271Y-122071016D02*
X48941394Y-124282139D01*
X50949577Y-126346891D02*
X53187570Y-128584884D01*
X46675116Y-122072430D02*
X48913109Y-124310423D01*
X50921293Y-126375175D02*
X53185449Y-128639331D01*
X46620669Y-122074551D02*
X48884825Y-124338707D01*
X50893008Y-126403459D02*
X53182620Y-128693071D01*
X46566929Y-122077380D02*
X48856541Y-124366992D01*
X50864724Y-126431743D02*
X53179792Y-128746811D01*
X46513189Y-122080208D02*
X48828257Y-124395276D01*
X50836440Y-126460028D02*
X53176963Y-128800551D01*
X46459449Y-122083037D02*
X48799972Y-124423560D01*
X50808156Y-126488312D02*
X53173428Y-128853584D01*
X46406416Y-122086572D02*
X48771688Y-124451844D01*
X50779871Y-126516596D02*
X53169185Y-128905910D01*
X46354090Y-122090815D02*
X48743404Y-124480129D01*
X50751587Y-126544881D02*
X53164235Y-128957529D01*
X46302471Y-122095765D02*
X48715119Y-124508413D01*
X50723303Y-126573165D02*
X53159286Y-129009148D01*
X46250852Y-122100714D02*
X48686835Y-124536697D01*
X50695018Y-126601449D02*
X53154336Y-129060766D01*
X46199234Y-122105664D02*
X48658551Y-124564982D01*
X50666734Y-126629733D02*
X53148679Y-129111678D01*
X46148322Y-122111321D02*
X48630267Y-124593266D01*
X50638450Y-126658018D02*
X53143022Y-129162590D01*
X46097410Y-122116978D02*
X48601982Y-124621550D01*
X50610166Y-126686302D02*
X53135951Y-129212087D01*
X46047913Y-122124049D02*
X48573698Y-124649834D01*
X50581881Y-126714586D02*
X53129587Y-129262292D01*
X45997708Y-122130413D02*
X48545414Y-124678119D01*
X50553597Y-126742870D02*
X53122516Y-129311789D01*
X45948211Y-122137484D02*
X48517130Y-124706403D01*
X50525313Y-126771155D02*
X53114738Y-129360580D01*
X45899420Y-122145262D02*
X48488845Y-124734687D01*
X50497029Y-126799439D02*
X53106960Y-129409370D01*
X45850630Y-122153040D02*
X48460561Y-124762971D01*
X50468744Y-126827723D02*
X53099181Y-129458160D01*
X45801840Y-122160819D02*
X48432277Y-124791256D01*
X50440460Y-126856008D02*
X53090696Y-129506244D01*
X45753756Y-122169304D02*
X48403992Y-124819540D01*
X50412176Y-126884292D02*
X53082211Y-129554327D01*
X45705673Y-122177789D02*
X48375708Y-124847824D01*
X50383891Y-126912576D02*
X53073019Y-129601703D01*
X45658297Y-122186981D02*
X48347424Y-124876109D01*
X50355607Y-126940860D02*
X53063826Y-129649079D01*
X45610921Y-122196174D02*
X48319140Y-124904393D01*
X50327323Y-126969145D02*
X53053927Y-129695748D01*
X45564252Y-122206073D02*
X48290855Y-124932677D01*
X50299039Y-126997429D02*
X53044027Y-129742417D01*
X45517583Y-122215973D02*
X48262571Y-124960961D01*
X50270754Y-127025713D02*
X53033421Y-129788379D01*
X45471621Y-122226579D02*
X48234287Y-124989246D01*
X50242470Y-127053997D02*
X53022814Y-129834341D01*
X45425659Y-122237186D02*
X48206003Y-125017530D01*
X50214186Y-127082282D02*
X53012207Y-129880303D01*
X45379697Y-122247793D02*
X48177718Y-125045814D01*
X50185902Y-127110566D02*
X53000894Y-129925558D01*
X45334442Y-122259106D02*
X48149434Y-125074098D01*
X50157617Y-127138850D02*
X52989580Y-129970813D01*
X45289187Y-122270420D02*
X48121150Y-125102383D01*
X50129333Y-127167135D02*
X52977559Y-130015361D01*
X45244639Y-122282441D02*
X48092865Y-125130667D01*
X50101049Y-127195419D02*
X52965538Y-130059908D01*
X45200092Y-122294462D02*
X48064581Y-125158951D01*
X50072764Y-127223703D02*
X52953517Y-130104456D01*
X45155544Y-122306483D02*
X48036297Y-125187236D01*
X50044480Y-127251987D02*
X52940790Y-130148297D01*
X45111703Y-122319210D02*
X48008013Y-125215520D01*
X50016196Y-127280272D02*
X52928062Y-130192137D01*
X45067863Y-122331938D02*
X47979728Y-125243804D01*
X49987912Y-127308556D02*
X52915334Y-130235978D01*
X45024022Y-122344666D02*
X47951444Y-125272088D01*
X49959627Y-127336840D02*
X52901899Y-130279111D01*
X44980889Y-122358101D02*
X47923160Y-125300373D01*
X49931343Y-127365124D02*
X52888464Y-130322245D01*
X44937755Y-122371536D02*
X47894876Y-125328657D01*
X49903059Y-127393409D02*
X52874322Y-130364671D01*
X44895329Y-122385678D02*
X47866591Y-125356941D01*
X49874775Y-127421693D02*
X52860179Y-130407098D01*
X44852902Y-122399821D02*
X47838307Y-125385225D01*
X49846490Y-127449977D02*
X52846037Y-130449524D01*
X44810476Y-122413963D02*
X47810023Y-125413510D01*
X49818206Y-127478262D02*
X52831895Y-130491951D01*
X44768049Y-122428105D02*
X47781738Y-125441794D01*
X49789922Y-127506546D02*
X52817046Y-130533670D01*
X44726330Y-122442954D02*
X47753454Y-125470078D01*
X49761637Y-127534830D02*
X52801490Y-130574682D01*
X44685318Y-122458510D02*
X47725170Y-125498363D01*
X49733353Y-127563114D02*
X52786640Y-130616401D01*
X44643599Y-122473360D02*
X47696886Y-125526647D01*
X49705069Y-127591399D02*
X52771084Y-130657414D01*
X44602586Y-122488916D02*
X47668601Y-125554931D01*
X49676785Y-127619683D02*
X52754820Y-130697719D01*
X44562281Y-122505180D02*
X47640317Y-125583215D01*
X49648500Y-127647967D02*
X52739264Y-130738731D01*
X44521269Y-122520736D02*
X47612033Y-125611500D01*
X49620216Y-127676251D02*
X52723001Y-130779036D01*
X44480964Y-122536999D02*
X47583749Y-125639784D01*
X49591932Y-127704536D02*
X52706737Y-130819341D01*
X44440659Y-122553263D02*
X47555464Y-125668068D01*
X49563648Y-127732820D02*
X52689767Y-130858939D01*
X44401061Y-122570233D02*
X47527180Y-125696352D01*
X49535363Y-127761104D02*
X52672796Y-130898537D01*
X44361463Y-122587204D02*
X47498896Y-125724637D01*
X49507079Y-127789388D02*
X52655826Y-130938135D01*
X44321865Y-122604174D02*
X47470612Y-125752921D01*
X44282974Y-122621852D02*
X52638148Y-130977026D01*
X44243376Y-122638823D02*
X52621177Y-131016624D01*
X44204485Y-122656500D02*
X52603500Y-131055515D01*
X44166302Y-122674885D02*
X52585115Y-131093698D01*
X44128118Y-122693270D02*
X52566730Y-131131882D01*
X44089934Y-122711655D02*
X52548345Y-131170066D01*
X44051750Y-122730039D02*
X52529961Y-131208250D01*
X44014274Y-122749131D02*
X52510869Y-131245726D01*
X43976797Y-122768223D02*
X52491777Y-131283203D01*
X43939320Y-122787315D02*
X52472685Y-131320680D01*
X43901844Y-122806407D02*
X52453593Y-131358156D01*
X43865074Y-122826206D02*
X52433794Y-131394926D01*
X43828304Y-122846005D02*
X52413995Y-131431696D01*
X43791535Y-122865804D02*
X52394196Y-131468465D01*
X43755472Y-122886310D02*
X52373690Y-131504528D01*
X43719410Y-122906816D02*
X52353184Y-131540590D01*
X43683348Y-122927322D02*
X52332678Y-131576652D01*
X43647992Y-122948535D02*
X52311465Y-131612008D01*
X43611930Y-122969042D02*
X52290958Y-131648070D01*
X43577282Y-122990962D02*
X52269038Y-131682718D01*
X43541926Y-123012175D02*
X52247825Y-131718074D01*
X43506571Y-123033388D02*
X52226612Y-131753429D01*
X43471923Y-123055309D02*
X52204691Y-131788077D01*
X43437274Y-123077229D02*
X52182771Y-131822726D01*
X43403333Y-123099856D02*
X52160144Y-131856667D01*
X43368685Y-123121777D02*
X52138223Y-131891315D01*
X43334744Y-123144404D02*
X52115596Y-131925256D01*
X43301510Y-123167739D02*
X52092261Y-131958490D01*
X43267569Y-123190366D02*
X52069634Y-131992431D01*
X43234335Y-123213701D02*
X52046299Y-132025665D01*
X43201101Y-123237035D02*
X52022965Y-132058899D01*
X43167867Y-123260370D02*
X51999630Y-132092133D01*
X43134633Y-123283704D02*
X51976296Y-132125367D01*
X43102106Y-123307746D02*
X51952254Y-132157894D01*
X43069579Y-123331787D02*
X51928213Y-132190421D01*
X43037759Y-123356536D02*
X51903464Y-132222241D01*
X43005232Y-123380578D02*
X51879422Y-132254768D01*
X42973412Y-123405326D02*
X51854674Y-132286588D01*
X42941593Y-123430075D02*
X51829925Y-132318407D01*
X42909773Y-123454824D02*
X51805176Y-132350227D01*
X42877953Y-123480987D02*
X51779013Y-132382047D01*
X42846840Y-123506443D02*
X51753557Y-132413160D01*
X42815728Y-123531899D02*
X51728101Y-132444272D01*
X42784615Y-123557354D02*
X51702646Y-132475385D01*
X42754209Y-123583517D02*
X51676483Y-132505791D01*
X42723804Y-123609680D02*
X51650320Y-132536196D01*
X42693398Y-123635843D02*
X51624157Y-132566602D01*
X42662992Y-123662006D02*
X51597994Y-132597008D01*
X42633294Y-123688876D02*
X51571124Y-132626706D01*
X42603596Y-123715746D02*
X51544254Y-132656404D01*
X42573897Y-123742616D02*
X51517384Y-132686103D01*
X42544199Y-123769486D02*
X51490514Y-132715801D01*
X42515207Y-123797064D02*
X51462936Y-132744793D01*
X42486216Y-123824641D02*
X51435359Y-132773784D01*
X42457224Y-123852218D02*
X51407782Y-132802776D01*
X42428233Y-123879795D02*
X51380205Y-132831767D01*
X42399949Y-123908079D02*
X51351921Y-132860051D01*
X42371665Y-123936364D02*
X51323636Y-132888335D01*
X53217651Y-128412350D02*
G75*
G03*
X53217651Y-128412350I-6370001J0D01*
G01*
%TO.C,C1*%
X118825000Y-133230000D02*
X118825000Y-140970000D01*
X113585000Y-133230000D02*
X113585000Y-140970000D01*
X118825000Y-133230000D02*
X117461000Y-133230000D01*
X114949000Y-133230000D02*
X113585000Y-133230000D01*
X118825000Y-140970000D02*
X117461000Y-140970000D01*
X114949000Y-140970000D02*
X113585000Y-140970000D01*
%TO.C,C2*%
X75579000Y-140716000D02*
X74215000Y-140716000D01*
X79455000Y-140716000D02*
X78091000Y-140716000D01*
X75579000Y-132976000D02*
X74215000Y-132976000D01*
X79455000Y-132976000D02*
X78091000Y-132976000D01*
X74215000Y-132976000D02*
X74215000Y-140716000D01*
X79455000Y-132976000D02*
X79455000Y-140716000D01*
%TO.C,C5*%
X134366000Y-131378000D02*
X144526000Y-131378000D01*
X134366000Y-131338000D02*
X144526000Y-131338000D01*
X134366000Y-131298000D02*
X144526000Y-131298000D01*
X134367000Y-131258000D02*
X144525000Y-131258000D01*
X134368000Y-131218000D02*
X144524000Y-131218000D01*
X134369000Y-131178000D02*
X144523000Y-131178000D01*
X134371000Y-131138000D02*
X144521000Y-131138000D01*
X134373000Y-131098000D02*
X144519000Y-131098000D01*
X134376000Y-131058000D02*
X144516000Y-131058000D01*
X134378000Y-131018000D02*
X144514000Y-131018000D01*
X134381000Y-130978000D02*
X144511000Y-130978000D01*
X134384000Y-130938000D02*
X144508000Y-130938000D01*
X134388000Y-130898000D02*
X144504000Y-130898000D01*
X134392000Y-130858000D02*
X144500000Y-130858000D01*
X134396000Y-130818000D02*
X144496000Y-130818000D01*
X134401000Y-130778000D02*
X144491000Y-130778000D01*
X134406000Y-130738000D02*
X144486000Y-130738000D01*
X134411000Y-130698000D02*
X144481000Y-130698000D01*
X134416000Y-130657000D02*
X144476000Y-130657000D01*
X134422000Y-130617000D02*
X144470000Y-130617000D01*
X134428000Y-130577000D02*
X144464000Y-130577000D01*
X134435000Y-130537000D02*
X144457000Y-130537000D01*
X134442000Y-130497000D02*
X144450000Y-130497000D01*
X134449000Y-130457000D02*
X144443000Y-130457000D01*
X134456000Y-130417000D02*
X144436000Y-130417000D01*
X134464000Y-130377000D02*
X144428000Y-130377000D01*
X134472000Y-130337000D02*
X144420000Y-130337000D01*
X134481000Y-130297000D02*
X144411000Y-130297000D01*
X134490000Y-130257000D02*
X144402000Y-130257000D01*
X134499000Y-130217000D02*
X144393000Y-130217000D01*
X134508000Y-130177000D02*
X144384000Y-130177000D01*
X134518000Y-130137000D02*
X144374000Y-130137000D01*
X134528000Y-130097000D02*
X144364000Y-130097000D01*
X134539000Y-130057000D02*
X144353000Y-130057000D01*
X134549000Y-130017000D02*
X144343000Y-130017000D01*
X134561000Y-129977000D02*
X144331000Y-129977000D01*
X134572000Y-129937000D02*
X144320000Y-129937000D01*
X134584000Y-129897000D02*
X144308000Y-129897000D01*
X134596000Y-129857000D02*
X144296000Y-129857000D01*
X134609000Y-129817000D02*
X144283000Y-129817000D01*
X134622000Y-129777000D02*
X144270000Y-129777000D01*
X134635000Y-129737000D02*
X144257000Y-129737000D01*
X134649000Y-129697000D02*
X144243000Y-129697000D01*
X134663000Y-129657000D02*
X144229000Y-129657000D01*
X134678000Y-129617000D02*
X144214000Y-129617000D01*
X134692000Y-129577000D02*
X144200000Y-129577000D01*
X134708000Y-129537000D02*
X144184000Y-129537000D01*
X134723000Y-129497000D02*
X144169000Y-129497000D01*
X134739000Y-129457000D02*
X144153000Y-129457000D01*
X134756000Y-129417000D02*
X144136000Y-129417000D01*
X134772000Y-129377000D02*
X144120000Y-129377000D01*
X134789000Y-129337000D02*
X144103000Y-129337000D01*
X134807000Y-129297000D02*
X144085000Y-129297000D01*
X134825000Y-129257000D02*
X144067000Y-129257000D01*
X134843000Y-129217000D02*
X144049000Y-129217000D01*
X134862000Y-129177000D02*
X144030000Y-129177000D01*
X134882000Y-129137000D02*
X144010000Y-129137000D01*
X134901000Y-129097000D02*
X143991000Y-129097000D01*
X134921000Y-129057000D02*
X143971000Y-129057000D01*
X134942000Y-129017000D02*
X143950000Y-129017000D01*
X134963000Y-128977000D02*
X143929000Y-128977000D01*
X134984000Y-128937000D02*
X143908000Y-128937000D01*
X135006000Y-128897000D02*
X143886000Y-128897000D01*
X135029000Y-128857000D02*
X138205000Y-128857000D01*
X140687000Y-128857000D02*
X143863000Y-128857000D01*
X135051000Y-128817000D02*
X138205000Y-128817000D01*
X140687000Y-128817000D02*
X143841000Y-128817000D01*
X135075000Y-128777000D02*
X138205000Y-128777000D01*
X140687000Y-128777000D02*
X143817000Y-128777000D01*
X135099000Y-128737000D02*
X138205000Y-128737000D01*
X140687000Y-128737000D02*
X143793000Y-128737000D01*
X135123000Y-128697000D02*
X138205000Y-128697000D01*
X140687000Y-128697000D02*
X143769000Y-128697000D01*
X135148000Y-128657000D02*
X138205000Y-128657000D01*
X140687000Y-128657000D02*
X143744000Y-128657000D01*
X135173000Y-128617000D02*
X138205000Y-128617000D01*
X140687000Y-128617000D02*
X143719000Y-128617000D01*
X135199000Y-128577000D02*
X138205000Y-128577000D01*
X140687000Y-128577000D02*
X143693000Y-128577000D01*
X135225000Y-128537000D02*
X138205000Y-128537000D01*
X140687000Y-128537000D02*
X143667000Y-128537000D01*
X135252000Y-128497000D02*
X138205000Y-128497000D01*
X140687000Y-128497000D02*
X143640000Y-128497000D01*
X135280000Y-128457000D02*
X138205000Y-128457000D01*
X140687000Y-128457000D02*
X143612000Y-128457000D01*
X135308000Y-128417000D02*
X138205000Y-128417000D01*
X140687000Y-128417000D02*
X143584000Y-128417000D01*
X135336000Y-128377000D02*
X138205000Y-128377000D01*
X140687000Y-128377000D02*
X143556000Y-128377000D01*
X135366000Y-128337000D02*
X138205000Y-128337000D01*
X140687000Y-128337000D02*
X143526000Y-128337000D01*
X135396000Y-128297000D02*
X138205000Y-128297000D01*
X140687000Y-128297000D02*
X143496000Y-128297000D01*
X135426000Y-128257000D02*
X138205000Y-128257000D01*
X140687000Y-128257000D02*
X143466000Y-128257000D01*
X135457000Y-128217000D02*
X138205000Y-128217000D01*
X140687000Y-128217000D02*
X143435000Y-128217000D01*
X135489000Y-128177000D02*
X138205000Y-128177000D01*
X140687000Y-128177000D02*
X143403000Y-128177000D01*
X135521000Y-128137000D02*
X138205000Y-128137000D01*
X140687000Y-128137000D02*
X143371000Y-128137000D01*
X135554000Y-128097000D02*
X138205000Y-128097000D01*
X140687000Y-128097000D02*
X143338000Y-128097000D01*
X135588000Y-128057000D02*
X138205000Y-128057000D01*
X140687000Y-128057000D02*
X143304000Y-128057000D01*
X135622000Y-128017000D02*
X138205000Y-128017000D01*
X140687000Y-128017000D02*
X143270000Y-128017000D01*
X135657000Y-127977000D02*
X138205000Y-127977000D01*
X140687000Y-127977000D02*
X143235000Y-127977000D01*
X135693000Y-127937000D02*
X138205000Y-127937000D01*
X140687000Y-127937000D02*
X143199000Y-127937000D01*
X135730000Y-127897000D02*
X138205000Y-127897000D01*
X140687000Y-127897000D02*
X143162000Y-127897000D01*
X135767000Y-127857000D02*
X138205000Y-127857000D01*
X140687000Y-127857000D02*
X143125000Y-127857000D01*
X135806000Y-127817000D02*
X138205000Y-127817000D01*
X140687000Y-127817000D02*
X143086000Y-127817000D01*
X135845000Y-127777000D02*
X138205000Y-127777000D01*
X140687000Y-127777000D02*
X143047000Y-127777000D01*
X135885000Y-127737000D02*
X138205000Y-127737000D01*
X140687000Y-127737000D02*
X143007000Y-127737000D01*
X135926000Y-127697000D02*
X138205000Y-127697000D01*
X140687000Y-127697000D02*
X142966000Y-127697000D01*
X135968000Y-127657000D02*
X138205000Y-127657000D01*
X140687000Y-127657000D02*
X142924000Y-127657000D01*
X136010000Y-127617000D02*
X138205000Y-127617000D01*
X140687000Y-127617000D02*
X142882000Y-127617000D01*
X136054000Y-127577000D02*
X138205000Y-127577000D01*
X140687000Y-127577000D02*
X142838000Y-127577000D01*
X136099000Y-127537000D02*
X138205000Y-127537000D01*
X140687000Y-127537000D02*
X142793000Y-127537000D01*
X136145000Y-127497000D02*
X138205000Y-127497000D01*
X140687000Y-127497000D02*
X142747000Y-127497000D01*
X136192000Y-127457000D02*
X138205000Y-127457000D01*
X140687000Y-127457000D02*
X142700000Y-127457000D01*
X136240000Y-127417000D02*
X138205000Y-127417000D01*
X140687000Y-127417000D02*
X142652000Y-127417000D01*
X136290000Y-127377000D02*
X138205000Y-127377000D01*
X140687000Y-127377000D02*
X142602000Y-127377000D01*
X136340000Y-127337000D02*
X138205000Y-127337000D01*
X140687000Y-127337000D02*
X142552000Y-127337000D01*
X136392000Y-127297000D02*
X138205000Y-127297000D01*
X140687000Y-127297000D02*
X142500000Y-127297000D01*
X136446000Y-127257000D02*
X138205000Y-127257000D01*
X140687000Y-127257000D02*
X142446000Y-127257000D01*
X136501000Y-127217000D02*
X138205000Y-127217000D01*
X140687000Y-127217000D02*
X142391000Y-127217000D01*
X136557000Y-127177000D02*
X138205000Y-127177000D01*
X140687000Y-127177000D02*
X142335000Y-127177000D01*
X136616000Y-127137000D02*
X138205000Y-127137000D01*
X140687000Y-127137000D02*
X142276000Y-127137000D01*
X136676000Y-127097000D02*
X138205000Y-127097000D01*
X140687000Y-127097000D02*
X142216000Y-127097000D01*
X136737000Y-127057000D02*
X138205000Y-127057000D01*
X140687000Y-127057000D02*
X142155000Y-127057000D01*
X136801000Y-127017000D02*
X138205000Y-127017000D01*
X140687000Y-127017000D02*
X142091000Y-127017000D01*
X136867000Y-126977000D02*
X138205000Y-126977000D01*
X140687000Y-126977000D02*
X142025000Y-126977000D01*
X136936000Y-126937000D02*
X138205000Y-126937000D01*
X140687000Y-126937000D02*
X141956000Y-126937000D01*
X137007000Y-126897000D02*
X138205000Y-126897000D01*
X140687000Y-126897000D02*
X141885000Y-126897000D01*
X137081000Y-126857000D02*
X138205000Y-126857000D01*
X140687000Y-126857000D02*
X141811000Y-126857000D01*
X137157000Y-126817000D02*
X138205000Y-126817000D01*
X140687000Y-126817000D02*
X141735000Y-126817000D01*
X137237000Y-126777000D02*
X138205000Y-126777000D01*
X140687000Y-126777000D02*
X141655000Y-126777000D01*
X137321000Y-126737000D02*
X138205000Y-126737000D01*
X140687000Y-126737000D02*
X141571000Y-126737000D01*
X137409000Y-126697000D02*
X138205000Y-126697000D01*
X140687000Y-126697000D02*
X141483000Y-126697000D01*
X137502000Y-126657000D02*
X138205000Y-126657000D01*
X140687000Y-126657000D02*
X141390000Y-126657000D01*
X137600000Y-126617000D02*
X138205000Y-126617000D01*
X140687000Y-126617000D02*
X141292000Y-126617000D01*
X137704000Y-126577000D02*
X138205000Y-126577000D01*
X140687000Y-126577000D02*
X141188000Y-126577000D01*
X137816000Y-126537000D02*
X138205000Y-126537000D01*
X140687000Y-126537000D02*
X141076000Y-126537000D01*
X137936000Y-126497000D02*
X138205000Y-126497000D01*
X140687000Y-126497000D02*
X140956000Y-126497000D01*
X138068000Y-126457000D02*
X138205000Y-126457000D01*
X140687000Y-126457000D02*
X140824000Y-126457000D01*
X138384000Y-126377000D02*
X140508000Y-126377000D01*
X138584000Y-126337000D02*
X140308000Y-126337000D01*
X138847000Y-126297000D02*
X140045000Y-126297000D01*
X136571000Y-136857646D02*
X136571000Y-135857646D01*
X136071000Y-136357646D02*
X137071000Y-136357646D01*
X140706000Y-136340540D02*
G75*
G03*
X138186000Y-136340540I-1260000J4962540D01*
G01*
%TO.C,C10*%
X101600000Y-103491000D02*
X101600000Y-104855000D01*
X101600000Y-99615000D02*
X101600000Y-100979000D01*
X93860000Y-103491000D02*
X93860000Y-104855000D01*
X93860000Y-99615000D02*
X93860000Y-100979000D01*
X93860000Y-104855000D02*
X101600000Y-104855000D01*
X93860000Y-99615000D02*
X101600000Y-99615000D01*
%TO.C,C13*%
X69770000Y-101085000D02*
X69770000Y-93345000D01*
X75010000Y-101085000D02*
X75010000Y-93345000D01*
X69770000Y-101085000D02*
X71134000Y-101085000D01*
X73646000Y-101085000D02*
X75010000Y-101085000D01*
X69770000Y-93345000D02*
X71134000Y-93345000D01*
X73646000Y-93345000D02*
X75010000Y-93345000D01*
%TO.C,D5*%
X85948000Y-84698000D02*
X87788000Y-84698000D01*
X87788000Y-84698000D02*
X87788000Y-81418000D01*
X87788000Y-81418000D02*
X85948000Y-81418000D01*
X85948000Y-81418000D02*
X85948000Y-84698000D01*
X86868000Y-85878000D02*
X86868000Y-84698000D01*
X86868000Y-80238000D02*
X86868000Y-81418000D01*
X85948000Y-84122000D02*
X87788000Y-84122000D01*
X85948000Y-84002000D02*
X87788000Y-84002000D01*
X85948000Y-84242000D02*
X87788000Y-84242000D01*
%TO.C,D11*%
X82636000Y-100045000D02*
X82636000Y-101885000D01*
X82876000Y-100045000D02*
X82876000Y-101885000D01*
X82756000Y-100045000D02*
X82756000Y-101885000D01*
X86640000Y-100965000D02*
X85460000Y-100965000D01*
X81000000Y-100965000D02*
X82180000Y-100965000D01*
X85460000Y-100045000D02*
X82180000Y-100045000D01*
X85460000Y-101885000D02*
X85460000Y-100045000D01*
X82180000Y-101885000D02*
X85460000Y-101885000D01*
X82180000Y-100045000D02*
X82180000Y-101885000D01*
%TO.C,J3*%
X161125000Y-85615000D02*
X161125000Y-86215000D01*
X162725000Y-85615000D02*
X161125000Y-85615000D01*
X162725000Y-86215000D02*
X162725000Y-85615000D01*
X163665000Y-85615000D02*
X163665000Y-86215000D01*
X165265000Y-85615000D02*
X163665000Y-85615000D01*
X165265000Y-86215000D02*
X165265000Y-85615000D01*
X162175000Y-80195000D02*
X162175000Y-81195000D01*
X164215000Y-80195000D02*
X164215000Y-81195000D01*
X162175000Y-81725000D02*
X161925000Y-81195000D01*
X164215000Y-81725000D02*
X162175000Y-81725000D01*
X164465000Y-81195000D02*
X164215000Y-81725000D01*
X161925000Y-81195000D02*
X161925000Y-80195000D01*
X164465000Y-81195000D02*
X161925000Y-81195000D01*
X164465000Y-80195000D02*
X164465000Y-81195000D01*
X166135000Y-85185000D02*
X166135000Y-81185000D01*
X160545000Y-86215000D02*
X165845000Y-86215000D01*
X160545000Y-80195000D02*
X160545000Y-86215000D01*
X165845000Y-80195000D02*
X160545000Y-80195000D01*
X165845000Y-86215000D02*
X165845000Y-80195000D01*
%TO.C,Q3*%
X166682331Y-117126281D02*
X167594499Y-118038448D01*
X167594499Y-118038448D02*
X168584448Y-117048499D01*
X168584448Y-117048499D02*
X167672281Y-116136331D01*
X167672150Y-116136544D02*
G75*
G03*
X166682331Y-117126281I-2572150J1582544D01*
G01*
%TO.C,Q4*%
X110014000Y-105464000D02*
X111524000Y-105464000D01*
X110014000Y-109165000D02*
X111524000Y-109165000D01*
X111524000Y-112435000D02*
X111524000Y-102195000D01*
X110014000Y-102195000D02*
X114655000Y-102195000D01*
X110014000Y-112435000D02*
X114655000Y-112435000D01*
X114655000Y-112435000D02*
X114655000Y-102195000D01*
X110014000Y-112435000D02*
X110014000Y-102195000D01*
%TO.C,Q5*%
X151429501Y-124388448D02*
X152341669Y-123476281D01*
X150439552Y-123398499D02*
X151429501Y-124388448D01*
X151351719Y-122486331D02*
X150439552Y-123398499D01*
X152341456Y-123476150D02*
G75*
G03*
X151351719Y-122486331I1582544J2572150D01*
G01*
%TO.C,R3*%
X128905000Y-129945000D02*
X128905000Y-131905000D01*
X128905000Y-143105000D02*
X128905000Y-141145000D01*
X127185000Y-131905000D02*
X127185000Y-141145000D01*
X130625000Y-131905000D02*
X127185000Y-131905000D01*
X130625000Y-141145000D02*
X130625000Y-131905000D01*
X127185000Y-141145000D02*
X130625000Y-141145000D01*
%TO.C,U1*%
X100440000Y-85538000D02*
X98790000Y-85538000D01*
X100440000Y-90738000D02*
X100440000Y-85538000D01*
X95140000Y-90738000D02*
X100440000Y-90738000D01*
X95140000Y-85538000D02*
X95140000Y-90738000D01*
X96790000Y-85538000D02*
X95140000Y-85538000D01*
X98790000Y-85538000D02*
G75*
G02*
X96790000Y-85538000I-1000000J0D01*
G01*
%TO.C,U2*%
X140268000Y-106028000D02*
X140268000Y-104378000D01*
X129988000Y-106028000D02*
X140268000Y-106028000D01*
X129988000Y-100728000D02*
X129988000Y-106028000D01*
X140268000Y-100728000D02*
X129988000Y-100728000D01*
X140268000Y-102378000D02*
X140268000Y-100728000D01*
X140268000Y-104378000D02*
G75*
G02*
X140268000Y-102378000I0J1000000D01*
G01*
%TO.C,U3*%
X81860000Y-85620000D02*
X81860000Y-82020000D01*
X81848478Y-85658478D02*
G75*
G02*
X77410000Y-83820000I-1838478J1838478D01*
G01*
X81848478Y-81981522D02*
G75*
G03*
X77410000Y-83820000I-1838478J-1838478D01*
G01*
%TO.C,U4*%
X57077000Y-86074000D02*
X57077000Y-84564000D01*
X60778000Y-86074000D02*
X60778000Y-84564000D01*
X64048000Y-84564000D02*
X53808000Y-84564000D01*
X53808000Y-86074000D02*
X53808000Y-81433000D01*
X64048000Y-86074000D02*
X64048000Y-81433000D01*
X64048000Y-81433000D02*
X53808000Y-81433000D01*
X64048000Y-86074000D02*
X53808000Y-86074000D01*
%TO.C,U5*%
X158258000Y-89856000D02*
X156608000Y-89856000D01*
X156608000Y-89856000D02*
X156608000Y-100136000D01*
X156608000Y-100136000D02*
X161908000Y-100136000D01*
X161908000Y-100136000D02*
X161908000Y-89856000D01*
X161908000Y-89856000D02*
X160258000Y-89856000D01*
X160258000Y-89856000D02*
G75*
G02*
X158258000Y-89856000I-1000000J0D01*
G01*
%TO.C,R6*%
D11*
X123023333Y-128722380D02*
X122690000Y-128246190D01*
X122451904Y-128722380D02*
X122451904Y-127722380D01*
X122832857Y-127722380D01*
X122928095Y-127770000D01*
X122975714Y-127817619D01*
X123023333Y-127912857D01*
X123023333Y-128055714D01*
X122975714Y-128150952D01*
X122928095Y-128198571D01*
X122832857Y-128246190D01*
X122451904Y-128246190D01*
X123880476Y-127722380D02*
X123690000Y-127722380D01*
X123594761Y-127770000D01*
X123547142Y-127817619D01*
X123451904Y-127960476D01*
X123404285Y-128150952D01*
X123404285Y-128531904D01*
X123451904Y-128627142D01*
X123499523Y-128674761D01*
X123594761Y-128722380D01*
X123785238Y-128722380D01*
X123880476Y-128674761D01*
X123928095Y-128627142D01*
X123975714Y-128531904D01*
X123975714Y-128293809D01*
X123928095Y-128198571D01*
X123880476Y-128150952D01*
X123785238Y-128103333D01*
X123594761Y-128103333D01*
X123499523Y-128150952D01*
X123451904Y-128198571D01*
X123404285Y-128293809D01*
%TO.C,D8*%
X67762380Y-122023095D02*
X66762380Y-122023095D01*
X66762380Y-121785000D01*
X66810000Y-121642142D01*
X66905238Y-121546904D01*
X67000476Y-121499285D01*
X67190952Y-121451666D01*
X67333809Y-121451666D01*
X67524285Y-121499285D01*
X67619523Y-121546904D01*
X67714761Y-121642142D01*
X67762380Y-121785000D01*
X67762380Y-122023095D01*
X67190952Y-120880238D02*
X67143333Y-120975476D01*
X67095714Y-121023095D01*
X67000476Y-121070714D01*
X66952857Y-121070714D01*
X66857619Y-121023095D01*
X66810000Y-120975476D01*
X66762380Y-120880238D01*
X66762380Y-120689761D01*
X66810000Y-120594523D01*
X66857619Y-120546904D01*
X66952857Y-120499285D01*
X67000476Y-120499285D01*
X67095714Y-120546904D01*
X67143333Y-120594523D01*
X67190952Y-120689761D01*
X67190952Y-120880238D01*
X67238571Y-120975476D01*
X67286190Y-121023095D01*
X67381428Y-121070714D01*
X67571904Y-121070714D01*
X67667142Y-121023095D01*
X67714761Y-120975476D01*
X67762380Y-120880238D01*
X67762380Y-120689761D01*
X67714761Y-120594523D01*
X67667142Y-120546904D01*
X67571904Y-120499285D01*
X67381428Y-120499285D01*
X67286190Y-120546904D01*
X67238571Y-120594523D01*
X67190952Y-120689761D01*
%TO.C,C20*%
X63492142Y-110212142D02*
X63444523Y-110259761D01*
X63301666Y-110307380D01*
X63206428Y-110307380D01*
X63063571Y-110259761D01*
X62968333Y-110164523D01*
X62920714Y-110069285D01*
X62873095Y-109878809D01*
X62873095Y-109735952D01*
X62920714Y-109545476D01*
X62968333Y-109450238D01*
X63063571Y-109355000D01*
X63206428Y-109307380D01*
X63301666Y-109307380D01*
X63444523Y-109355000D01*
X63492142Y-109402619D01*
X63873095Y-109402619D02*
X63920714Y-109355000D01*
X64015952Y-109307380D01*
X64254047Y-109307380D01*
X64349285Y-109355000D01*
X64396904Y-109402619D01*
X64444523Y-109497857D01*
X64444523Y-109593095D01*
X64396904Y-109735952D01*
X63825476Y-110307380D01*
X64444523Y-110307380D01*
X65063571Y-109307380D02*
X65158809Y-109307380D01*
X65254047Y-109355000D01*
X65301666Y-109402619D01*
X65349285Y-109497857D01*
X65396904Y-109688333D01*
X65396904Y-109926428D01*
X65349285Y-110116904D01*
X65301666Y-110212142D01*
X65254047Y-110259761D01*
X65158809Y-110307380D01*
X65063571Y-110307380D01*
X64968333Y-110259761D01*
X64920714Y-110212142D01*
X64873095Y-110116904D01*
X64825476Y-109926428D01*
X64825476Y-109688333D01*
X64873095Y-109497857D01*
X64920714Y-109402619D01*
X64968333Y-109355000D01*
X65063571Y-109307380D01*
%TO.C,R19*%
X77922380Y-120657857D02*
X77446190Y-120991190D01*
X77922380Y-121229285D02*
X76922380Y-121229285D01*
X76922380Y-120848333D01*
X76970000Y-120753095D01*
X77017619Y-120705476D01*
X77112857Y-120657857D01*
X77255714Y-120657857D01*
X77350952Y-120705476D01*
X77398571Y-120753095D01*
X77446190Y-120848333D01*
X77446190Y-121229285D01*
X77922380Y-119705476D02*
X77922380Y-120276904D01*
X77922380Y-119991190D02*
X76922380Y-119991190D01*
X77065238Y-120086428D01*
X77160476Y-120181666D01*
X77208095Y-120276904D01*
X77922380Y-119229285D02*
X77922380Y-119038809D01*
X77874761Y-118943571D01*
X77827142Y-118895952D01*
X77684285Y-118800714D01*
X77493809Y-118753095D01*
X77112857Y-118753095D01*
X77017619Y-118800714D01*
X76970000Y-118848333D01*
X76922380Y-118943571D01*
X76922380Y-119134047D01*
X76970000Y-119229285D01*
X77017619Y-119276904D01*
X77112857Y-119324523D01*
X77350952Y-119324523D01*
X77446190Y-119276904D01*
X77493809Y-119229285D01*
X77541428Y-119134047D01*
X77541428Y-118943571D01*
X77493809Y-118848333D01*
X77446190Y-118800714D01*
X77350952Y-118753095D01*
%TO.C,R25*%
X67302142Y-102052380D02*
X66968809Y-101576190D01*
X66730714Y-102052380D02*
X66730714Y-101052380D01*
X67111666Y-101052380D01*
X67206904Y-101100000D01*
X67254523Y-101147619D01*
X67302142Y-101242857D01*
X67302142Y-101385714D01*
X67254523Y-101480952D01*
X67206904Y-101528571D01*
X67111666Y-101576190D01*
X66730714Y-101576190D01*
X67683095Y-101147619D02*
X67730714Y-101100000D01*
X67825952Y-101052380D01*
X68064047Y-101052380D01*
X68159285Y-101100000D01*
X68206904Y-101147619D01*
X68254523Y-101242857D01*
X68254523Y-101338095D01*
X68206904Y-101480952D01*
X67635476Y-102052380D01*
X68254523Y-102052380D01*
X69159285Y-101052380D02*
X68683095Y-101052380D01*
X68635476Y-101528571D01*
X68683095Y-101480952D01*
X68778333Y-101433333D01*
X69016428Y-101433333D01*
X69111666Y-101480952D01*
X69159285Y-101528571D01*
X69206904Y-101623809D01*
X69206904Y-101861904D01*
X69159285Y-101957142D01*
X69111666Y-102004761D01*
X69016428Y-102052380D01*
X68778333Y-102052380D01*
X68683095Y-102004761D01*
X68635476Y-101957142D01*
%TO.C,R21*%
X67302142Y-99512380D02*
X66968809Y-99036190D01*
X66730714Y-99512380D02*
X66730714Y-98512380D01*
X67111666Y-98512380D01*
X67206904Y-98560000D01*
X67254523Y-98607619D01*
X67302142Y-98702857D01*
X67302142Y-98845714D01*
X67254523Y-98940952D01*
X67206904Y-98988571D01*
X67111666Y-99036190D01*
X66730714Y-99036190D01*
X67683095Y-98607619D02*
X67730714Y-98560000D01*
X67825952Y-98512380D01*
X68064047Y-98512380D01*
X68159285Y-98560000D01*
X68206904Y-98607619D01*
X68254523Y-98702857D01*
X68254523Y-98798095D01*
X68206904Y-98940952D01*
X67635476Y-99512380D01*
X68254523Y-99512380D01*
X69206904Y-99512380D02*
X68635476Y-99512380D01*
X68921190Y-99512380D02*
X68921190Y-98512380D01*
X68825952Y-98655238D01*
X68730714Y-98750476D01*
X68635476Y-98798095D01*
%TO.C,R9*%
X57618333Y-109672380D02*
X57285000Y-109196190D01*
X57046904Y-109672380D02*
X57046904Y-108672380D01*
X57427857Y-108672380D01*
X57523095Y-108720000D01*
X57570714Y-108767619D01*
X57618333Y-108862857D01*
X57618333Y-109005714D01*
X57570714Y-109100952D01*
X57523095Y-109148571D01*
X57427857Y-109196190D01*
X57046904Y-109196190D01*
X58094523Y-109672380D02*
X58285000Y-109672380D01*
X58380238Y-109624761D01*
X58427857Y-109577142D01*
X58523095Y-109434285D01*
X58570714Y-109243809D01*
X58570714Y-108862857D01*
X58523095Y-108767619D01*
X58475476Y-108720000D01*
X58380238Y-108672380D01*
X58189761Y-108672380D01*
X58094523Y-108720000D01*
X58046904Y-108767619D01*
X57999285Y-108862857D01*
X57999285Y-109100952D01*
X58046904Y-109196190D01*
X58094523Y-109243809D01*
X58189761Y-109291428D01*
X58380238Y-109291428D01*
X58475476Y-109243809D01*
X58523095Y-109196190D01*
X58570714Y-109100952D01*
%TO.C,J2*%
X36282380Y-108283333D02*
X36996666Y-108283333D01*
X37139523Y-108330952D01*
X37234761Y-108426190D01*
X37282380Y-108569047D01*
X37282380Y-108664285D01*
X36377619Y-107854761D02*
X36330000Y-107807142D01*
X36282380Y-107711904D01*
X36282380Y-107473809D01*
X36330000Y-107378571D01*
X36377619Y-107330952D01*
X36472857Y-107283333D01*
X36568095Y-107283333D01*
X36710952Y-107330952D01*
X37282380Y-107902380D01*
X37282380Y-107283333D01*
%TO.C,R31*%
X170807142Y-112847380D02*
X170473809Y-112371190D01*
X170235714Y-112847380D02*
X170235714Y-111847380D01*
X170616666Y-111847380D01*
X170711904Y-111895000D01*
X170759523Y-111942619D01*
X170807142Y-112037857D01*
X170807142Y-112180714D01*
X170759523Y-112275952D01*
X170711904Y-112323571D01*
X170616666Y-112371190D01*
X170235714Y-112371190D01*
X171140476Y-111847380D02*
X171759523Y-111847380D01*
X171426190Y-112228333D01*
X171569047Y-112228333D01*
X171664285Y-112275952D01*
X171711904Y-112323571D01*
X171759523Y-112418809D01*
X171759523Y-112656904D01*
X171711904Y-112752142D01*
X171664285Y-112799761D01*
X171569047Y-112847380D01*
X171283333Y-112847380D01*
X171188095Y-112799761D01*
X171140476Y-112752142D01*
X172711904Y-112847380D02*
X172140476Y-112847380D01*
X172426190Y-112847380D02*
X172426190Y-111847380D01*
X172330952Y-111990238D01*
X172235714Y-112085476D01*
X172140476Y-112133095D01*
%TO.C,R30*%
X169537142Y-107132380D02*
X169203809Y-106656190D01*
X168965714Y-107132380D02*
X168965714Y-106132380D01*
X169346666Y-106132380D01*
X169441904Y-106180000D01*
X169489523Y-106227619D01*
X169537142Y-106322857D01*
X169537142Y-106465714D01*
X169489523Y-106560952D01*
X169441904Y-106608571D01*
X169346666Y-106656190D01*
X168965714Y-106656190D01*
X169870476Y-106132380D02*
X170489523Y-106132380D01*
X170156190Y-106513333D01*
X170299047Y-106513333D01*
X170394285Y-106560952D01*
X170441904Y-106608571D01*
X170489523Y-106703809D01*
X170489523Y-106941904D01*
X170441904Y-107037142D01*
X170394285Y-107084761D01*
X170299047Y-107132380D01*
X170013333Y-107132380D01*
X169918095Y-107084761D01*
X169870476Y-107037142D01*
X171108571Y-106132380D02*
X171203809Y-106132380D01*
X171299047Y-106180000D01*
X171346666Y-106227619D01*
X171394285Y-106322857D01*
X171441904Y-106513333D01*
X171441904Y-106751428D01*
X171394285Y-106941904D01*
X171346666Y-107037142D01*
X171299047Y-107084761D01*
X171203809Y-107132380D01*
X171108571Y-107132380D01*
X171013333Y-107084761D01*
X170965714Y-107037142D01*
X170918095Y-106941904D01*
X170870476Y-106751428D01*
X170870476Y-106513333D01*
X170918095Y-106322857D01*
X170965714Y-106227619D01*
X171013333Y-106180000D01*
X171108571Y-106132380D01*
%TO.C,R36*%
X166362142Y-102052380D02*
X166028809Y-101576190D01*
X165790714Y-102052380D02*
X165790714Y-101052380D01*
X166171666Y-101052380D01*
X166266904Y-101100000D01*
X166314523Y-101147619D01*
X166362142Y-101242857D01*
X166362142Y-101385714D01*
X166314523Y-101480952D01*
X166266904Y-101528571D01*
X166171666Y-101576190D01*
X165790714Y-101576190D01*
X166695476Y-101052380D02*
X167314523Y-101052380D01*
X166981190Y-101433333D01*
X167124047Y-101433333D01*
X167219285Y-101480952D01*
X167266904Y-101528571D01*
X167314523Y-101623809D01*
X167314523Y-101861904D01*
X167266904Y-101957142D01*
X167219285Y-102004761D01*
X167124047Y-102052380D01*
X166838333Y-102052380D01*
X166743095Y-102004761D01*
X166695476Y-101957142D01*
X168171666Y-101052380D02*
X167981190Y-101052380D01*
X167885952Y-101100000D01*
X167838333Y-101147619D01*
X167743095Y-101290476D01*
X167695476Y-101480952D01*
X167695476Y-101861904D01*
X167743095Y-101957142D01*
X167790714Y-102004761D01*
X167885952Y-102052380D01*
X168076428Y-102052380D01*
X168171666Y-102004761D01*
X168219285Y-101957142D01*
X168266904Y-101861904D01*
X168266904Y-101623809D01*
X168219285Y-101528571D01*
X168171666Y-101480952D01*
X168076428Y-101433333D01*
X167885952Y-101433333D01*
X167790714Y-101480952D01*
X167743095Y-101528571D01*
X167695476Y-101623809D01*
%TO.C,C18*%
X141073142Y-124848857D02*
X141120761Y-124896476D01*
X141168380Y-125039333D01*
X141168380Y-125134571D01*
X141120761Y-125277428D01*
X141025523Y-125372666D01*
X140930285Y-125420285D01*
X140739809Y-125467904D01*
X140596952Y-125467904D01*
X140406476Y-125420285D01*
X140311238Y-125372666D01*
X140216000Y-125277428D01*
X140168380Y-125134571D01*
X140168380Y-125039333D01*
X140216000Y-124896476D01*
X140263619Y-124848857D01*
X141168380Y-123896476D02*
X141168380Y-124467904D01*
X141168380Y-124182190D02*
X140168380Y-124182190D01*
X140311238Y-124277428D01*
X140406476Y-124372666D01*
X140454095Y-124467904D01*
X140596952Y-123325047D02*
X140549333Y-123420285D01*
X140501714Y-123467904D01*
X140406476Y-123515523D01*
X140358857Y-123515523D01*
X140263619Y-123467904D01*
X140216000Y-123420285D01*
X140168380Y-123325047D01*
X140168380Y-123134571D01*
X140216000Y-123039333D01*
X140263619Y-122991714D01*
X140358857Y-122944095D01*
X140406476Y-122944095D01*
X140501714Y-122991714D01*
X140549333Y-123039333D01*
X140596952Y-123134571D01*
X140596952Y-123325047D01*
X140644571Y-123420285D01*
X140692190Y-123467904D01*
X140787428Y-123515523D01*
X140977904Y-123515523D01*
X141073142Y-123467904D01*
X141120761Y-123420285D01*
X141168380Y-123325047D01*
X141168380Y-123134571D01*
X141120761Y-123039333D01*
X141073142Y-122991714D01*
X140977904Y-122944095D01*
X140787428Y-122944095D01*
X140692190Y-122991714D01*
X140644571Y-123039333D01*
X140596952Y-123134571D01*
%TO.C,D3*%
X191567970Y-93551793D02*
X190860863Y-92844687D01*
X191029222Y-92676328D01*
X191163909Y-92608984D01*
X191298596Y-92608984D01*
X191399611Y-92642656D01*
X191567970Y-92743671D01*
X191668985Y-92844687D01*
X191770001Y-93013045D01*
X191803672Y-93114061D01*
X191803672Y-93248748D01*
X191736329Y-93383435D01*
X191567970Y-93551793D01*
X191500626Y-92204923D02*
X191938359Y-91767190D01*
X191972031Y-92272267D01*
X192073046Y-92171251D01*
X192174062Y-92137580D01*
X192241405Y-92137580D01*
X192342420Y-92171251D01*
X192510779Y-92339610D01*
X192544451Y-92440625D01*
X192544451Y-92507969D01*
X192510779Y-92608984D01*
X192308749Y-92811015D01*
X192207733Y-92844687D01*
X192140390Y-92844687D01*
X189433795Y-95722071D02*
X188726688Y-95014964D01*
X189837856Y-95318010D02*
X189130749Y-95216995D01*
X189130749Y-94610903D02*
X189130749Y-95419025D01*
%TO.C,*%
%TO.C,C21*%
X53697142Y-104782857D02*
X53744761Y-104830476D01*
X53792380Y-104973333D01*
X53792380Y-105068571D01*
X53744761Y-105211428D01*
X53649523Y-105306666D01*
X53554285Y-105354285D01*
X53363809Y-105401904D01*
X53220952Y-105401904D01*
X53030476Y-105354285D01*
X52935238Y-105306666D01*
X52840000Y-105211428D01*
X52792380Y-105068571D01*
X52792380Y-104973333D01*
X52840000Y-104830476D01*
X52887619Y-104782857D01*
X52887619Y-104401904D02*
X52840000Y-104354285D01*
X52792380Y-104259047D01*
X52792380Y-104020952D01*
X52840000Y-103925714D01*
X52887619Y-103878095D01*
X52982857Y-103830476D01*
X53078095Y-103830476D01*
X53220952Y-103878095D01*
X53792380Y-104449523D01*
X53792380Y-103830476D01*
X53792380Y-102878095D02*
X53792380Y-103449523D01*
X53792380Y-103163809D02*
X52792380Y-103163809D01*
X52935238Y-103259047D01*
X53030476Y-103354285D01*
X53078095Y-103449523D01*
%TO.C,ZD*%
X145978666Y-115530380D02*
X146645333Y-115530380D01*
X145978666Y-116530380D01*
X146645333Y-116530380D01*
X147026285Y-116530380D02*
X147026285Y-115530380D01*
X147264380Y-115530380D01*
X147407238Y-115578000D01*
X147502476Y-115673238D01*
X147550095Y-115768476D01*
X147597714Y-115958952D01*
X147597714Y-116101809D01*
X147550095Y-116292285D01*
X147502476Y-116387523D01*
X147407238Y-116482761D01*
X147264380Y-116530380D01*
X147026285Y-116530380D01*
X138676095Y-116558380D02*
X138676095Y-115558380D01*
X139247523Y-116558380D02*
X138818952Y-115986952D01*
X139247523Y-115558380D02*
X138676095Y-116129809D01*
%TO.C,C4*%
X186717333Y-112725142D02*
X186669714Y-112772761D01*
X186526857Y-112820380D01*
X186431619Y-112820380D01*
X186288761Y-112772761D01*
X186193523Y-112677523D01*
X186145904Y-112582285D01*
X186098285Y-112391809D01*
X186098285Y-112248952D01*
X186145904Y-112058476D01*
X186193523Y-111963238D01*
X186288761Y-111868000D01*
X186431619Y-111820380D01*
X186526857Y-111820380D01*
X186669714Y-111868000D01*
X186717333Y-111915619D01*
X187574476Y-112153714D02*
X187574476Y-112820380D01*
X187336380Y-111772761D02*
X187098285Y-112487047D01*
X187717333Y-112487047D01*
%TO.C,T1*%
X107402380Y-129666904D02*
X107402380Y-129095476D01*
X108402380Y-129381190D02*
X107402380Y-129381190D01*
X108402380Y-128238333D02*
X108402380Y-128809761D01*
X108402380Y-128524047D02*
X107402380Y-128524047D01*
X107545238Y-128619285D01*
X107640476Y-128714523D01*
X107688095Y-128809761D01*
%TO.C,D2*%
X128039904Y-116388380D02*
X128039904Y-115388380D01*
X128278000Y-115388380D01*
X128420857Y-115436000D01*
X128516095Y-115531238D01*
X128563714Y-115626476D01*
X128611333Y-115816952D01*
X128611333Y-115959809D01*
X128563714Y-116150285D01*
X128516095Y-116245523D01*
X128420857Y-116340761D01*
X128278000Y-116388380D01*
X128039904Y-116388380D01*
X128992285Y-115483619D02*
X129039904Y-115436000D01*
X129135142Y-115388380D01*
X129373238Y-115388380D01*
X129468476Y-115436000D01*
X129516095Y-115483619D01*
X129563714Y-115578857D01*
X129563714Y-115674095D01*
X129516095Y-115816952D01*
X128944666Y-116388380D01*
X129563714Y-116388380D01*
X134104095Y-116558380D02*
X134104095Y-115558380D01*
X134675523Y-116558380D02*
X134246952Y-115986952D01*
X134675523Y-115558380D02*
X134104095Y-116129809D01*
%TO.C,D7*%
X141501904Y-91892380D02*
X141501904Y-90892380D01*
X141740000Y-90892380D01*
X141882857Y-90940000D01*
X141978095Y-91035238D01*
X142025714Y-91130476D01*
X142073333Y-91320952D01*
X142073333Y-91463809D01*
X142025714Y-91654285D01*
X141978095Y-91749523D01*
X141882857Y-91844761D01*
X141740000Y-91892380D01*
X141501904Y-91892380D01*
X142406666Y-90892380D02*
X143073333Y-90892380D01*
X142644761Y-91892380D01*
X135120095Y-90368380D02*
X135120095Y-89368380D01*
X135691523Y-90368380D02*
X135262952Y-89796952D01*
X135691523Y-89368380D02*
X135120095Y-89939809D01*
%TO.C,D10*%
X168488380Y-93162285D02*
X167488380Y-93162285D01*
X167488380Y-92924190D01*
X167536000Y-92781333D01*
X167631238Y-92686095D01*
X167726476Y-92638476D01*
X167916952Y-92590857D01*
X168059809Y-92590857D01*
X168250285Y-92638476D01*
X168345523Y-92686095D01*
X168440761Y-92781333D01*
X168488380Y-92924190D01*
X168488380Y-93162285D01*
X168488380Y-91638476D02*
X168488380Y-92209904D01*
X168488380Y-91924190D02*
X167488380Y-91924190D01*
X167631238Y-92019428D01*
X167726476Y-92114666D01*
X167774095Y-92209904D01*
X167488380Y-91019428D02*
X167488380Y-90924190D01*
X167536000Y-90828952D01*
X167583619Y-90781333D01*
X167678857Y-90733714D01*
X167869333Y-90686095D01*
X168107428Y-90686095D01*
X168297904Y-90733714D01*
X168393142Y-90781333D01*
X168440761Y-90828952D01*
X168488380Y-90924190D01*
X168488380Y-91019428D01*
X168440761Y-91114666D01*
X168393142Y-91162285D01*
X168297904Y-91209904D01*
X168107428Y-91257523D01*
X167869333Y-91257523D01*
X167678857Y-91209904D01*
X167583619Y-91162285D01*
X167536000Y-91114666D01*
X167488380Y-91019428D01*
X168092380Y-96019904D02*
X167092380Y-96019904D01*
X168092380Y-95448476D02*
X167520952Y-95877047D01*
X167092380Y-95448476D02*
X167663809Y-96019904D01*
%TO.C,D9*%
X154836904Y-86812380D02*
X154836904Y-85812380D01*
X155075000Y-85812380D01*
X155217857Y-85860000D01*
X155313095Y-85955238D01*
X155360714Y-86050476D01*
X155408333Y-86240952D01*
X155408333Y-86383809D01*
X155360714Y-86574285D01*
X155313095Y-86669523D01*
X155217857Y-86764761D01*
X155075000Y-86812380D01*
X154836904Y-86812380D01*
X155884523Y-86812380D02*
X156075000Y-86812380D01*
X156170238Y-86764761D01*
X156217857Y-86717142D01*
X156313095Y-86574285D01*
X156360714Y-86383809D01*
X156360714Y-86002857D01*
X156313095Y-85907619D01*
X156265476Y-85860000D01*
X156170238Y-85812380D01*
X155979761Y-85812380D01*
X155884523Y-85860000D01*
X155836904Y-85907619D01*
X155789285Y-86002857D01*
X155789285Y-86240952D01*
X155836904Y-86336190D01*
X155884523Y-86383809D01*
X155979761Y-86431428D01*
X156170238Y-86431428D01*
X156265476Y-86383809D01*
X156313095Y-86336190D01*
X156360714Y-86240952D01*
X155440095Y-90594380D02*
X155440095Y-89594380D01*
X156011523Y-90594380D02*
X155582952Y-90022952D01*
X156011523Y-89594380D02*
X155440095Y-90165809D01*
%TO.C,D14*%
X153090714Y-104592380D02*
X153090714Y-103592380D01*
X153328809Y-103592380D01*
X153471666Y-103640000D01*
X153566904Y-103735238D01*
X153614523Y-103830476D01*
X153662142Y-104020952D01*
X153662142Y-104163809D01*
X153614523Y-104354285D01*
X153566904Y-104449523D01*
X153471666Y-104544761D01*
X153328809Y-104592380D01*
X153090714Y-104592380D01*
X154614523Y-104592380D02*
X154043095Y-104592380D01*
X154328809Y-104592380D02*
X154328809Y-103592380D01*
X154233571Y-103735238D01*
X154138333Y-103830476D01*
X154043095Y-103878095D01*
X155471666Y-103925714D02*
X155471666Y-104592380D01*
X155233571Y-103544761D02*
X154995476Y-104259047D01*
X155614523Y-104259047D01*
X166235095Y-104846380D02*
X166235095Y-103846380D01*
X166806523Y-104846380D02*
X166377952Y-104274952D01*
X166806523Y-103846380D02*
X166235095Y-104417809D01*
%TO.C,D13*%
X157063488Y-110205251D02*
X157770595Y-109498145D01*
X157938954Y-109666503D01*
X158006297Y-109801190D01*
X158006297Y-109935877D01*
X157972625Y-110036893D01*
X157871610Y-110205251D01*
X157770595Y-110306267D01*
X157602236Y-110407282D01*
X157501221Y-110440954D01*
X157366534Y-110440954D01*
X157231847Y-110373610D01*
X157063488Y-110205251D01*
X158140984Y-111282748D02*
X157736923Y-110878687D01*
X157938954Y-111080717D02*
X158646061Y-110373610D01*
X158477702Y-110407282D01*
X158343015Y-110407282D01*
X158242000Y-110373610D01*
X159083793Y-110811343D02*
X159521526Y-111249076D01*
X159016450Y-111282748D01*
X159117465Y-111383763D01*
X159151137Y-111484778D01*
X159151137Y-111552122D01*
X159117465Y-111653137D01*
X158949106Y-111821496D01*
X158848091Y-111855167D01*
X158780748Y-111855167D01*
X158679732Y-111821496D01*
X158477702Y-111619465D01*
X158444030Y-111518450D01*
X158444030Y-111451106D01*
X153894360Y-106847250D02*
X154601467Y-106140143D01*
X154298421Y-107251311D02*
X154399437Y-106544204D01*
X155005528Y-106544204D02*
X154197406Y-106544204D01*
%TO.C,R4*%
X131659333Y-110942380D02*
X131326000Y-110466190D01*
X131087904Y-110942380D02*
X131087904Y-109942380D01*
X131468857Y-109942380D01*
X131564095Y-109990000D01*
X131611714Y-110037619D01*
X131659333Y-110132857D01*
X131659333Y-110275714D01*
X131611714Y-110370952D01*
X131564095Y-110418571D01*
X131468857Y-110466190D01*
X131087904Y-110466190D01*
X132516476Y-110275714D02*
X132516476Y-110942380D01*
X132278380Y-109894761D02*
X132040285Y-110609047D01*
X132659333Y-110609047D01*
%TO.C,D4*%
X116022380Y-124436095D02*
X115022380Y-124436095D01*
X115022380Y-124198000D01*
X115070000Y-124055142D01*
X115165238Y-123959904D01*
X115260476Y-123912285D01*
X115450952Y-123864666D01*
X115593809Y-123864666D01*
X115784285Y-123912285D01*
X115879523Y-123959904D01*
X115974761Y-124055142D01*
X116022380Y-124198000D01*
X116022380Y-124436095D01*
X115355714Y-123007523D02*
X116022380Y-123007523D01*
X114974761Y-123245619D02*
X115689047Y-123483714D01*
X115689047Y-122864666D01*
%TO.C,LED1*%
X49680952Y-120236380D02*
X49204761Y-120236380D01*
X49204761Y-119236380D01*
X50014285Y-119712571D02*
X50347619Y-119712571D01*
X50490476Y-120236380D02*
X50014285Y-120236380D01*
X50014285Y-119236380D01*
X50490476Y-119236380D01*
X50919047Y-120236380D02*
X50919047Y-119236380D01*
X51157142Y-119236380D01*
X51300000Y-119284000D01*
X51395238Y-119379238D01*
X51442857Y-119474476D01*
X51490476Y-119664952D01*
X51490476Y-119807809D01*
X51442857Y-119998285D01*
X51395238Y-120093523D01*
X51300000Y-120188761D01*
X51157142Y-120236380D01*
X50919047Y-120236380D01*
X52442857Y-120236380D02*
X51871428Y-120236380D01*
X52157142Y-120236380D02*
X52157142Y-119236380D01*
X52061904Y-119379238D01*
X51966666Y-119474476D01*
X51871428Y-119522095D01*
%TO.C,LED2*%
X45870952Y-91892380D02*
X45394761Y-91892380D01*
X45394761Y-90892380D01*
X46204285Y-91368571D02*
X46537619Y-91368571D01*
X46680476Y-91892380D02*
X46204285Y-91892380D01*
X46204285Y-90892380D01*
X46680476Y-90892380D01*
X47109047Y-91892380D02*
X47109047Y-90892380D01*
X47347142Y-90892380D01*
X47490000Y-90940000D01*
X47585238Y-91035238D01*
X47632857Y-91130476D01*
X47680476Y-91320952D01*
X47680476Y-91463809D01*
X47632857Y-91654285D01*
X47585238Y-91749523D01*
X47490000Y-91844761D01*
X47347142Y-91892380D01*
X47109047Y-91892380D01*
X48061428Y-90987619D02*
X48109047Y-90940000D01*
X48204285Y-90892380D01*
X48442380Y-90892380D01*
X48537619Y-90940000D01*
X48585238Y-90987619D01*
X48632857Y-91082857D01*
X48632857Y-91178095D01*
X48585238Y-91320952D01*
X48013809Y-91892380D01*
X48632857Y-91892380D01*
%TO.C,Q2*%
X66198761Y-139739619D02*
X66103523Y-139692000D01*
X66008285Y-139596761D01*
X65865428Y-139453904D01*
X65770190Y-139406285D01*
X65674952Y-139406285D01*
X65722571Y-139644380D02*
X65627333Y-139596761D01*
X65532095Y-139501523D01*
X65484476Y-139311047D01*
X65484476Y-138977714D01*
X65532095Y-138787238D01*
X65627333Y-138692000D01*
X65722571Y-138644380D01*
X65913047Y-138644380D01*
X66008285Y-138692000D01*
X66103523Y-138787238D01*
X66151142Y-138977714D01*
X66151142Y-139311047D01*
X66103523Y-139501523D01*
X66008285Y-139596761D01*
X65913047Y-139644380D01*
X65722571Y-139644380D01*
X66532095Y-138739619D02*
X66579714Y-138692000D01*
X66674952Y-138644380D01*
X66913047Y-138644380D01*
X67008285Y-138692000D01*
X67055904Y-138739619D01*
X67103523Y-138834857D01*
X67103523Y-138930095D01*
X67055904Y-139072952D01*
X66484476Y-139644380D01*
X67103523Y-139644380D01*
%TO.C,Q1*%
X166909761Y-135167619D02*
X166814523Y-135120000D01*
X166719285Y-135024761D01*
X166576428Y-134881904D01*
X166481190Y-134834285D01*
X166385952Y-134834285D01*
X166433571Y-135072380D02*
X166338333Y-135024761D01*
X166243095Y-134929523D01*
X166195476Y-134739047D01*
X166195476Y-134405714D01*
X166243095Y-134215238D01*
X166338333Y-134120000D01*
X166433571Y-134072380D01*
X166624047Y-134072380D01*
X166719285Y-134120000D01*
X166814523Y-134215238D01*
X166862142Y-134405714D01*
X166862142Y-134739047D01*
X166814523Y-134929523D01*
X166719285Y-135024761D01*
X166624047Y-135072380D01*
X166433571Y-135072380D01*
X167814523Y-135072380D02*
X167243095Y-135072380D01*
X167528809Y-135072380D02*
X167528809Y-134072380D01*
X167433571Y-134215238D01*
X167338333Y-134310476D01*
X167243095Y-134358095D01*
%TO.C,D1*%
X179776380Y-124436095D02*
X178776380Y-124436095D01*
X178776380Y-124198000D01*
X178824000Y-124055142D01*
X178919238Y-123959904D01*
X179014476Y-123912285D01*
X179204952Y-123864666D01*
X179347809Y-123864666D01*
X179538285Y-123912285D01*
X179633523Y-123959904D01*
X179728761Y-124055142D01*
X179776380Y-124198000D01*
X179776380Y-124436095D01*
X179776380Y-122912285D02*
X179776380Y-123483714D01*
X179776380Y-123198000D02*
X178776380Y-123198000D01*
X178919238Y-123293238D01*
X179014476Y-123388476D01*
X179062095Y-123483714D01*
%TO.C,D6*%
X103307380Y-99163095D02*
X102307380Y-99163095D01*
X102307380Y-98925000D01*
X102355000Y-98782142D01*
X102450238Y-98686904D01*
X102545476Y-98639285D01*
X102735952Y-98591666D01*
X102878809Y-98591666D01*
X103069285Y-98639285D01*
X103164523Y-98686904D01*
X103259761Y-98782142D01*
X103307380Y-98925000D01*
X103307380Y-99163095D01*
X102307380Y-97734523D02*
X102307380Y-97925000D01*
X102355000Y-98020238D01*
X102402619Y-98067857D01*
X102545476Y-98163095D01*
X102735952Y-98210714D01*
X103116904Y-98210714D01*
X103212142Y-98163095D01*
X103259761Y-98115476D01*
X103307380Y-98020238D01*
X103307380Y-97829761D01*
X103259761Y-97734523D01*
X103212142Y-97686904D01*
X103116904Y-97639285D01*
X102878809Y-97639285D01*
X102783571Y-97686904D01*
X102735952Y-97734523D01*
X102688333Y-97829761D01*
X102688333Y-98020238D01*
X102735952Y-98115476D01*
X102783571Y-98163095D01*
X102878809Y-98210714D01*
%TO.C,R42*%
X180792380Y-111640857D02*
X180316190Y-111974190D01*
X180792380Y-112212285D02*
X179792380Y-112212285D01*
X179792380Y-111831333D01*
X179840000Y-111736095D01*
X179887619Y-111688476D01*
X179982857Y-111640857D01*
X180125714Y-111640857D01*
X180220952Y-111688476D01*
X180268571Y-111736095D01*
X180316190Y-111831333D01*
X180316190Y-112212285D01*
X180125714Y-110783714D02*
X180792380Y-110783714D01*
X179744761Y-111021809D02*
X180459047Y-111259904D01*
X180459047Y-110640857D01*
X179887619Y-110307523D02*
X179840000Y-110259904D01*
X179792380Y-110164666D01*
X179792380Y-109926571D01*
X179840000Y-109831333D01*
X179887619Y-109783714D01*
X179982857Y-109736095D01*
X180078095Y-109736095D01*
X180220952Y-109783714D01*
X180792380Y-110355142D01*
X180792380Y-109736095D01*
%TO.C,J1*%
D13*
X187899523Y-126153333D02*
X188806666Y-126153333D01*
X188988095Y-126213809D01*
X189109047Y-126334761D01*
X189169523Y-126516190D01*
X189169523Y-126637142D01*
X189169523Y-124883333D02*
X189169523Y-125609047D01*
X189169523Y-125246190D02*
X187899523Y-125246190D01*
X188080952Y-125367142D01*
X188201904Y-125488095D01*
X188262380Y-125609047D01*
%TO.C,R2*%
D11*
X63333333Y-132532380D02*
X63000000Y-132056190D01*
X62761904Y-132532380D02*
X62761904Y-131532380D01*
X63142857Y-131532380D01*
X63238095Y-131580000D01*
X63285714Y-131627619D01*
X63333333Y-131722857D01*
X63333333Y-131865714D01*
X63285714Y-131960952D01*
X63238095Y-132008571D01*
X63142857Y-132056190D01*
X62761904Y-132056190D01*
X63714285Y-131627619D02*
X63761904Y-131580000D01*
X63857142Y-131532380D01*
X64095238Y-131532380D01*
X64190476Y-131580000D01*
X64238095Y-131627619D01*
X64285714Y-131722857D01*
X64285714Y-131818095D01*
X64238095Y-131960952D01*
X63666666Y-132532380D01*
X64285714Y-132532380D01*
%TO.C,L1*%
X40842029Y-121722732D02*
X40505311Y-122059450D01*
X39798205Y-121352343D01*
X41448121Y-121116641D02*
X41044060Y-121520702D01*
X41246090Y-121318671D02*
X40538983Y-120611564D01*
X40572655Y-120779923D01*
X40572655Y-120914610D01*
X40538983Y-121015625D01*
%TO.C,L2*%
X176982380Y-96686666D02*
X176982380Y-97162857D01*
X175982380Y-97162857D01*
X176077619Y-96400952D02*
X176030000Y-96353333D01*
X175982380Y-96258095D01*
X175982380Y-96020000D01*
X176030000Y-95924761D01*
X176077619Y-95877142D01*
X176172857Y-95829523D01*
X176268095Y-95829523D01*
X176410952Y-95877142D01*
X176982380Y-96448571D01*
X176982380Y-95829523D01*
%TO.C,U6*%
X185518095Y-109180380D02*
X185518095Y-109989904D01*
X185565714Y-110085142D01*
X185613333Y-110132761D01*
X185708571Y-110180380D01*
X185899047Y-110180380D01*
X185994285Y-110132761D01*
X186041904Y-110085142D01*
X186089523Y-109989904D01*
X186089523Y-109180380D01*
X186994285Y-109180380D02*
X186803809Y-109180380D01*
X186708571Y-109228000D01*
X186660952Y-109275619D01*
X186565714Y-109418476D01*
X186518095Y-109608952D01*
X186518095Y-109989904D01*
X186565714Y-110085142D01*
X186613333Y-110132761D01*
X186708571Y-110180380D01*
X186899047Y-110180380D01*
X186994285Y-110132761D01*
X187041904Y-110085142D01*
X187089523Y-109989904D01*
X187089523Y-109751809D01*
X187041904Y-109656571D01*
X186994285Y-109608952D01*
X186899047Y-109561333D01*
X186708571Y-109561333D01*
X186613333Y-109608952D01*
X186565714Y-109656571D01*
X186518095Y-109751809D01*
%TO.C,C8*%
X169395142Y-87034666D02*
X169442761Y-87082285D01*
X169490380Y-87225142D01*
X169490380Y-87320380D01*
X169442761Y-87463238D01*
X169347523Y-87558476D01*
X169252285Y-87606095D01*
X169061809Y-87653714D01*
X168918952Y-87653714D01*
X168728476Y-87606095D01*
X168633238Y-87558476D01*
X168538000Y-87463238D01*
X168490380Y-87320380D01*
X168490380Y-87225142D01*
X168538000Y-87082285D01*
X168585619Y-87034666D01*
X168918952Y-86463238D02*
X168871333Y-86558476D01*
X168823714Y-86606095D01*
X168728476Y-86653714D01*
X168680857Y-86653714D01*
X168585619Y-86606095D01*
X168538000Y-86558476D01*
X168490380Y-86463238D01*
X168490380Y-86272761D01*
X168538000Y-86177523D01*
X168585619Y-86129904D01*
X168680857Y-86082285D01*
X168728476Y-86082285D01*
X168823714Y-86129904D01*
X168871333Y-86177523D01*
X168918952Y-86272761D01*
X168918952Y-86463238D01*
X168966571Y-86558476D01*
X169014190Y-86606095D01*
X169109428Y-86653714D01*
X169299904Y-86653714D01*
X169395142Y-86606095D01*
X169442761Y-86558476D01*
X169490380Y-86463238D01*
X169490380Y-86272761D01*
X169442761Y-86177523D01*
X169395142Y-86129904D01*
X169299904Y-86082285D01*
X169109428Y-86082285D01*
X169014190Y-86129904D01*
X168966571Y-86177523D01*
X168918952Y-86272761D01*
%TO.C,R45*%
X173807380Y-97797857D02*
X173331190Y-98131190D01*
X173807380Y-98369285D02*
X172807380Y-98369285D01*
X172807380Y-97988333D01*
X172855000Y-97893095D01*
X172902619Y-97845476D01*
X172997857Y-97797857D01*
X173140714Y-97797857D01*
X173235952Y-97845476D01*
X173283571Y-97893095D01*
X173331190Y-97988333D01*
X173331190Y-98369285D01*
X173140714Y-96940714D02*
X173807380Y-96940714D01*
X172759761Y-97178809D02*
X173474047Y-97416904D01*
X173474047Y-96797857D01*
X172807380Y-95940714D02*
X172807380Y-96416904D01*
X173283571Y-96464523D01*
X173235952Y-96416904D01*
X173188333Y-96321666D01*
X173188333Y-96083571D01*
X173235952Y-95988333D01*
X173283571Y-95940714D01*
X173378809Y-95893095D01*
X173616904Y-95893095D01*
X173712142Y-95940714D01*
X173759761Y-95988333D01*
X173807380Y-96083571D01*
X173807380Y-96321666D01*
X173759761Y-96416904D01*
X173712142Y-96464523D01*
%TO.C,R27*%
X144137142Y-95448380D02*
X143803809Y-94972190D01*
X143565714Y-95448380D02*
X143565714Y-94448380D01*
X143946666Y-94448380D01*
X144041904Y-94496000D01*
X144089523Y-94543619D01*
X144137142Y-94638857D01*
X144137142Y-94781714D01*
X144089523Y-94876952D01*
X144041904Y-94924571D01*
X143946666Y-94972190D01*
X143565714Y-94972190D01*
X144518095Y-94543619D02*
X144565714Y-94496000D01*
X144660952Y-94448380D01*
X144899047Y-94448380D01*
X144994285Y-94496000D01*
X145041904Y-94543619D01*
X145089523Y-94638857D01*
X145089523Y-94734095D01*
X145041904Y-94876952D01*
X144470476Y-95448380D01*
X145089523Y-95448380D01*
X145422857Y-94448380D02*
X146089523Y-94448380D01*
X145660952Y-95448380D01*
%TO.C,C3*%
X121515142Y-92241666D02*
X121562761Y-92289285D01*
X121610380Y-92432142D01*
X121610380Y-92527380D01*
X121562761Y-92670238D01*
X121467523Y-92765476D01*
X121372285Y-92813095D01*
X121181809Y-92860714D01*
X121038952Y-92860714D01*
X120848476Y-92813095D01*
X120753238Y-92765476D01*
X120658000Y-92670238D01*
X120610380Y-92527380D01*
X120610380Y-92432142D01*
X120658000Y-92289285D01*
X120705619Y-92241666D01*
X120610380Y-91908333D02*
X120610380Y-91289285D01*
X120991333Y-91622619D01*
X120991333Y-91479761D01*
X121038952Y-91384523D01*
X121086571Y-91336904D01*
X121181809Y-91289285D01*
X121419904Y-91289285D01*
X121515142Y-91336904D01*
X121562761Y-91384523D01*
X121610380Y-91479761D01*
X121610380Y-91765476D01*
X121562761Y-91860714D01*
X121515142Y-91908333D01*
%TO.C,R46*%
X175458380Y-120276857D02*
X174982190Y-120610190D01*
X175458380Y-120848285D02*
X174458380Y-120848285D01*
X174458380Y-120467333D01*
X174506000Y-120372095D01*
X174553619Y-120324476D01*
X174648857Y-120276857D01*
X174791714Y-120276857D01*
X174886952Y-120324476D01*
X174934571Y-120372095D01*
X174982190Y-120467333D01*
X174982190Y-120848285D01*
X174791714Y-119419714D02*
X175458380Y-119419714D01*
X174410761Y-119657809D02*
X175125047Y-119895904D01*
X175125047Y-119276857D01*
X174458380Y-118467333D02*
X174458380Y-118657809D01*
X174506000Y-118753047D01*
X174553619Y-118800666D01*
X174696476Y-118895904D01*
X174886952Y-118943523D01*
X175267904Y-118943523D01*
X175363142Y-118895904D01*
X175410761Y-118848285D01*
X175458380Y-118753047D01*
X175458380Y-118562571D01*
X175410761Y-118467333D01*
X175363142Y-118419714D01*
X175267904Y-118372095D01*
X175029809Y-118372095D01*
X174934571Y-118419714D01*
X174886952Y-118467333D01*
X174839333Y-118562571D01*
X174839333Y-118753047D01*
X174886952Y-118848285D01*
X174934571Y-118895904D01*
X175029809Y-118943523D01*
%TO.C,R47*%
X175458380Y-123070857D02*
X174982190Y-123404190D01*
X175458380Y-123642285D02*
X174458380Y-123642285D01*
X174458380Y-123261333D01*
X174506000Y-123166095D01*
X174553619Y-123118476D01*
X174648857Y-123070857D01*
X174791714Y-123070857D01*
X174886952Y-123118476D01*
X174934571Y-123166095D01*
X174982190Y-123261333D01*
X174982190Y-123642285D01*
X174791714Y-122213714D02*
X175458380Y-122213714D01*
X174410761Y-122451809D02*
X175125047Y-122689904D01*
X175125047Y-122070857D01*
X174458380Y-121785142D02*
X174458380Y-121118476D01*
X175458380Y-121547047D01*
%TO.C,REF\u002A\u002A*%
X58610666Y-140224380D02*
X58277333Y-139748190D01*
X58039238Y-140224380D02*
X58039238Y-139224380D01*
X58420190Y-139224380D01*
X58515428Y-139272000D01*
X58563047Y-139319619D01*
X58610666Y-139414857D01*
X58610666Y-139557714D01*
X58563047Y-139652952D01*
X58515428Y-139700571D01*
X58420190Y-139748190D01*
X58039238Y-139748190D01*
X59039238Y-139700571D02*
X59372571Y-139700571D01*
X59515428Y-140224380D02*
X59039238Y-140224380D01*
X59039238Y-139224380D01*
X59515428Y-139224380D01*
X60277333Y-139700571D02*
X59944000Y-139700571D01*
X59944000Y-140224380D02*
X59944000Y-139224380D01*
X60420190Y-139224380D01*
X60944000Y-139224380D02*
X60944000Y-139462476D01*
X60705904Y-139367238D02*
X60944000Y-139462476D01*
X61182095Y-139367238D01*
X60801142Y-139652952D02*
X60944000Y-139462476D01*
X61086857Y-139652952D01*
X61705904Y-139224380D02*
X61705904Y-139462476D01*
X61467809Y-139367238D02*
X61705904Y-139462476D01*
X61944000Y-139367238D01*
X61563047Y-139652952D02*
X61705904Y-139462476D01*
X61848761Y-139652952D01*
%TO.C,R12*%
X49649142Y-80462380D02*
X49315809Y-79986190D01*
X49077714Y-80462380D02*
X49077714Y-79462380D01*
X49458666Y-79462380D01*
X49553904Y-79510000D01*
X49601523Y-79557619D01*
X49649142Y-79652857D01*
X49649142Y-79795714D01*
X49601523Y-79890952D01*
X49553904Y-79938571D01*
X49458666Y-79986190D01*
X49077714Y-79986190D01*
X50601523Y-80462380D02*
X50030095Y-80462380D01*
X50315809Y-80462380D02*
X50315809Y-79462380D01*
X50220571Y-79605238D01*
X50125333Y-79700476D01*
X50030095Y-79748095D01*
X50982476Y-79557619D02*
X51030095Y-79510000D01*
X51125333Y-79462380D01*
X51363428Y-79462380D01*
X51458666Y-79510000D01*
X51506285Y-79557619D01*
X51553904Y-79652857D01*
X51553904Y-79748095D01*
X51506285Y-79890952D01*
X50934857Y-80462380D01*
X51553904Y-80462380D01*
%TO.C,C16*%
X62547142Y-91574857D02*
X62594761Y-91622476D01*
X62642380Y-91765333D01*
X62642380Y-91860571D01*
X62594761Y-92003428D01*
X62499523Y-92098666D01*
X62404285Y-92146285D01*
X62213809Y-92193904D01*
X62070952Y-92193904D01*
X61880476Y-92146285D01*
X61785238Y-92098666D01*
X61690000Y-92003428D01*
X61642380Y-91860571D01*
X61642380Y-91765333D01*
X61690000Y-91622476D01*
X61737619Y-91574857D01*
X62642380Y-90622476D02*
X62642380Y-91193904D01*
X62642380Y-90908190D02*
X61642380Y-90908190D01*
X61785238Y-91003428D01*
X61880476Y-91098666D01*
X61928095Y-91193904D01*
X61642380Y-89765333D02*
X61642380Y-89955809D01*
X61690000Y-90051047D01*
X61737619Y-90098666D01*
X61880476Y-90193904D01*
X62070952Y-90241523D01*
X62451904Y-90241523D01*
X62547142Y-90193904D01*
X62594761Y-90146285D01*
X62642380Y-90051047D01*
X62642380Y-89860571D01*
X62594761Y-89765333D01*
X62547142Y-89717714D01*
X62451904Y-89670095D01*
X62213809Y-89670095D01*
X62118571Y-89717714D01*
X62070952Y-89765333D01*
X62023333Y-89860571D01*
X62023333Y-90051047D01*
X62070952Y-90146285D01*
X62118571Y-90193904D01*
X62213809Y-90241523D01*
%TO.C,C12*%
X67683142Y-78589142D02*
X67635523Y-78636761D01*
X67492666Y-78684380D01*
X67397428Y-78684380D01*
X67254571Y-78636761D01*
X67159333Y-78541523D01*
X67111714Y-78446285D01*
X67064095Y-78255809D01*
X67064095Y-78112952D01*
X67111714Y-77922476D01*
X67159333Y-77827238D01*
X67254571Y-77732000D01*
X67397428Y-77684380D01*
X67492666Y-77684380D01*
X67635523Y-77732000D01*
X67683142Y-77779619D01*
X68635523Y-78684380D02*
X68064095Y-78684380D01*
X68349809Y-78684380D02*
X68349809Y-77684380D01*
X68254571Y-77827238D01*
X68159333Y-77922476D01*
X68064095Y-77970095D01*
X69016476Y-77779619D02*
X69064095Y-77732000D01*
X69159333Y-77684380D01*
X69397428Y-77684380D01*
X69492666Y-77732000D01*
X69540285Y-77779619D01*
X69587904Y-77874857D01*
X69587904Y-77970095D01*
X69540285Y-78112952D01*
X68968857Y-78684380D01*
X69587904Y-78684380D01*
%TO.C,R14*%
X142359142Y-96972380D02*
X142025809Y-96496190D01*
X141787714Y-96972380D02*
X141787714Y-95972380D01*
X142168666Y-95972380D01*
X142263904Y-96020000D01*
X142311523Y-96067619D01*
X142359142Y-96162857D01*
X142359142Y-96305714D01*
X142311523Y-96400952D01*
X142263904Y-96448571D01*
X142168666Y-96496190D01*
X141787714Y-96496190D01*
X143311523Y-96972380D02*
X142740095Y-96972380D01*
X143025809Y-96972380D02*
X143025809Y-95972380D01*
X142930571Y-96115238D01*
X142835333Y-96210476D01*
X142740095Y-96258095D01*
X144168666Y-96305714D02*
X144168666Y-96972380D01*
X143930571Y-95924761D02*
X143692476Y-96639047D01*
X144311523Y-96639047D01*
%TO.C,R29*%
X148407380Y-97797857D02*
X147931190Y-98131190D01*
X148407380Y-98369285D02*
X147407380Y-98369285D01*
X147407380Y-97988333D01*
X147455000Y-97893095D01*
X147502619Y-97845476D01*
X147597857Y-97797857D01*
X147740714Y-97797857D01*
X147835952Y-97845476D01*
X147883571Y-97893095D01*
X147931190Y-97988333D01*
X147931190Y-98369285D01*
X147502619Y-97416904D02*
X147455000Y-97369285D01*
X147407380Y-97274047D01*
X147407380Y-97035952D01*
X147455000Y-96940714D01*
X147502619Y-96893095D01*
X147597857Y-96845476D01*
X147693095Y-96845476D01*
X147835952Y-96893095D01*
X148407380Y-97464523D01*
X148407380Y-96845476D01*
X148407380Y-96369285D02*
X148407380Y-96178809D01*
X148359761Y-96083571D01*
X148312142Y-96035952D01*
X148169285Y-95940714D01*
X147978809Y-95893095D01*
X147597857Y-95893095D01*
X147502619Y-95940714D01*
X147455000Y-95988333D01*
X147407380Y-96083571D01*
X147407380Y-96274047D01*
X147455000Y-96369285D01*
X147502619Y-96416904D01*
X147597857Y-96464523D01*
X147835952Y-96464523D01*
X147931190Y-96416904D01*
X147978809Y-96369285D01*
X148026428Y-96274047D01*
X148026428Y-96083571D01*
X147978809Y-95988333D01*
X147931190Y-95940714D01*
X147835952Y-95893095D01*
%TO.C,R28*%
X154122380Y-90177857D02*
X153646190Y-90511190D01*
X154122380Y-90749285D02*
X153122380Y-90749285D01*
X153122380Y-90368333D01*
X153170000Y-90273095D01*
X153217619Y-90225476D01*
X153312857Y-90177857D01*
X153455714Y-90177857D01*
X153550952Y-90225476D01*
X153598571Y-90273095D01*
X153646190Y-90368333D01*
X153646190Y-90749285D01*
X153217619Y-89796904D02*
X153170000Y-89749285D01*
X153122380Y-89654047D01*
X153122380Y-89415952D01*
X153170000Y-89320714D01*
X153217619Y-89273095D01*
X153312857Y-89225476D01*
X153408095Y-89225476D01*
X153550952Y-89273095D01*
X154122380Y-89844523D01*
X154122380Y-89225476D01*
X153550952Y-88654047D02*
X153503333Y-88749285D01*
X153455714Y-88796904D01*
X153360476Y-88844523D01*
X153312857Y-88844523D01*
X153217619Y-88796904D01*
X153170000Y-88749285D01*
X153122380Y-88654047D01*
X153122380Y-88463571D01*
X153170000Y-88368333D01*
X153217619Y-88320714D01*
X153312857Y-88273095D01*
X153360476Y-88273095D01*
X153455714Y-88320714D01*
X153503333Y-88368333D01*
X153550952Y-88463571D01*
X153550952Y-88654047D01*
X153598571Y-88749285D01*
X153646190Y-88796904D01*
X153741428Y-88844523D01*
X153931904Y-88844523D01*
X154027142Y-88796904D01*
X154074761Y-88749285D01*
X154122380Y-88654047D01*
X154122380Y-88463571D01*
X154074761Y-88368333D01*
X154027142Y-88320714D01*
X153931904Y-88273095D01*
X153741428Y-88273095D01*
X153646190Y-88320714D01*
X153598571Y-88368333D01*
X153550952Y-88463571D01*
%TO.C,R20*%
X77843142Y-95194380D02*
X77509809Y-94718190D01*
X77271714Y-95194380D02*
X77271714Y-94194380D01*
X77652666Y-94194380D01*
X77747904Y-94242000D01*
X77795523Y-94289619D01*
X77843142Y-94384857D01*
X77843142Y-94527714D01*
X77795523Y-94622952D01*
X77747904Y-94670571D01*
X77652666Y-94718190D01*
X77271714Y-94718190D01*
X78224095Y-94289619D02*
X78271714Y-94242000D01*
X78366952Y-94194380D01*
X78605047Y-94194380D01*
X78700285Y-94242000D01*
X78747904Y-94289619D01*
X78795523Y-94384857D01*
X78795523Y-94480095D01*
X78747904Y-94622952D01*
X78176476Y-95194380D01*
X78795523Y-95194380D01*
X79414571Y-94194380D02*
X79509809Y-94194380D01*
X79605047Y-94242000D01*
X79652666Y-94289619D01*
X79700285Y-94384857D01*
X79747904Y-94575333D01*
X79747904Y-94813428D01*
X79700285Y-95003904D01*
X79652666Y-95099142D01*
X79605047Y-95146761D01*
X79509809Y-95194380D01*
X79414571Y-95194380D01*
X79319333Y-95146761D01*
X79271714Y-95099142D01*
X79224095Y-95003904D01*
X79176476Y-94813428D01*
X79176476Y-94575333D01*
X79224095Y-94384857D01*
X79271714Y-94289619D01*
X79319333Y-94242000D01*
X79414571Y-94194380D01*
%TO.C,R18*%
X112387142Y-87066380D02*
X112053809Y-86590190D01*
X111815714Y-87066380D02*
X111815714Y-86066380D01*
X112196666Y-86066380D01*
X112291904Y-86114000D01*
X112339523Y-86161619D01*
X112387142Y-86256857D01*
X112387142Y-86399714D01*
X112339523Y-86494952D01*
X112291904Y-86542571D01*
X112196666Y-86590190D01*
X111815714Y-86590190D01*
X113339523Y-87066380D02*
X112768095Y-87066380D01*
X113053809Y-87066380D02*
X113053809Y-86066380D01*
X112958571Y-86209238D01*
X112863333Y-86304476D01*
X112768095Y-86352095D01*
X113910952Y-86494952D02*
X113815714Y-86447333D01*
X113768095Y-86399714D01*
X113720476Y-86304476D01*
X113720476Y-86256857D01*
X113768095Y-86161619D01*
X113815714Y-86114000D01*
X113910952Y-86066380D01*
X114101428Y-86066380D01*
X114196666Y-86114000D01*
X114244285Y-86161619D01*
X114291904Y-86256857D01*
X114291904Y-86304476D01*
X114244285Y-86399714D01*
X114196666Y-86447333D01*
X114101428Y-86494952D01*
X113910952Y-86494952D01*
X113815714Y-86542571D01*
X113768095Y-86590190D01*
X113720476Y-86685428D01*
X113720476Y-86875904D01*
X113768095Y-86971142D01*
X113815714Y-87018761D01*
X113910952Y-87066380D01*
X114101428Y-87066380D01*
X114196666Y-87018761D01*
X114244285Y-86971142D01*
X114291904Y-86875904D01*
X114291904Y-86685428D01*
X114244285Y-86590190D01*
X114196666Y-86542571D01*
X114101428Y-86494952D01*
%TO.C,R5*%
X118705333Y-100020380D02*
X118372000Y-99544190D01*
X118133904Y-100020380D02*
X118133904Y-99020380D01*
X118514857Y-99020380D01*
X118610095Y-99068000D01*
X118657714Y-99115619D01*
X118705333Y-99210857D01*
X118705333Y-99353714D01*
X118657714Y-99448952D01*
X118610095Y-99496571D01*
X118514857Y-99544190D01*
X118133904Y-99544190D01*
X119610095Y-99020380D02*
X119133904Y-99020380D01*
X119086285Y-99496571D01*
X119133904Y-99448952D01*
X119229142Y-99401333D01*
X119467238Y-99401333D01*
X119562476Y-99448952D01*
X119610095Y-99496571D01*
X119657714Y-99591809D01*
X119657714Y-99829904D01*
X119610095Y-99925142D01*
X119562476Y-99972761D01*
X119467238Y-100020380D01*
X119229142Y-100020380D01*
X119133904Y-99972761D01*
X119086285Y-99925142D01*
%TO.C,R16*%
X89781142Y-91892380D02*
X89447809Y-91416190D01*
X89209714Y-91892380D02*
X89209714Y-90892380D01*
X89590666Y-90892380D01*
X89685904Y-90940000D01*
X89733523Y-90987619D01*
X89781142Y-91082857D01*
X89781142Y-91225714D01*
X89733523Y-91320952D01*
X89685904Y-91368571D01*
X89590666Y-91416190D01*
X89209714Y-91416190D01*
X90733523Y-91892380D02*
X90162095Y-91892380D01*
X90447809Y-91892380D02*
X90447809Y-90892380D01*
X90352571Y-91035238D01*
X90257333Y-91130476D01*
X90162095Y-91178095D01*
X91590666Y-90892380D02*
X91400190Y-90892380D01*
X91304952Y-90940000D01*
X91257333Y-90987619D01*
X91162095Y-91130476D01*
X91114476Y-91320952D01*
X91114476Y-91701904D01*
X91162095Y-91797142D01*
X91209714Y-91844761D01*
X91304952Y-91892380D01*
X91495428Y-91892380D01*
X91590666Y-91844761D01*
X91638285Y-91797142D01*
X91685904Y-91701904D01*
X91685904Y-91463809D01*
X91638285Y-91368571D01*
X91590666Y-91320952D01*
X91495428Y-91273333D01*
X91304952Y-91273333D01*
X91209714Y-91320952D01*
X91162095Y-91368571D01*
X91114476Y-91463809D01*
%TO.C,R17*%
X72763142Y-78684380D02*
X72429809Y-78208190D01*
X72191714Y-78684380D02*
X72191714Y-77684380D01*
X72572666Y-77684380D01*
X72667904Y-77732000D01*
X72715523Y-77779619D01*
X72763142Y-77874857D01*
X72763142Y-78017714D01*
X72715523Y-78112952D01*
X72667904Y-78160571D01*
X72572666Y-78208190D01*
X72191714Y-78208190D01*
X73715523Y-78684380D02*
X73144095Y-78684380D01*
X73429809Y-78684380D02*
X73429809Y-77684380D01*
X73334571Y-77827238D01*
X73239333Y-77922476D01*
X73144095Y-77970095D01*
X74048857Y-77684380D02*
X74715523Y-77684380D01*
X74286952Y-78684380D01*
%TO.C,C19*%
X49327969Y-137232107D02*
X49327969Y-137299451D01*
X49260625Y-137434138D01*
X49193282Y-137501481D01*
X49058595Y-137568825D01*
X48923908Y-137568825D01*
X48822893Y-137535153D01*
X48654534Y-137434138D01*
X48553519Y-137333123D01*
X48452503Y-137164764D01*
X48418832Y-137063749D01*
X48418832Y-136929062D01*
X48486175Y-136794375D01*
X48553519Y-136727031D01*
X48688206Y-136659688D01*
X48755549Y-136659688D01*
X50068748Y-136626016D02*
X49664687Y-137030077D01*
X49866717Y-136828046D02*
X49159610Y-136120939D01*
X49193282Y-136289298D01*
X49193282Y-136423985D01*
X49159610Y-136525001D01*
X50405465Y-136289298D02*
X50540152Y-136154611D01*
X50573824Y-136053596D01*
X50573824Y-135986252D01*
X50540152Y-135817894D01*
X50439137Y-135649535D01*
X50169763Y-135380161D01*
X50068748Y-135346489D01*
X50001404Y-135346489D01*
X49900389Y-135380161D01*
X49765702Y-135514848D01*
X49732030Y-135615863D01*
X49732030Y-135683207D01*
X49765702Y-135784222D01*
X49934061Y-135952581D01*
X50035076Y-135986252D01*
X50102419Y-135986252D01*
X50203435Y-135952581D01*
X50338122Y-135817894D01*
X50371793Y-135716878D01*
X50371793Y-135649535D01*
X50338122Y-135548520D01*
%TO.C,C1*%
X114260333Y-131421142D02*
X114212714Y-131468761D01*
X114069857Y-131516380D01*
X113974619Y-131516380D01*
X113831761Y-131468761D01*
X113736523Y-131373523D01*
X113688904Y-131278285D01*
X113641285Y-131087809D01*
X113641285Y-130944952D01*
X113688904Y-130754476D01*
X113736523Y-130659238D01*
X113831761Y-130564000D01*
X113974619Y-130516380D01*
X114069857Y-130516380D01*
X114212714Y-130564000D01*
X114260333Y-130611619D01*
X115212714Y-131516380D02*
X114641285Y-131516380D01*
X114927000Y-131516380D02*
X114927000Y-130516380D01*
X114831761Y-130659238D01*
X114736523Y-130754476D01*
X114641285Y-130802095D01*
%TO.C,C2*%
X80942142Y-137012666D02*
X80989761Y-137060285D01*
X81037380Y-137203142D01*
X81037380Y-137298380D01*
X80989761Y-137441238D01*
X80894523Y-137536476D01*
X80799285Y-137584095D01*
X80608809Y-137631714D01*
X80465952Y-137631714D01*
X80275476Y-137584095D01*
X80180238Y-137536476D01*
X80085000Y-137441238D01*
X80037380Y-137298380D01*
X80037380Y-137203142D01*
X80085000Y-137060285D01*
X80132619Y-137012666D01*
X80132619Y-136631714D02*
X80085000Y-136584095D01*
X80037380Y-136488857D01*
X80037380Y-136250761D01*
X80085000Y-136155523D01*
X80132619Y-136107904D01*
X80227857Y-136060285D01*
X80323095Y-136060285D01*
X80465952Y-136107904D01*
X81037380Y-136679333D01*
X81037380Y-136060285D01*
%TO.C,C5*%
X133553142Y-131544666D02*
X133600761Y-131592285D01*
X133648380Y-131735142D01*
X133648380Y-131830380D01*
X133600761Y-131973238D01*
X133505523Y-132068476D01*
X133410285Y-132116095D01*
X133219809Y-132163714D01*
X133076952Y-132163714D01*
X132886476Y-132116095D01*
X132791238Y-132068476D01*
X132696000Y-131973238D01*
X132648380Y-131830380D01*
X132648380Y-131735142D01*
X132696000Y-131592285D01*
X132743619Y-131544666D01*
X132648380Y-130639904D02*
X132648380Y-131116095D01*
X133124571Y-131163714D01*
X133076952Y-131116095D01*
X133029333Y-131020857D01*
X133029333Y-130782761D01*
X133076952Y-130687523D01*
X133124571Y-130639904D01*
X133219809Y-130592285D01*
X133457904Y-130592285D01*
X133553142Y-130639904D01*
X133600761Y-130687523D01*
X133648380Y-130782761D01*
X133648380Y-131020857D01*
X133600761Y-131116095D01*
X133553142Y-131163714D01*
%TO.C,C10*%
X97147142Y-98782142D02*
X97099523Y-98829761D01*
X96956666Y-98877380D01*
X96861428Y-98877380D01*
X96718571Y-98829761D01*
X96623333Y-98734523D01*
X96575714Y-98639285D01*
X96528095Y-98448809D01*
X96528095Y-98305952D01*
X96575714Y-98115476D01*
X96623333Y-98020238D01*
X96718571Y-97925000D01*
X96861428Y-97877380D01*
X96956666Y-97877380D01*
X97099523Y-97925000D01*
X97147142Y-97972619D01*
X98099523Y-98877380D02*
X97528095Y-98877380D01*
X97813809Y-98877380D02*
X97813809Y-97877380D01*
X97718571Y-98020238D01*
X97623333Y-98115476D01*
X97528095Y-98163095D01*
X98718571Y-97877380D02*
X98813809Y-97877380D01*
X98909047Y-97925000D01*
X98956666Y-97972619D01*
X99004285Y-98067857D01*
X99051904Y-98258333D01*
X99051904Y-98496428D01*
X99004285Y-98686904D01*
X98956666Y-98782142D01*
X98909047Y-98829761D01*
X98813809Y-98877380D01*
X98718571Y-98877380D01*
X98623333Y-98829761D01*
X98575714Y-98782142D01*
X98528095Y-98686904D01*
X98480476Y-98496428D01*
X98480476Y-98258333D01*
X98528095Y-98067857D01*
X98575714Y-97972619D01*
X98623333Y-97925000D01*
X98718571Y-97877380D01*
%TO.C,C13*%
X70477142Y-103735142D02*
X70429523Y-103782761D01*
X70286666Y-103830380D01*
X70191428Y-103830380D01*
X70048571Y-103782761D01*
X69953333Y-103687523D01*
X69905714Y-103592285D01*
X69858095Y-103401809D01*
X69858095Y-103258952D01*
X69905714Y-103068476D01*
X69953333Y-102973238D01*
X70048571Y-102878000D01*
X70191428Y-102830380D01*
X70286666Y-102830380D01*
X70429523Y-102878000D01*
X70477142Y-102925619D01*
X71429523Y-103830380D02*
X70858095Y-103830380D01*
X71143809Y-103830380D02*
X71143809Y-102830380D01*
X71048571Y-102973238D01*
X70953333Y-103068476D01*
X70858095Y-103116095D01*
X71762857Y-102830380D02*
X72381904Y-102830380D01*
X72048571Y-103211333D01*
X72191428Y-103211333D01*
X72286666Y-103258952D01*
X72334285Y-103306571D01*
X72381904Y-103401809D01*
X72381904Y-103639904D01*
X72334285Y-103735142D01*
X72286666Y-103782761D01*
X72191428Y-103830380D01*
X71905714Y-103830380D01*
X71810476Y-103782761D01*
X71762857Y-103735142D01*
%TO.C,D5*%
X87320380Y-89511095D02*
X86320380Y-89511095D01*
X86320380Y-89273000D01*
X86368000Y-89130142D01*
X86463238Y-89034904D01*
X86558476Y-88987285D01*
X86748952Y-88939666D01*
X86891809Y-88939666D01*
X87082285Y-88987285D01*
X87177523Y-89034904D01*
X87272761Y-89130142D01*
X87320380Y-89273000D01*
X87320380Y-89511095D01*
X86320380Y-88034904D02*
X86320380Y-88511095D01*
X86796571Y-88558714D01*
X86748952Y-88511095D01*
X86701333Y-88415857D01*
X86701333Y-88177761D01*
X86748952Y-88082523D01*
X86796571Y-88034904D01*
X86891809Y-87987285D01*
X87129904Y-87987285D01*
X87225142Y-88034904D01*
X87272761Y-88082523D01*
X87320380Y-88177761D01*
X87320380Y-88415857D01*
X87272761Y-88511095D01*
X87225142Y-88558714D01*
X85570380Y-87129904D02*
X84570380Y-87129904D01*
X85570380Y-86558476D02*
X84998952Y-86987047D01*
X84570380Y-86558476D02*
X85141809Y-87129904D01*
%TO.C,D11*%
X76255714Y-101417380D02*
X76255714Y-100417380D01*
X76493809Y-100417380D01*
X76636666Y-100465000D01*
X76731904Y-100560238D01*
X76779523Y-100655476D01*
X76827142Y-100845952D01*
X76827142Y-100988809D01*
X76779523Y-101179285D01*
X76731904Y-101274523D01*
X76636666Y-101369761D01*
X76493809Y-101417380D01*
X76255714Y-101417380D01*
X77779523Y-101417380D02*
X77208095Y-101417380D01*
X77493809Y-101417380D02*
X77493809Y-100417380D01*
X77398571Y-100560238D01*
X77303333Y-100655476D01*
X77208095Y-100703095D01*
X78731904Y-101417380D02*
X78160476Y-101417380D01*
X78446190Y-101417380D02*
X78446190Y-100417380D01*
X78350952Y-100560238D01*
X78255714Y-100655476D01*
X78160476Y-100703095D01*
X79748095Y-99667380D02*
X79748095Y-98667380D01*
X80319523Y-99667380D02*
X79890952Y-99095952D01*
X80319523Y-98667380D02*
X79748095Y-99238809D01*
%TO.C,J3*%
X166671666Y-80097380D02*
X166671666Y-80811666D01*
X166624047Y-80954523D01*
X166528809Y-81049761D01*
X166385952Y-81097380D01*
X166290714Y-81097380D01*
X167052619Y-80097380D02*
X167671666Y-80097380D01*
X167338333Y-80478333D01*
X167481190Y-80478333D01*
X167576428Y-80525952D01*
X167624047Y-80573571D01*
X167671666Y-80668809D01*
X167671666Y-80906904D01*
X167624047Y-81002142D01*
X167576428Y-81049761D01*
X167481190Y-81097380D01*
X167195476Y-81097380D01*
X167100238Y-81049761D01*
X167052619Y-81002142D01*
%TO.C,Q3*%
X165004761Y-119121619D02*
X164909523Y-119074000D01*
X164814285Y-118978761D01*
X164671428Y-118835904D01*
X164576190Y-118788285D01*
X164480952Y-118788285D01*
X164528571Y-119026380D02*
X164433333Y-118978761D01*
X164338095Y-118883523D01*
X164290476Y-118693047D01*
X164290476Y-118359714D01*
X164338095Y-118169238D01*
X164433333Y-118074000D01*
X164528571Y-118026380D01*
X164719047Y-118026380D01*
X164814285Y-118074000D01*
X164909523Y-118169238D01*
X164957142Y-118359714D01*
X164957142Y-118693047D01*
X164909523Y-118883523D01*
X164814285Y-118978761D01*
X164719047Y-119026380D01*
X164528571Y-119026380D01*
X165290476Y-118026380D02*
X165909523Y-118026380D01*
X165576190Y-118407333D01*
X165719047Y-118407333D01*
X165814285Y-118454952D01*
X165861904Y-118502571D01*
X165909523Y-118597809D01*
X165909523Y-118835904D01*
X165861904Y-118931142D01*
X165814285Y-118978761D01*
X165719047Y-119026380D01*
X165433333Y-119026380D01*
X165338095Y-118978761D01*
X165290476Y-118931142D01*
%TO.C,Q4*%
X116752619Y-103600238D02*
X116705000Y-103695476D01*
X116609761Y-103790714D01*
X116466904Y-103933571D01*
X116419285Y-104028809D01*
X116419285Y-104124047D01*
X116657380Y-104076428D02*
X116609761Y-104171666D01*
X116514523Y-104266904D01*
X116324047Y-104314523D01*
X115990714Y-104314523D01*
X115800238Y-104266904D01*
X115705000Y-104171666D01*
X115657380Y-104076428D01*
X115657380Y-103885952D01*
X115705000Y-103790714D01*
X115800238Y-103695476D01*
X115990714Y-103647857D01*
X116324047Y-103647857D01*
X116514523Y-103695476D01*
X116609761Y-103790714D01*
X116657380Y-103885952D01*
X116657380Y-104076428D01*
X115990714Y-102790714D02*
X116657380Y-102790714D01*
X115609761Y-103028809D02*
X116324047Y-103266904D01*
X116324047Y-102647857D01*
%TO.C,Q5*%
X153828761Y-125896619D02*
X153733523Y-125849000D01*
X153638285Y-125753761D01*
X153495428Y-125610904D01*
X153400190Y-125563285D01*
X153304952Y-125563285D01*
X153352571Y-125801380D02*
X153257333Y-125753761D01*
X153162095Y-125658523D01*
X153114476Y-125468047D01*
X153114476Y-125134714D01*
X153162095Y-124944238D01*
X153257333Y-124849000D01*
X153352571Y-124801380D01*
X153543047Y-124801380D01*
X153638285Y-124849000D01*
X153733523Y-124944238D01*
X153781142Y-125134714D01*
X153781142Y-125468047D01*
X153733523Y-125658523D01*
X153638285Y-125753761D01*
X153543047Y-125801380D01*
X153352571Y-125801380D01*
X154685904Y-124801380D02*
X154209714Y-124801380D01*
X154162095Y-125277571D01*
X154209714Y-125229952D01*
X154304952Y-125182333D01*
X154543047Y-125182333D01*
X154638285Y-125229952D01*
X154685904Y-125277571D01*
X154733523Y-125372809D01*
X154733523Y-125610904D01*
X154685904Y-125706142D01*
X154638285Y-125753761D01*
X154543047Y-125801380D01*
X154304952Y-125801380D01*
X154209714Y-125753761D01*
X154162095Y-125706142D01*
%TO.C,R3*%
X128738333Y-127452380D02*
X128405000Y-126976190D01*
X128166904Y-127452380D02*
X128166904Y-126452380D01*
X128547857Y-126452380D01*
X128643095Y-126500000D01*
X128690714Y-126547619D01*
X128738333Y-126642857D01*
X128738333Y-126785714D01*
X128690714Y-126880952D01*
X128643095Y-126928571D01*
X128547857Y-126976190D01*
X128166904Y-126976190D01*
X129071666Y-126452380D02*
X129690714Y-126452380D01*
X129357380Y-126833333D01*
X129500238Y-126833333D01*
X129595476Y-126880952D01*
X129643095Y-126928571D01*
X129690714Y-127023809D01*
X129690714Y-127261904D01*
X129643095Y-127357142D01*
X129595476Y-127404761D01*
X129500238Y-127452380D01*
X129214523Y-127452380D01*
X129119285Y-127404761D01*
X129071666Y-127357142D01*
%TO.C,U1*%
X93472095Y-83272380D02*
X93472095Y-84081904D01*
X93519714Y-84177142D01*
X93567333Y-84224761D01*
X93662571Y-84272380D01*
X93853047Y-84272380D01*
X93948285Y-84224761D01*
X93995904Y-84177142D01*
X94043523Y-84081904D01*
X94043523Y-83272380D01*
X95043523Y-84272380D02*
X94472095Y-84272380D01*
X94757809Y-84272380D02*
X94757809Y-83272380D01*
X94662571Y-83415238D01*
X94567333Y-83510476D01*
X94472095Y-83558095D01*
%TO.C,U2*%
X128016095Y-106640380D02*
X128016095Y-107449904D01*
X128063714Y-107545142D01*
X128111333Y-107592761D01*
X128206571Y-107640380D01*
X128397047Y-107640380D01*
X128492285Y-107592761D01*
X128539904Y-107545142D01*
X128587523Y-107449904D01*
X128587523Y-106640380D01*
X129016095Y-106735619D02*
X129063714Y-106688000D01*
X129158952Y-106640380D01*
X129397047Y-106640380D01*
X129492285Y-106688000D01*
X129539904Y-106735619D01*
X129587523Y-106830857D01*
X129587523Y-106926095D01*
X129539904Y-107068952D01*
X128968476Y-107640380D01*
X129587523Y-107640380D01*
%TO.C,U3*%
X75902380Y-84581904D02*
X76711904Y-84581904D01*
X76807142Y-84534285D01*
X76854761Y-84486666D01*
X76902380Y-84391428D01*
X76902380Y-84200952D01*
X76854761Y-84105714D01*
X76807142Y-84058095D01*
X76711904Y-84010476D01*
X75902380Y-84010476D01*
X75902380Y-83629523D02*
X75902380Y-83010476D01*
X76283333Y-83343809D01*
X76283333Y-83200952D01*
X76330952Y-83105714D01*
X76378571Y-83058095D01*
X76473809Y-83010476D01*
X76711904Y-83010476D01*
X76807142Y-83058095D01*
X76854761Y-83105714D01*
X76902380Y-83200952D01*
X76902380Y-83486666D01*
X76854761Y-83581904D01*
X76807142Y-83629523D01*
%TO.C,U4*%
X60198095Y-86447380D02*
X60198095Y-87256904D01*
X60245714Y-87352142D01*
X60293333Y-87399761D01*
X60388571Y-87447380D01*
X60579047Y-87447380D01*
X60674285Y-87399761D01*
X60721904Y-87352142D01*
X60769523Y-87256904D01*
X60769523Y-86447380D01*
X61674285Y-86780714D02*
X61674285Y-87447380D01*
X61436190Y-86399761D02*
X61198095Y-87114047D01*
X61817142Y-87114047D01*
%TO.C,U5*%
X158496095Y-89308380D02*
X158496095Y-90117904D01*
X158543714Y-90213142D01*
X158591333Y-90260761D01*
X158686571Y-90308380D01*
X158877047Y-90308380D01*
X158972285Y-90260761D01*
X159019904Y-90213142D01*
X159067523Y-90117904D01*
X159067523Y-89308380D01*
X160019904Y-89308380D02*
X159543714Y-89308380D01*
X159496095Y-89784571D01*
X159543714Y-89736952D01*
X159638952Y-89689333D01*
X159877047Y-89689333D01*
X159972285Y-89736952D01*
X160019904Y-89784571D01*
X160067523Y-89879809D01*
X160067523Y-90117904D01*
X160019904Y-90213142D01*
X159972285Y-90260761D01*
X159877047Y-90308380D01*
X159638952Y-90308380D01*
X159543714Y-90260761D01*
X159496095Y-90213142D01*
%TD*%
M02*
